<svg width="40" height="40" id="automatico" viewBox="0 0 42 42" fill="none" xmlns="http://www.w3.org/2000/svg">
<rect width="40" height="40" rx="4" />
<g clip-path="url(#clip0)">
<path fill-rule="evenodd" clip-rule="evenodd" d="M34.125 13.5H7.875V28.5H34.125V13.5ZM7.875 11.625C7.37772 11.625 6.90081 11.8225 6.54917 12.1742C6.19754 12.5258 6 13.0027 6 13.5V28.5C6 28.9973 6.19754 29.4742 6.54917 29.8258C6.90081 30.1775 7.37772 30.375 7.875 30.375H34.125C34.6223 30.375 35.0992 30.1775 35.4508 29.8258C35.8025 29.4742 36 28.9973 36 28.5V13.5C36 13.0027 35.8025 12.5258 35.4508 12.1742C35.0992 11.8225 34.6223 11.625 34.125 11.625H7.875Z" fill="#848FDF"/>
<path d="M30.375 13.5C30.375 14.4946 30.7701 15.4484 31.4734 16.1517C32.1766 16.8549 33.1304 17.25 34.125 17.25V13.5H30.375ZM11.625 13.5C11.625 14.4946 11.2299 15.4484 10.5267 16.1517C9.82339 16.8549 8.86956 17.25 7.875 17.25V13.5H11.625ZM30.375 28.5C30.375 27.5054 30.7701 26.5516 31.4734 25.8484C32.1766 25.1451 33.1304 24.75 34.125 24.75V28.5H30.375ZM11.625 28.5C11.625 27.5054 11.2299 26.5516 10.5267 25.8484C9.82339 25.1451 8.86956 24.75 7.875 24.75V28.5H11.625ZM24.75 21C24.75 21.9946 24.3549 22.9484 23.6516 23.6516C22.9484 24.3549 21.9946 24.75 21 24.75C20.0054 24.75 19.0516 24.3549 18.3483 23.6516C17.6451 22.9484 17.25 21.9946 17.25 21C17.25 20.0054 17.6451 19.0516 18.3483 18.3483C19.0516 17.6451 20.0054 17.25 21 17.25C21.9946 17.25 22.9484 17.6451 23.6516 18.3483C24.3549 19.0516 24.75 20.0054 24.75 21Z" fill="#848FDF"/>
</g>
<defs>
<clipPath id="clip0">
<rect width="30" height="30" fill="white" transform="translate(6 6)"/>
</clipPath>
</defs>
</svg>
