<svg id="block" viewBox="0 0 438 350" fill="none" xmlns="http://www.w3.org/2000/svg">
<rect x="294.732" y="59.4082" width="91.6582" height="135.982" rx="16.64" stroke="#CCDDE2" stroke-width="2"/>
<rect x="302.579" y="73.418" width="76.9049" height="23.9167" rx="8.32" stroke="#CCDDE2" stroke-width="2"/>
<ellipse cx="340.561" cy="81.0202" rx="2.27237" ry="2.47334" fill="#FFF9EA"/>
<path d="M334.212 92.2102C334.212 88.3931 337.055 85.2988 340.562 85.2988C344.069 85.2988 346.911 88.3931 346.911 92.2102H334.212Z" fill="#FFF9EA"/>
<path fill-rule="evenodd" clip-rule="evenodd" d="M341.025 122.969C334.265 122.971 328.787 128.938 328.788 136.295C328.79 143.653 334.27 149.616 341.03 149.615C347.79 149.615 353.27 143.65 353.27 136.292C353.27 132.758 351.979 129.368 349.683 126.869C347.386 124.371 344.272 122.968 341.025 122.969ZM341.025 146.4C340.07 146.349 339.32 145.492 339.32 144.451C339.32 143.411 340.07 142.554 341.025 142.503C341.979 142.554 342.729 143.411 342.729 144.451C342.729 145.492 341.979 146.349 341.025 146.4ZM343.134 132.588C343.184 132.195 343.233 131.804 343.284 131.415C343.31 131.2 343.344 130.974 343.38 130.744C343.58 129.435 343.806 127.96 342.585 127.21C341.415 126.492 339.4 126.632 338.684 128.032C338.049 129.234 338.432 131.067 338.746 132.565C338.832 132.98 338.914 133.368 338.967 133.711C339.265 135.885 339.694 138.035 340.253 140.146C340.442 140.823 341.608 140.823 341.796 140.146C342.483 137.715 342.813 135.116 343.134 132.588Z" fill="#FFF9EA"/>
<path fill-rule="evenodd" clip-rule="evenodd" d="M207.087 86.4057C198.311 83.5573 188.822 86.7439 183.046 94.4795C177.27 102.215 176.344 112.976 180.7 121.745C185.056 130.513 193.836 135.562 202.946 134.537C212.056 133.511 219.701 126.614 222.316 117.061C224.032 110.798 223.392 104.049 220.536 98.2999C217.68 92.5507 212.842 88.2721 207.087 86.4057ZM195.713 127.939C194.012 127.328 193.067 125.356 193.578 123.488C194.09 121.621 195.873 120.535 197.603 121.037C198.768 121.375 199.672 122.376 199.962 123.649C200.253 124.923 199.885 126.267 199.001 127.16C198.117 128.052 196.857 128.35 195.713 127.939ZM206.165 104.637C206.44 103.979 206.714 103.324 206.989 102.674C207.138 102.309 207.308 101.931 207.482 101.545C208.474 99.3417 209.592 96.8554 207.816 94.8386C206.08 92.8973 202.444 92.0293 200.506 94.0499C198.797 95.819 198.586 99.2885 198.415 102.12C198.368 102.904 198.323 103.638 198.251 104.275C197.715 108.293 197.428 112.347 197.393 116.408C197.397 117.715 199.468 118.387 200.129 117.295C202.513 113.372 204.364 108.943 206.165 104.637Z" fill="#FFB81C"/>
<path fill-rule="evenodd" clip-rule="evenodd" d="M143.847 140.973C139.463 145.83 139.525 153.635 143.986 158.408C148.448 163.18 155.619 163.113 160.004 158.258C164.39 153.403 164.329 145.598 159.869 140.824C155.407 136.05 148.234 136.117 143.847 140.973ZM158.056 156.173C157.641 156.632 157.033 156.816 156.461 156.655C155.888 156.494 155.438 156.013 155.28 155.392C155.121 154.772 155.279 154.107 155.693 153.648C156.334 152.938 157.382 152.927 158.034 153.625C158.687 154.322 158.696 155.463 158.056 156.173ZM151.062 145.724C150.852 145.427 150.643 145.132 150.437 144.838C150.321 144.677 150.206 144.504 150.087 144.327C149.424 143.333 148.679 142.219 147.453 142.607C146.278 142.976 145.052 144.534 145.42 145.934C145.741 147.18 147.113 148.099 148.228 148.846C148.528 149.048 148.81 149.236 149.048 149.416C150.551 150.618 152.127 151.709 153.764 152.682C154.296 152.972 155.05 152.146 154.763 151.572C153.738 149.51 152.381 147.59 151.062 145.724Z" fill="#FFB81C"/>
<path d="M310.271 108.013H370.068" stroke="#CCDDE2" stroke-width="2"/>
<path d="M310.271 114.421H370.068" stroke="#CCDDE2" stroke-width="2"/>
<path d="M310.271 155.673H370.068" stroke="#CCDDE2" stroke-width="2"/>
<path d="M324.158 161.735H356.177" stroke="#CCDDE2" stroke-width="2"/>
<path d="M386.395 147.264C391.669 154.478 396.685 163.42 401.221 174.438C428.841 241.572 394.318 275.644 394.318 275.644" stroke="#9F9F9F" stroke-width="2"/>
<path d="M97.9107 200.496C97.9107 200.496 56.9265 149.895 108.034 124.84C159.141 99.7845 169.259 96.3032 165.572 70.2398C161.885 44.1765 190.868 17.6372 236.448 35.1745C282.029 52.7118 282.942 85.7612 279.709 111.311C277.874 125.876 285.467 129.376 294.716 128.643" stroke="#9F9F9F" stroke-width="2"/>
<path fill-rule="evenodd" clip-rule="evenodd" d="M381.559 305.491C382.737 303.006 383.401 300.272 383.505 297.478C383.509 297.368 383.506 297.257 383.497 297.147C383.801 290.963 382.253 283.212 378.579 274.163V274.135C375.183 265.81 369.961 256.402 362.715 246.135L362.672 246.089C356.348 237.133 350.616 229.951 345.771 224.314C345.611 224.129 345.451 223.944 345.29 223.758C344.732 223.112 344.171 222.462 343.602 221.831C343.507 221.721 343.412 221.615 343.319 221.509C343.222 221.401 343.127 221.294 343.036 221.187C336.133 213.445 331.438 209.301 329.946 208.051C329.616 207.752 329.436 207.617 329.436 207.617C291.187 195.623 286.989 244.362 286.989 244.362H287.019L314.888 267.929L314.983 268.003C314.992 268 315.003 268 315.013 268.003C315.356 268.185 320.038 270.71 322.053 273.655C322.513 274.282 322.817 275.028 322.936 275.82C322.965 276.102 322.928 276.388 322.829 276.651C322.306 277.897 320.29 278.648 318.082 279.115C315.775 279.534 313.445 279.78 311.107 279.852C311.066 279.852 310.701 279.891 310.071 279.959C309.832 279.985 309.554 280.015 309.242 280.048L307.955 280.183C307.625 280.213 307.276 280.251 306.901 280.293C306.741 280.31 306.577 280.329 306.408 280.347L305.25 280.468C305.182 280.473 305.108 280.483 305.031 280.494C304.904 280.511 304.769 280.529 304.641 280.529L303.355 280.664C303.297 280.671 303.238 280.68 303.178 280.689C303.012 280.714 302.841 280.739 302.677 280.739C292.863 281.803 277.698 283.487 275.478 283.954C274.405 284.226 273.287 284.215 272.219 283.921C271.669 283.777 271.158 283.494 270.727 283.095L251.63 267.887C248.478 265.382 245.638 262.928 243.111 260.523C242.61 259.811 242.075 259.129 241.508 258.479C224.774 238.79 223.406 226.227 223.406 226.227C223.111 226.154 222.812 226.108 222.51 226.092C224.898 224.692 230.073 221.64 230.93 220.786C230.961 220.755 230.992 220.723 231.022 220.692C232.076 219.611 232.792 218.875 235.531 223.203C238.348 227.655 249.007 227.94 249.007 227.94C260.879 224.169 259.644 204.149 259.052 196.949C258.46 189.748 254.91 187.737 254.91 187.737C255.023 184.907 254.634 182.081 253.766 179.411C256.57 178.161 300.77 159.466 347.979 198.255C396.762 238.342 402.07 320.732 402.07 320.732H362.394C366.121 319.964 369.668 318.385 372.821 316.089L372.945 315.995C376.438 313.362 379.329 309.891 381.396 305.85C381.458 305.735 381.512 305.615 381.559 305.491ZM273.715 194.079C273.359 194.363 267.01 199.506 268.142 213.707C269.273 227.903 281.54 239.728 282.02 240.167C281.998 240.126 281.952 240.048 281.884 239.933C280.189 237.041 265.031 211.179 273.715 194.079Z" fill="#25282A"/>
<path d="M244.157 210.921C243.688 211.297 243.198 211.643 242.691 211.957L239.75 206.357C246.533 202.582 248.436 195.927 245.452 192.273C244.618 191.273 243.542 190.549 242.348 190.182C239.347 189.193 237.267 190.649 235.857 192.604C234.705 194.304 233.862 196.227 233.37 198.27L231.938 180.294L231.826 178.894C231.826 178.894 228.705 177.209 220.25 178.712C211.795 180.214 210.239 185.296 206.607 183.042C202.976 180.788 200.918 180.97 200.918 180.97C199.885 185.1 197.119 185.1 197.119 185.1C196.464 185.014 195.821 184.843 195.203 184.592C191.28 180.667 190.216 173.858 190.216 173.858C194.332 173.303 194.65 168.991 194.178 165.458C196.459 166.933 199.675 167.036 204.189 163.881C217.142 154.865 230.424 159.746 235.094 160.498C237.177 160.829 239.458 160.031 241.349 159.098C241.593 159.574 241.933 159.984 242.344 160.297C245.496 162.687 248.095 165.84 249.937 169.509C262.092 194.238 248.766 207.37 244.157 210.921Z" fill="#FFB81C"/>
<path d="M195.636 320.742H200.523C204.876 320.737 208.403 316.898 208.408 312.16V306.206C208.408 305.109 208.008 304.058 207.295 303.284C206.583 302.509 205.616 302.074 204.609 302.076H175.377C175.379 304.635 174.446 307.091 172.782 308.901C171.119 310.71 168.862 311.725 166.511 311.722H60.8794C60.8818 316.702 64.5909 320.74 69.1671 320.742H212.37C212.748 320.743 213.11 320.581 213.377 320.29C213.645 319.999 213.794 319.604 213.793 319.193V309.528C213.793 305.618 216.705 302.449 220.297 302.449C223.889 302.449 226.801 305.618 226.801 309.528V319.193C226.8 319.603 226.949 319.997 227.215 320.288C227.482 320.579 227.843 320.742 228.221 320.742H402.07C402.07 320.742 396.762 238.334 347.979 198.252C300.769 159.462 256.569 178.157 253.765 179.408L253.628 179.464" stroke="black" stroke-width="2"/>
<path d="M204.884 199.577C204.879 201.024 203.799 202.193 202.47 202.191C201.141 202.188 200.064 201.015 200.064 199.568C200.064 198.121 201.141 196.948 202.47 196.945C202.656 196.946 202.842 196.971 203.023 197.02C202.511 197.196 202.163 197.714 202.165 198.299C202.163 198.66 202.293 199.007 202.526 199.263C202.759 199.52 203.077 199.665 203.409 199.666C204.028 199.653 204.551 199.16 204.652 198.495C204.8 198.833 204.879 199.203 204.884 199.577Z" fill="black"/>
<path d="M221.609 200.309C221.611 201.374 221.023 202.335 220.12 202.744C219.216 203.153 218.175 202.929 217.483 202.176C216.79 201.424 216.583 200.292 216.957 199.308C217.331 198.323 218.213 197.682 219.191 197.682C219.307 197.681 219.422 197.695 219.534 197.724C219.097 197.943 218.818 198.418 218.818 198.942C218.798 199.425 219.017 199.884 219.392 200.144C219.766 200.405 220.24 200.428 220.635 200.205C221.03 199.982 221.285 199.547 221.305 199.063C221.503 199.443 221.608 199.872 221.609 200.309Z" fill="black"/>
<path fill-rule="evenodd" clip-rule="evenodd" d="M240.898 155.402C240.62 157.446 240.967 159.238 242.348 160.302C245.5 162.692 248.099 165.846 249.941 169.514C264.441 199.003 242.691 211.981 242.691 211.981L239.749 206.381C248.217 201.677 249.083 192.465 242.348 190.206C235.612 187.948 233.37 198.294 233.37 198.294L231.826 178.904C231.826 178.904 228.705 177.219 220.25 178.722C211.795 180.224 210.239 185.306 206.607 183.052C202.976 180.798 200.918 180.98 200.918 180.98C199.884 185.11 197.119 185.11 197.119 185.11C189.015 183.986 187.112 171.782 187.112 171.782C191.224 171.222 191.541 166.91 191.073 163.382C193.35 164.857 196.57 164.964 201.085 161.805C214.037 152.789 227.32 157.675 231.985 158.426C235.209 158.935 238.909 156.788 240.898 155.402V155.402Z" stroke="black" stroke-width="2" stroke-linecap="round" stroke-linejoin="round"/>
<path d="M248.376 301.636L251.579 300.236L253.98 307.288L253.603 320.084L250.357 320.723L238.039 320.144C238.039 320.144 238.897 312.342 241.516 308.632C244.136 304.922 248.376 301.636 248.376 301.636Z" fill="#FFB81C"/>
<path d="M192.292 189.422C192.292 189.422 195.571 183.014 202.474 183.682" stroke="black" stroke-width="2"/>
<path d="M215.993 183.682C215.993 183.682 223.882 181.754 226.643 186.528" stroke="black" stroke-width="2"/>
<path d="M228.217 212.69C228.217 212.69 223.5 209.717 220.049 214.715" stroke="black" stroke-width="2"/>
<path d="M198.414 184.709C198.414 184.709 195.057 227.694 220.091 226.9C224.379 226.765 228.641 223.699 232.714 218.766" stroke="black" stroke-width="2"/>
<path d="M242.691 222.677L232.714 218.766C232.714 218.766 235.188 227.372 247.441 228.03C259.695 228.688 263.807 198.079 254.803 185.764" stroke="black" stroke-width="2" stroke-linejoin="round"/>
<path d="M281.699 308.908C281.699 308.908 272.553 316.986 278.766 320.743" stroke="black" stroke-width="2"/>
<path d="M274.624 301.389C274.624 301.389 258.761 311.161 272.382 320.741" stroke="black" stroke-width="2"/>
<path d="M269.273 293.877C269.273 293.877 248.218 304.61 264.441 320.743" stroke="black" stroke-width="2"/>
<path d="M357.819 320.742C357.819 320.742 383.364 320.742 383.707 293.876C384.05 267.01 334.174 199.549 301.897 190.164C269.621 180.779 268.236 206.497 268.236 207.552C268.236 208.607 266.341 219.685 274.625 231.506C281.022 240.643 309.276 263.454 321.813 273.366C322.756 274.112 323.176 275.416 322.868 276.64C322.56 277.864 321.589 278.753 320.428 278.873L264.982 284.669H264.948C264.425 284.771 244.856 288.701 238.897 295.374C238.897 295.374 235.557 298.067 237.285 302.201C239.013 306.336 244.321 304.973 244.466 304.819" stroke="black" stroke-width="2"/>
<ellipse opacity="0.26" cx="219.195" cy="197.677" rx="6.90289" ry="7.51336" fill="white"/>
<ellipse opacity="0.26" cx="201.676" cy="196.935" rx="6.90288" ry="7.51334" fill="white"/>
<path d="M261.345 300.451C258.919 299.714 254.953 299.051 250.867 300.479C248.869 301.18 247.025 302.322 245.452 303.835C245.109 304.161 244.779 304.493 244.461 304.824C243.777 305.554 243.132 306.325 242.528 307.134C242.448 307.241 242.335 307.313 242.21 307.335C240.688 307.563 230.668 309.29 230.72 314.801C230.767 319.753 235.749 320.565 237.464 320.695C237.607 320.71 237.749 320.658 237.856 320.554C237.962 320.449 238.024 320.301 238.026 320.145C238.026 318.381 238.395 312.851 242.403 307.288" stroke="black" stroke-width="2"/>
<path d="M171.068 261.555C172.243 271.863 164.882 276.525 156.834 277.216" stroke="black" stroke-width="2"/>
<path d="M145.137 275.065C138.851 271.369 135.355 263.794 136.382 256.099C137.668 246.183 145.386 238.576 152.941 233.751C168.804 223.619 204.553 230.951 210.56 232.444C215.165 233.592 219.015 229.672 220.576 227.777C220.711 227.613 220.922 227.55 221.115 227.615C221.309 227.68 221.45 227.862 221.476 228.081C224.773 249.081 263.065 277.585 271.923 283.964" stroke="black" stroke-width="2"/>
<path d="M180.728 254.423L168.05 262.987C166.522 264.022 164.663 264.306 162.932 263.767C161.202 263.228 159.762 261.917 158.969 260.159C157.502 256.92 158.57 252.998 161.421 251.152L180.715 238.641" stroke="black" stroke-width="2"/>
<ellipse cx="219.195" cy="197.677" rx="6.90289" ry="7.51336" stroke="black" stroke-width="2"/>
<ellipse cx="201.677" cy="196.936" rx="5.86959" ry="6.38866" stroke="white" stroke-width="4"/>
<ellipse cx="201.677" cy="196.935" rx="6.90288" ry="7.51334" stroke="black" stroke-width="2"/>
<path d="M212.327 196.936H208.58" stroke="black" stroke-width="4"/>
<path d="M212.327 207.552H209.857C209.543 207.553 209.245 207.4 209.044 207.137C208.843 206.873 208.761 206.526 208.82 206.19L210.453 196.936" stroke="black" stroke-width="2"/>
<path d="M162.776 233.195C162.776 233.195 153.974 235.263 150.87 249.729C148.983 258.512 146.394 269.717 144.653 277.165C144.2 279.101 144.594 281.156 145.721 282.733C146.847 284.31 148.58 285.233 150.415 285.233C153.201 285.234 155.614 283.129 156.221 280.17L159.904 262.185" stroke="black" stroke-width="2"/>
<path d="M170.824 267.01C170.824 267.01 180.063 261 198.264 267.01C216.464 273.021 237.387 277.1 244.29 261.158" stroke="black" stroke-width="2"/>
<path d="M250.872 300.479C250.872 300.479 257.303 308.468 253.393 320.741" stroke="black" stroke-width="2"/>
<path d="M38.3529 201.131H139.967C146.703 201.121 152.569 206.137 154.154 213.264L170.331 286.186C171.215 290.172 170.371 294.38 168.04 297.602C165.709 300.825 162.149 302.706 158.381 302.706H57.0293C50.306 302.712 44.4506 297.714 42.8548 290.605L26.4165 217.698C25.5171 213.707 26.3525 209.487 28.6823 206.254C31.012 203.02 34.5776 201.132 38.3529 201.131Z" fill="#FFB81C"/>
<path d="M42.053 204.266H137.39C143.71 204.275 149.207 208.982 150.703 215.666L165.889 284.075C166.72 287.815 165.928 291.762 163.742 294.786C161.556 297.809 158.216 299.573 154.681 299.573H59.576C53.2761 299.559 47.7948 294.876 46.2848 288.219L30.8498 219.806C30.0053 216.061 30.7895 212.101 32.9765 209.068C35.1634 206.034 38.5103 204.263 42.053 204.266V204.266Z" fill="#FFB81C"/>
<path fill-rule="evenodd" clip-rule="evenodd" d="M38.3529 201.131H139.967C146.704 201.121 152.569 206.137 154.154 213.264L170.331 286.186C171.215 290.172 170.371 294.38 168.04 297.602C165.709 300.825 162.149 302.706 158.381 302.706H57.0293C50.306 302.712 44.4506 297.714 42.8548 290.605L26.4165 217.698C25.5171 213.707 26.3525 209.487 28.6822 206.254C31.012 203.02 34.5776 201.132 38.3529 201.131V201.131Z" stroke="black" stroke-width="2"/>
<path fill-rule="evenodd" clip-rule="evenodd" d="M79.886 218.961L85.9443 249.7C86.1083 250.559 85.9101 251.453 85.404 252.136C84.9072 252.809 84.1606 253.206 83.3675 253.219L54.354 253.592H54.2982C53.5117 253.59 52.7694 253.196 52.2831 252.523C52.0156 252.189 51.8298 251.786 51.7429 251.352L44.7328 220.253C44.5351 219.391 44.713 218.477 45.2153 217.775C45.7175 217.074 46.4882 216.662 47.3053 216.66H77.2835C78.5414 216.662 79.6267 217.621 79.886 218.961ZM46.8379 219.167C46.7289 219.318 46.6909 219.517 46.735 219.703L53.3849 249.239C54.1137 245.687 56.6262 240.293 65.3213 245.221C65.3213 245.221 67.0663 226.647 82.4713 242.836L77.8579 219.423C77.8026 219.126 77.5619 218.913 77.2834 218.915H47.3052C47.122 218.915 46.9494 219.008 46.8379 219.167Z" fill="#FFF9EA"/>
<path d="M55.3915 230.86C57.0636 230.296 57.8568 227.883 57.1708 225.47C56.4848 223.058 54.5683 221.564 52.8833 222.129C51.1983 222.694 50.418 225.106 51.1083 227.514C51.7986 229.922 53.7237 231.425 55.3915 230.86Z" fill="#FFF9EA"/>
<path d="M62.732 230.311H72.5675H76.2376H76.4134C76.7574 230.322 77.0995 230.252 77.4167 230.106C77.8628 229.865 78.1552 229.382 78.1818 228.84C78.2085 228.299 77.9652 227.784 77.5453 227.493C77.3143 227.379 77.1038 227.221 76.9236 227.026C76.8042 226.821 76.7227 226.593 76.6835 226.354C76.4564 225.678 76.0177 225.112 75.4444 224.753C74.6018 224.136 73.5647 223.919 72.5718 224.151C72.0869 224.285 71.6431 224.555 71.2856 224.935C70.9811 225.262 70.9211 225.701 70.6853 226.065C70.5309 226.303 70.4323 226.228 70.2222 226.097C70.0122 225.967 69.8964 225.869 69.7249 225.775C69.3865 225.578 69.0355 225.408 68.6745 225.267C67.9391 224.97 67.1548 224.845 66.3721 224.898C64.9958 225.015 63.6238 225.906 63.1436 227.315C62.2497 227.328 61.4971 228.047 61.3686 229.009C61.3108 229.374 61.4159 229.746 61.6515 230.013C61.9642 230.257 62.3501 230.364 62.732 230.311Z" fill="#FFF9EA"/>
<path fill-rule="evenodd" clip-rule="evenodd" d="M132.455 226.116L133.244 229.649C133.828 232.255 133.28 235.009 131.759 237.12C130.237 239.23 127.91 240.464 125.445 240.466H114.675C110.157 240.469 106.2 237.173 105.023 232.426L104.127 228.837C103.468 226.206 103.974 223.391 105.497 221.224C107.019 219.058 109.382 217.788 111.888 217.791H122.722C127.343 217.787 131.366 221.228 132.455 226.116ZM117.629 233L121.329 230.522H121.346C121.699 230.295 121.907 229.873 121.884 229.427C121.862 228.981 121.613 228.586 121.239 228.403L116.107 225.935C115.712 225.75 115.255 225.83 114.933 226.139C114.611 226.449 114.482 226.932 114.602 227.381L115.995 232.337C116.093 232.694 116.34 232.98 116.661 233.111C116.981 233.241 117.34 233.2 117.629 233Z" fill="white"/>
<path d="M130.826 261.381H111.871C110.098 261.378 108.494 260.236 107.78 258.469C107.672 258.203 107.614 257.916 107.609 257.625C107.618 256.453 108.492 255.508 109.568 255.506H129.72C128.772 257.251 129.252 259.664 130.826 261.381Z" fill="#FFF9EA"/>
<path d="M143.105 259.263C143.103 260.432 142.233 261.379 141.159 261.381H130.826C129.252 259.664 128.772 257.251 129.719 255.506H138.818C140.587 255.507 142.191 256.643 142.908 258.404C143.027 258.673 143.094 258.965 143.105 259.263Z" fill="#FFB81C"/>
<path d="M138.342 261.382C138.288 261.495 138.226 261.602 138.157 261.704C136.802 263.715 133.87 263.902 131.593 262.091C131.321 261.877 131.065 261.639 130.826 261.382C129.252 259.665 128.772 257.252 129.719 255.507C129.773 255.396 129.834 255.289 129.904 255.19C131.246 253.164 134.191 252.987 136.455 254.784C136.73 255.004 136.989 255.245 137.231 255.507C138.818 257.224 139.276 259.637 138.342 261.382Z" fill="white"/>
<path d="M147.852 272.236C147.842 273.408 146.968 274.353 145.892 274.355H70.7665C71.7269 272.6 71.2467 270.197 69.6689 268.484H143.59C145.361 268.484 146.965 269.625 147.676 271.392C147.787 271.657 147.847 271.945 147.852 272.236Z" fill="#FFB81C"/>
<path d="M70.7664 274.332H61.4068C59.6366 274.332 58.0328 273.196 57.3165 271.434C57.2063 271.163 57.1479 270.871 57.145 270.575C57.1439 270.013 57.3487 269.474 57.7141 269.077C58.0796 268.68 58.5753 268.458 59.0915 268.461H69.6688C71.2466 270.174 71.7268 272.577 70.7664 274.332Z" fill="#FFF9EA"/>
<path d="M70.7667 274.332C70.7226 274.447 70.665 274.556 70.5952 274.654C69.2532 276.68 66.3077 276.852 64.0396 275.056C63.7664 274.835 63.5085 274.594 63.2678 274.332C61.7029 272.615 61.2227 270.216 62.1574 268.462C62.2094 268.348 62.2711 268.24 62.3417 268.14C63.6966 266.128 66.6292 265.942 68.9059 267.748C69.1776 267.963 69.4328 268.202 69.6691 268.462C71.2469 270.174 71.7271 272.578 70.7667 274.332Z" fill="white"/>
<path d="M77.3949 287.17H65.5014C63.7318 287.168 62.1291 286.032 61.4111 284.272C61.2932 284.011 61.226 283.727 61.2139 283.437C61.2162 282.262 62.0902 281.311 63.169 281.309H76.2759C75.3626 283.073 75.83 285.471 77.3949 287.17Z" fill="#FFB81C"/>
<path d="M151.929 285.084C151.915 286.249 151.036 287.182 149.965 287.17H77.3948C75.8299 285.452 75.3497 283.054 76.2843 281.299H147.667C149.439 281.298 151.043 282.44 151.753 284.206C151.866 284.482 151.926 284.781 151.929 285.084Z" fill="#FFF9EA"/>
<path d="M84.9065 287.17C84.8545 287.284 84.7927 287.392 84.7221 287.492C83.3801 289.518 80.4346 289.69 78.1708 287.894C77.8963 287.673 77.6369 287.432 77.3948 287.17C75.8299 285.453 75.3497 283.054 76.2843 281.3C76.338 281.187 76.3996 281.08 76.4687 280.978C77.8235 278.966 80.7562 278.789 83.0329 280.586C83.3054 280.8 83.5607 281.038 83.796 281.3C85.3738 283.031 85.854 285.444 84.9065 287.17Z" fill="white"/>
<g opacity="0.21">
<path fill-rule="evenodd" clip-rule="evenodd" d="M80.9366 220.087L86.9819 250.826C87.1469 251.68 86.9535 252.57 86.4546 253.253C85.9594 253.925 85.2138 254.321 84.4223 254.331L55.4131 254.709H55.3445C54.5572 254.709 53.8132 254.317 53.3251 253.645C53.059 253.31 52.8747 252.907 52.7891 252.474L45.7791 221.37C45.5788 220.517 45.753 219.61 46.2507 218.916C46.7526 218.206 47.5288 217.791 48.3516 217.791H78.3341C79.5918 217.788 80.6785 218.747 80.9366 220.087ZM47.8758 220.297C47.7641 220.447 47.7243 220.646 47.7686 220.833L54.4271 250.364C55.1516 246.813 57.6684 241.418 66.3592 246.346C66.3592 246.346 68.0999 227.768 83.5092 243.961L78.8958 220.549C78.8369 220.253 78.5953 220.042 78.317 220.045H48.3388C48.1565 220.044 47.9846 220.137 47.8758 220.297Z" fill="#FFF9EA"/>
<path d="M56.4295 231.987C58.0973 231.422 58.8948 229.01 58.2045 226.602C57.5142 224.194 55.6063 222.691 53.917 223.256C52.2277 223.82 51.4517 226.233 52.1377 228.646C52.8237 231.058 54.7831 232.57 56.4295 231.987Z" fill="#FFF9EA"/>
<path d="M63.7867 231.442H73.6179H77.2923H77.4638C77.8079 231.452 78.15 231.382 78.4671 231.236C78.9155 230.998 79.21 230.513 79.2367 229.971C79.2634 229.428 79.0181 228.913 78.5957 228.623C78.3668 228.505 78.1569 228.347 77.974 228.156C77.8583 227.948 77.777 227.719 77.7339 227.48C77.5067 226.807 77.0697 226.242 76.4991 225.884C75.6557 225.264 74.6165 225.047 73.6222 225.282C73.1453 225.416 72.7101 225.687 72.3617 226.066C72.053 226.392 71.9972 226.826 71.7614 227.195C71.6071 227.433 71.5084 227.358 71.2984 227.223C71.0883 227.088 70.9725 226.999 70.801 226.901C70.4626 226.706 70.1115 226.537 69.7506 226.397C69.0154 226.099 68.2312 225.972 67.4482 226.024C66.0719 226.14 64.6999 227.036 64.2154 228.441C63.3218 228.457 62.571 229.177 62.4447 230.14C62.3886 230.503 62.4917 230.874 62.7234 231.143C63.033 231.379 63.4107 231.485 63.7867 231.442Z" fill="#FFF9EA"/>
<path fill-rule="evenodd" clip-rule="evenodd" d="M133.51 227.246L134.299 230.774C134.879 233.382 134.327 236.135 132.802 238.244C131.277 240.352 128.948 241.583 126.483 241.582H115.712C111.194 241.586 107.236 238.289 106.057 233.541L105.161 229.948C104.507 227.319 105.015 224.508 106.537 222.345C108.058 220.182 110.419 218.914 112.921 218.916H123.773C128.396 218.914 132.419 222.356 133.51 227.246ZM118.666 234.129L122.379 231.637C122.725 231.405 122.925 230.986 122.901 230.545C122.877 230.104 122.632 229.713 122.264 229.528L117.17 227.064C116.776 226.881 116.321 226.96 116 227.268C115.678 227.576 115.548 228.058 115.665 228.506L117.037 233.467C117.134 233.823 117.38 234.11 117.7 234.24C118.02 234.37 118.378 234.329 118.666 234.129Z" fill="#FFF9EA"/>
<path d="M131.863 262.508H112.908C111.137 262.504 109.534 261.364 108.818 259.6C108.547 258.945 108.602 258.185 108.964 257.584C109.327 256.983 109.946 256.626 110.606 256.637H130.757C129.814 258.378 130.286 260.795 131.863 262.508Z" fill="#FFF9EA"/>
<path d="M144.117 260.389C144.117 261.557 143.248 262.505 142.175 262.507H131.863C130.286 260.795 129.805 258.377 130.753 256.637H139.855C141.626 256.635 143.23 257.772 143.946 259.535C144.055 259.804 144.114 260.094 144.117 260.389Z" fill="#FFB81C"/>
<path d="M139.375 262.507C139.325 262.621 139.263 262.729 139.191 262.829C137.836 264.84 134.903 265.027 132.627 263.221C132.356 263.004 132.101 262.765 131.863 262.507C130.286 260.794 129.805 258.377 130.753 256.636C130.807 256.522 130.87 256.415 130.942 256.314C132.284 254.289 135.229 254.116 137.493 255.913C137.768 256.133 138.027 256.374 138.269 256.636C139.834 258.353 140.314 260.752 139.375 262.507Z" fill="white"/>
<path d="M148.885 273.343C148.875 274.513 148.001 275.457 146.925 275.457H71.8041C72.7645 273.702 72.2843 271.303 70.7065 269.586H144.623C146.397 269.586 148.003 270.729 148.713 272.498C148.823 272.764 148.882 273.051 148.885 273.343Z" fill="#FFB81C"/>
<path d="M71.8044 275.457H62.4405C60.6719 275.455 59.0695 274.322 58.3502 272.563C58.2424 272.292 58.1841 272 58.1787 271.705C58.1787 270.535 59.0502 269.586 60.1252 269.586H70.7068C72.2846 271.303 72.7648 273.702 71.8044 275.457Z" fill="#FFF9EA"/>
<path d="M71.8044 275.457C71.7604 275.573 71.7012 275.681 71.6286 275.779C70.2866 277.804 67.3411 277.981 65.0773 276.185C64.8026 275.963 64.5432 275.72 64.3013 275.457C62.7364 273.744 62.2562 271.341 63.1951 269.586C63.2456 269.472 63.3074 269.364 63.3795 269.264C64.7343 267.253 67.667 267.066 69.9436 268.877C70.2134 269.093 70.4685 269.33 70.7068 269.586C72.2846 271.303 72.7648 273.702 71.8044 275.457Z" fill="white"/>
<path d="M78.4283 288.314H66.5176C64.7497 288.31 63.1484 287.178 62.4274 285.421C62.3197 285.154 62.2614 284.867 62.2559 284.576C62.2606 283.4 63.1351 282.448 64.2152 282.443H77.3221C76.3832 284.198 76.8634 286.601 78.4283 288.314Z" fill="#FFB81C"/>
<path d="M152.966 286.209C152.965 286.77 152.759 287.306 152.394 287.701C152.029 288.096 151.535 288.316 151.02 288.314H78.4282C76.8633 286.601 76.3831 284.198 77.3221 282.443H148.7C150.474 282.443 152.08 283.586 152.791 285.355C152.902 285.624 152.962 285.915 152.966 286.209Z" fill="#FFF9EA"/>
<path d="M85.9442 288.314C85.8906 288.428 85.8275 288.535 85.7556 288.636C84.4136 290.662 81.4681 290.839 79.2043 289.042C78.9295 288.821 78.6702 288.577 78.4282 288.314C76.8633 286.602 76.3831 284.198 77.3221 282.444C77.3725 282.329 77.4344 282.221 77.5064 282.122C78.8613 280.11 81.7939 279.938 84.0706 281.734C84.3404 281.95 84.5954 282.187 84.8338 282.444C86.4116 284.161 86.8918 286.574 85.9442 288.314Z" fill="white"/>
</g>
</svg>
