<svg id="business-error" viewBox="0 0 453 453" fill="none" xmlns="http://www.w3.org/2000/svg">
    <path d="M338.329 112.705C336.482 107.581 334.426 102.494 332.176 97.5484C327.692 87.7063 326.662 78.3791 320.362 70.1484" stroke="#848FDF" stroke-width="4"/>
    <path d="M305.761 60.7148C300.341 55.2011 295.271 49.2745 286.059 44.8484C266.592 35.5257 241.701 34.5801 209.928 47.7651" stroke="#848FDF" stroke-width="4"/>
    <path d="M76.3506 422.047C45.5633 378.527 35.6058 329.325 40.751 279.005" stroke="#848FDF" stroke-width="4"/>
    <path d="M355.651 207.806V208.343C355.349 218.11 364.374 258.597 389.972 271.458C415.57 284.319 433.82 340.77 376.108 362.918C318.396 385.066 321.539 422.047 321.539 422.047" stroke="#848FDF" stroke-width="4"/>
    <path d="M209.923 89.5667V41.7366C209.906 34.8958 204.365 29.3545 197.524 29.3374H39.1263C32.2855 29.3545 26.7441 34.8958 26.7271 41.7366V266.637C26.7393 273.475 32.2878 279.012 39.1263 279.009H197.524C199.061 279.019 200.584 278.726 202.008 278.148" stroke="black" stroke-width="3" stroke-linecap="round" stroke-linejoin="round"/>
    <rect x="32.2896" y="36.9155" width="172.071" height="234.538" rx="24.95" fill="#848FDF"/>
    <rect x="42.4204" y="55.0635" width="153.692" height="43.9146" rx="12.48" fill="#6573D7"/>
    <ellipse cx="118.325" cy="69.0166" rx="4.5415" ry="4.54151" fill="#E0E3F7"/>
    <path d="M105.633 89.5663C105.633 82.5565 111.315 76.874 118.325 76.874C125.335 76.874 131.017 82.5565 131.017 89.5663H105.633Z" fill="#E0E3F7"/>
    <path fill-rule="evenodd" clip-rule="evenodd" d="M119.249 146.031C109.347 146.026 100.418 151.987 96.6265 161.134C92.8349 170.28 94.928 180.81 101.929 187.812C108.931 194.813 119.461 196.906 128.607 193.115C137.754 189.323 143.715 180.394 143.71 170.492C143.702 156.986 132.755 146.039 119.249 146.031ZM119.249 189.053C117.276 189.053 115.677 187.454 115.677 185.482C115.677 183.509 117.276 181.91 119.249 181.91C121.221 181.91 122.82 183.509 122.82 185.482C122.82 187.454 121.221 189.053 119.249 189.053ZM123.459 163.799C123.566 163.038 123.672 162.281 123.781 161.529V161.547C123.832 161.149 123.9 160.732 123.97 160.306C124.363 157.911 124.805 155.219 122.352 153.809C120.026 152.491 115.999 152.801 114.583 155.318C113.31 157.531 114.069 160.881 114.691 163.625C114.865 164.394 115.028 165.116 115.133 165.751C115.725 169.744 116.583 173.694 117.699 177.573C118.099 178.798 120.425 178.798 120.807 177.573C122.144 173.15 122.811 168.406 123.459 163.799Z" fill="#E0E3F7"/>
    <path d="M57.7896 118.583H177.294" stroke="white" stroke-width="7.24"/>
    <path d="M57.7896 130.343H177.294" stroke="white" stroke-width="7.24"/>
    <path d="M57.7896 206.092H177.294" stroke="white" stroke-width="7.24"/>
    <path d="M85.5493 217.218H149.534" stroke="white" stroke-width="7.24"/>
    <path d="M70.4863 290.072C70.4863 290.072 91.7511 205.573 157.982 184.934L184.903 178.51C184.903 178.51 189.16 159.496 187.593 157.499C186.026 155.501 182.808 151.408 176.912 152.296C171.017 153.184 155.776 153.468 151.874 134.836C147.972 116.203 162.391 71.9159 199.864 65.2923C237.337 58.6687 238.211 86.1841 238.211 86.1841L210.687 149.965L214.958 201.418L215.495 278.064L70.4863 290.072Z" fill="white"/>
    <mask id="mask0" mask-type="alpha" maskUnits="userSpaceOnUse" x="53" y="62" width="288" height="362">
    <path fill-rule="evenodd" clip-rule="evenodd" d="M53.8564 62.957H340.602V423.663H53.8564L53.8564 62.957Z" fill="white"/>
    </mask>
    <g mask="url(#mask0)">
    <path d="M299.36 224.795C298.916 224.924 293.251 226.571 291.022 230.495C290.156 228.662 288.309 227.493 286.281 227.494H219.757C217.319 227.49 215.203 229.172 214.656 231.548L201.555 287.719C200.667 287.546 199.779 287.44 198.856 287.351L167.94 279.635C165.192 278.946 162.37 280.459 161.423 283.129C161.217 283.707 161.115 284.318 161.121 284.931C161.121 287.824 163.358 290.225 166.244 290.427L180.863 291.369C166.781 297.997 149.65 310.622 135.35 322.222C121.437 300.438 134.494 278.659 144.313 266.93C143.048 254.002 136.638 223.987 104.652 224.804C115.67 210.674 129.41 198.563 146.435 190.457C204.751 255.094 271.467 202.248 272.883 201.111C282.86 207.619 291.788 215.608 299.36 224.804" fill="#25282A"/>
    <path d="M293.3 410.22V421.39H100.714V405.568C108.217 406.012 116.11 404.236 123.289 401C132.376 396.862 140.225 390.434 146.937 383.1C153.841 375.509 157.632 364.983 162.031 355.829C168.637 342.045 177.387 332.225 191.274 328.065L190.386 331.883C190.025 333.44 190.393 335.076 191.386 336.328C192.379 337.581 193.889 338.312 195.487 338.316H262.344C261.012 349.858 255.396 412.897 293.3 410.234" fill="#25282A"/>
    <path d="M262.375 116.461C262.321 122.433 261.543 128.376 260.058 134.161C258.673 139.762 254.137 144.033 248.462 145.077C248.351 141.046 246.637 137.508 244.023 135.31C244.261 131.898 244.227 128.472 243.92 125.064C243.747 122.814 243.477 120.714 243.192 118.827C243.023 117.753 242.778 116.692 242.46 115.653C241.568 114.694 240.516 113.896 239.352 113.295C235.237 110.978 226.767 108.514 211.073 112.137C208.511 112.723 206.1 113.841 203.997 115.417C203.95 115.446 203.908 115.482 203.873 115.524C202.456 116.829 200.654 118.481 198.79 119.337C196.858 120.225 194.843 120.261 193.151 118.161C193.107 118.117 193.085 118.077 193.045 118.032C192.157 116.874 191.309 115.369 189.742 115.071C186.439 114.45 184.832 117.735 184.415 120.496C184.051 123.049 184.801 125.3 185.898 127.444C186.816 129.187 188.016 130.767 189.449 132.119C189.817 132.474 190.154 132.86 190.457 133.273C190.319 133.297 190.184 133.334 190.053 133.384C189.749 133.486 189.453 133.607 189.165 133.748C185.169 135.546 182.324 140.052 182.262 145.326C182.262 145.49 175.563 145.392 174.715 145.326C171.447 145.024 168.229 144.083 165.929 141.619C159.403 134.627 159.434 124.252 162.116 116.137C164.655 108.434 167.887 100.914 172.122 93.9841C181.298 78.9878 195.535 67.9248 213.559 66.9304C217.882 66.713 222.215 66.966 226.483 67.6851C228.502 68.0033 230.499 68.4481 232.462 69.0169C250.837 77.0344 262.499 95.2093 262.393 116.461" fill="#4A5054"/>
    <path d="M251.733 287.422C249.563 292.993 244.395 296.181 240.191 294.525C235.987 292.869 234.336 287.045 236.502 281.473C238.668 275.902 243.84 272.71 248.044 274.37C252.248 276.03 253.904 281.855 251.733 287.426" fill="#6573D7"/>
    <path d="M262.903 337.179C262.903 337.179 251.112 419.374 298.276 410.265C345.183 401.195 362.936 210.367 227.162 182.923" stroke="black" stroke-width="2"/>
    <path d="M152.478 258.046C152.478 258.046 114.423 290.139 134.929 322.236" stroke="black" stroke-width="2"/>
    <path d="M263.76 314.347C263.108 314.387 262.175 313.952 261.54 313.779C260.735 313.565 259.938 313.338 259.148 313.095C254.511 311.652 250.149 309.443 246.242 306.56C245.354 305.925 243.774 305.517 242.691 305.934C241.463 306.385 240.578 307.469 240.382 308.762C240.049 311.053 241.665 313.295 243.428 314.764C245.519 316.513 247.689 318.125 250.224 319.172C252.671 320.155 255.196 320.931 257.771 321.494C258.939 321.765 260.124 321.938 261.283 322.236" stroke="black" stroke-width="2"/>
    <path d="M278.366 292.11C278.845 294.64 279.196 297.268 278.956 299.839C278.756 302.014 277.975 304.553 275.555 305.082C275.095 305.203 274.618 305.247 274.144 305.211C265.034 304.673 257.527 301.526 248.955 295.328C240.382 289.131 237.363 303.404 245.194 305.934" stroke="black" stroke-width="2"/>
    <path d="M245.523 316.487C245.313 316.313 245.113 316.128 244.924 315.932C240.658 311.47 239.885 320.433 244.365 323.07L244.942 323.412C245.244 323.541 245.568 323.692 245.887 323.856C246.038 323.896 246.207 323.962 246.362 324.007C250.411 325.783 254.722 326.919 258.966 328.078C254.766 326.706 250.58 325.356 246.362 324.007C245.998 323.856 245.652 323.705 245.288 323.532C245.176 323.485 245.06 323.45 244.942 323.425C244.788 323.355 244.609 323.372 244.471 323.47C244.37 323.553 244.296 323.664 244.258 323.789C243.57 325.441 244.129 327.523 245.008 329.001C245.932 330.564 247.517 331.767 249.079 332.624C253.283 334.981 258.171 336.375 262.89 337.21C263.766 337.391 264.662 337.449 265.554 337.383" stroke="black" stroke-width="2"/>
    <path d="M303.621 347.554C303.621 347.554 289.153 322.897 287.542 301.459C286.556 288.19 282.659 285.38 279.871 285.189" stroke="black" stroke-width="2"/>
    <path d="M275.556 305.077L278.37 292.11L279.871 285.184L290.996 233.838C291.33 232.29 290.946 230.673 289.951 229.44C288.956 228.207 287.457 227.49 285.873 227.49H219.344C216.907 227.487 214.791 229.168 214.243 231.543L201.142 287.719L191.58 328.708L190.692 332.548C190.334 334.105 190.704 335.74 191.698 336.991C192.691 338.242 194.2 338.972 195.797 338.976H262.65" stroke="black" stroke-width="2"/>
    <path d="M193.071 116.683C193.071 116.683 196.592 101.753 216.471 99.773C236.351 97.793 241.332 112.647 241.332 112.647L240.706 114.143C240.706 114.143 214.571 103.657 200.139 118.623C200.139 118.623 194.94 120.98 193.071 116.692" fill="#848FDF"/>
    <path d="M198.434 287.351L167.514 279.627C165.503 279.129 163.383 279.808 162.035 281.382C160.688 282.956 160.344 285.155 161.146 287.065C161.948 288.976 163.76 290.27 165.827 290.41L180.446 291.373" stroke="black" stroke-width="2"/>
    <path d="M272.484 201.089C272.484 201.089 204.947 255.8 146.019 190.457" stroke="black" stroke-width="2"/>
    <path d="M143.901 266.921C142.635 253.993 136.229 223.956 104.217 224.795" stroke="black" stroke-width="2"/>
    <path d="M298.956 224.787C298.956 224.787 292.923 226.447 290.61 230.505" stroke="black" stroke-width="2"/>
    <path d="M53.8608 422.055H340.606" stroke="black" stroke-width="7.24"/>
    <path d="M244.022 135.328C246.726 137.601 248.462 141.312 248.462 145.512C248.462 152.482 243.618 158.12 237.634 158.12C236.957 158.116 236.283 158.037 235.623 157.885C242.593 152.557 244.005 135.328 244.005 135.328" fill="#848FDF"/>
    <path d="M204.597 163.461C211.393 166.843 219.313 167.148 226.35 164.3C245.963 156.109 245.213 131.967 243.175 118.845C243.013 117.78 242.781 116.727 242.482 115.693C240.232 108.19 234.358 102.077 226.62 100.341C211.633 96.9539 197.929 105.451 192.242 116.891" stroke="black" stroke-width="2"/>
    <path d="M242.669 115.928C242.669 115.928 242.606 115.839 242.478 115.692C241.146 114.192 233.435 107.031 211.113 112.176C208.552 112.762 206.143 113.88 204.041 115.457C203.992 115.486 203.947 115.521 203.908 115.564" stroke="black" stroke-width="2"/>
    <path d="M183.172 152.296H172.131C164.162 152.296 157.845 144.997 155.097 138.147C151.235 128.514 153.708 118.654 157.184 109.291C160.096 101.456 163.798 93.8419 168.668 87.0275C179.572 71.7781 196.033 63.139 214.954 64.7372C216.632 64.8793 218.302 65.0865 219.966 65.3587C245.372 69.4785 262.504 90.721 262.375 116.447C262.322 122.424 261.544 128.372 260.058 134.161C258.663 139.757 254.129 144.024 248.458 145.077" stroke="black" stroke-width="2"/>
    <path d="M190.466 133.272C190.162 132.86 189.825 132.472 189.458 132.114C188.024 130.764 186.824 129.186 185.907 127.443C184.81 125.299 184.06 123.048 184.424 120.496C184.832 117.752 186.439 114.449 189.751 115.071C191.318 115.373 192.153 116.873 193.054 118.032C196.481 122.471 201.2 118.01 204.095 115.328" stroke="black" stroke-width="2"/>
    <path d="M244.023 135.328C246.726 137.601 248.462 141.312 248.462 145.512C248.462 152.482 243.619 158.12 237.635 158.12C236.958 158.116 236.283 158.037 235.624 157.885" stroke="black" stroke-width="2"/>
    <path d="M220.854 143.883C223.277 145.512 229.133 146.849 227.957 142.018C226.545 136.296 224.645 124.07 236.28 123.138C236.28 123.138 241.403 123.355 243.934 125.095" stroke="black" stroke-width="2"/>
    <path d="M225.235 153.45C225.235 153.45 219.375 156.557 216.472 150.364" stroke="black" stroke-width="2"/>
    <path d="M213.351 131.497C213.124 133.464 213.892 135.164 215.069 135.302C216.245 135.439 217.382 133.97 217.612 131.99C217.843 130.01 217.066 128.327 215.894 128.19C214.722 128.052 213.577 129.521 213.351 131.497Z" fill="black"/>
    <path d="M232.431 132.656C232.205 134.618 232.973 136.323 234.149 136.46C235.326 136.598 236.462 135.128 236.689 133.148C236.915 131.168 236.147 129.481 234.975 129.348C233.803 129.215 232.658 130.68 232.431 132.656Z" fill="black"/>
    <path d="M220.853 124.394C220.853 124.394 217.266 118.862 209.138 124.11" stroke="black" stroke-width="2"/>
    <path d="M227.157 163.936V194.621" stroke="black" stroke-width="2"/>
    <path d="M105.846 347.554C105.846 347.554 118.494 335.567 134.92 322.249C149.219 310.649 166.369 298.001 180.455 291.377C182.257 290.538 184.006 289.788 185.707 289.158C189.763 287.611 194.118 287.004 198.443 287.382C199.349 287.456 200.25 287.578 201.142 287.746" stroke="black" stroke-width="2"/>
    <path d="M191.58 328.708C177.689 332.868 168.939 342.688 162.337 356.472C157.947 365.626 154.147 376.152 147.243 383.744C140.535 391.073 132.687 397.506 123.599 401.643C107.111 409.146 86.8099 408.569 76.0976 392.254C68.8525 381.191 66.0024 367.447 64.5552 354.519C62.0691 332.051 69.918 268.719 104.217 224.791C115.235 210.66 128.98 198.55 146 190.443C157.947 184.77 171.451 181.058 186.759 180.006L191.047 157.885" stroke="black" stroke-width="2"/>
    <path d="M293.606 410.966V422.055" stroke="black" stroke-width="2"/>
    <path d="M101.02 407.006V422.055" stroke="black" stroke-width="2"/>
    <path d="M203.886 145.512C203.928 148.84 202.746 152.068 200.565 154.582C199.342 155.147 198.01 155.44 196.663 155.439C190.683 155.439 185.835 149.801 185.835 142.831C185.792 139.503 186.976 136.276 189.16 133.766C190.382 133.197 191.714 132.903 193.062 132.904C199.042 132.904 203.886 138.547 203.886 145.512Z" fill="#848FDF"/>
    <ellipse cx="193.072" cy="145.512" rx="10.8144" ry="12.6079" stroke="black" stroke-width="2"/>
    </g>
    <path fill-rule="evenodd" clip-rule="evenodd" d="M321.645 35.3303C308.02 31.2687 293.29 35.8144 284.324 46.8478C275.358 57.8812 273.92 73.2294 280.683 85.7356C287.445 98.2418 301.075 105.443 315.217 103.981C329.359 102.52 341.228 92.6833 345.289 79.0584C350.835 60.4541 340.249 40.8764 321.645 35.3303ZM303.985 94.5698C301.266 93.7582 299.72 90.8961 300.531 88.177C301.343 85.458 304.205 83.9116 306.924 84.7232C309.643 85.5347 311.189 88.3969 310.378 91.1159C309.566 93.835 306.704 95.3813 303.985 94.5698ZM321.53 59.1566C321.598 58.9879 321.669 58.8147 321.743 58.6372H321.73C321.863 58.3232 322.006 57.9966 322.153 57.66C323.591 54.3753 325.446 50.1383 322.768 47.3478C320.096 44.5776 314.427 43.339 311.421 46.2246C308.764 48.7535 308.437 53.7147 308.171 57.7588C308.098 58.8689 308.029 59.9099 307.919 60.8125C307.092 66.5478 306.647 72.3318 306.587 78.1261C306.596 79.9907 309.81 80.9496 310.835 79.3958C315.066 73.023 318.649 66.2428 321.53 59.1566Z" fill="#E0E3F7"/>
    <path fill-rule="evenodd" clip-rule="evenodd" d="M345.965 236.888C340.977 241.96 339.535 249.536 342.313 256.085C345.09 262.633 351.539 266.864 358.652 266.803C365.765 266.742 372.141 262.401 374.805 255.806C377.47 249.211 375.899 241.66 370.825 236.675C363.9 229.872 352.772 229.967 345.965 236.888ZM368.02 258.566C367.024 259.578 365.396 259.592 364.384 258.597C363.371 257.602 363.357 255.974 364.353 254.961C364.996 254.306 365.941 254.044 366.83 254.274C367.719 254.505 368.418 255.192 368.664 256.077C368.909 256.962 368.663 257.911 368.02 258.566ZM357.131 243.606C356.816 243.197 356.503 242.79 356.193 242.384C356.015 242.158 355.837 241.914 355.654 241.664C354.624 240.252 353.462 238.659 351.532 239.21C349.68 239.743 347.807 241.958 348.38 243.965C348.874 245.731 350.994 247.039 352.72 248.103C353.193 248.395 353.636 248.668 354.009 248.928C356.351 250.639 358.806 252.19 361.356 253.572C362.182 254.007 363.358 252.808 362.914 251.991C361.32 249.048 359.194 246.286 357.131 243.606Z" fill="#6573D7"/>
    <path fill-rule="evenodd" clip-rule="evenodd" d="M414.908 96.048C419.8 90.0305 418.887 81.1872 412.87 76.2955C406.852 71.4038 398.009 72.316 393.117 78.3329C388.225 84.3498 389.136 93.1932 395.153 98.0857C398.043 100.436 401.748 101.541 405.453 101.159C409.158 100.777 412.559 98.9383 414.908 96.048ZM395.743 80.4702C396.206 79.9008 396.937 79.6213 397.661 79.737C398.385 79.8527 398.993 80.346 399.255 81.0311C399.517 81.7162 399.393 82.489 398.931 83.0584C398.469 83.6277 397.738 83.9072 397.013 83.7915C396.289 83.6758 395.681 83.1825 395.42 82.4975C395.158 81.8124 395.281 81.0396 395.743 80.4702ZM405.508 91.534C405.796 91.8427 406.083 92.15 406.367 92.4567V92.43C406.517 92.5909 406.669 92.7647 406.824 92.9424C407.753 94.0055 408.805 95.2089 410.322 94.6231C411.756 94.0815 413.079 92.177 412.475 90.6276C411.95 89.2568 410.17 88.3795 408.72 87.6645C408.32 87.4672 407.944 87.2823 407.628 87.1028C405.63 85.9152 403.555 84.8622 401.417 83.9508C400.742 83.6667 399.881 84.7055 400.298 85.3226C401.791 87.548 403.675 89.5678 405.508 91.534Z" fill="#6573D7"/>
    <path d="M275.333 188.628C280.288 197.062 280.061 203.069 278.774 212.804C278.259 216.511 282.25 219.02 285.486 217.155C314.08 200.729 340.77 213.719 374.865 205.666C387.384 202.727 402.993 196.636 413.692 186.843C417.242 181.572 419.139 175.361 419.139 169.005C419.139 142.369 382.736 120.745 337.84 120.745C309.068 120.745 283.79 129.623 269.34 142.999C269.34 142.999 269.34 142.999 269.3 143.039C265.633 148.531 263.618 154.533 263.618 160.797C263.596 170.355 270.703 180.716 275.333 188.628Z" fill="#E0E3F7"/>
    <path fill-rule="evenodd" clip-rule="evenodd" d="M263.725 160.797V161.471C263.884 170.794 268.564 179.482 274.104 186.998C277.815 192.023 282.219 197.608 281.176 203.77C280.732 206.487 279.2 208.951 278.819 211.677C278.437 214.402 279.888 217.803 282.641 217.945C284.39 218.034 285.877 216.791 287.262 215.725C295.453 209.377 306.099 207.002 316.451 206.585C326.804 206.167 337.143 207.535 347.501 207.828C362.435 208.272 377.604 206.389 391.397 200.662C403.757 195.539 415.082 187.131 422.518 175.9C429.825 164.872 425.505 148.859 417.71 139.27C410.402 130.271 399.814 124.513 388.956 120.456C359.749 109.553 326.413 109.801 297.611 121.748C289.06 125.299 280.79 129.916 274.379 136.597C268.133 143.106 263.791 151.78 263.725 160.797H263.725Z" stroke="black" stroke-width="2"/>
    <circle cx="383.562" cy="160.193" r="11.2139" fill="white"/>
    <ellipse cx="347.292" cy="160.193" rx="11.2139" ry="11.2139" fill="white"/>
    <circle cx="310.316" cy="160.193" r="11.2139" fill="white"/>
</svg>
