<svg id="manual" width="42" height="42" viewBox="0 0 42 42" fill="none" xmlns="http://www.w3.org/2000/svg">
<rect width="42" height="42" rx="4" />
<g clip-path="url(#clip0)">
<path fill-rule="evenodd" clip-rule="evenodd" d="M11.3505 19.3985C11.2634 19.3112 11.1599 19.2419 11.046 19.1946C10.9321 19.1474 10.81 19.123 10.6867 19.123C10.5634 19.123 10.4413 19.1474 10.3274 19.1946C10.2135 19.2419 10.1101 19.3112 10.023 19.3985L6.27298 23.1485C6.09694 23.3245 5.99805 23.5633 5.99805 23.8122C5.99805 24.0612 6.09694 24.2999 6.27298 24.476C6.44902 24.652 6.68778 24.7509 6.93673 24.7509C7.18569 24.7509 7.42444 24.652 7.60048 24.476L10.6867 21.3878L13.773 24.476C13.949 24.652 14.1878 24.7509 14.4367 24.7509C14.6857 24.7509 14.9244 24.652 15.1005 24.476C15.2765 24.2999 15.3754 24.0612 15.3754 23.8122C15.3754 23.5633 15.2765 23.3245 15.1005 23.1485L11.3505 19.3985ZM35.7255 17.5235C35.6384 17.4362 35.5349 17.3669 35.421 17.3196C35.3071 17.2724 35.185 17.248 35.0617 17.248C34.9384 17.248 34.8163 17.2724 34.7024 17.3196C34.5885 17.3669 34.4851 17.4362 34.398 17.5235L31.3117 20.6116L28.2255 17.5235C28.0494 17.3474 27.8107 17.2485 27.5617 17.2485C27.3128 17.2485 27.074 17.3474 26.898 17.5235C26.7219 17.6995 26.623 17.9383 26.623 18.1872C26.623 18.4362 26.7219 18.6749 26.898 18.851L30.648 22.601C30.7351 22.6883 30.8385 22.7575 30.9524 22.8048C31.0663 22.8521 31.1884 22.8764 31.3117 22.8764C31.435 22.8764 31.5571 22.8521 31.671 22.8048C31.7849 22.7575 31.8884 22.6883 31.9755 22.601L35.7255 18.851C35.8128 18.7639 35.8821 18.6604 35.9293 18.5465C35.9766 18.4326 36.0009 18.3105 36.0009 18.1872C36.0009 18.0639 35.9766 17.9418 35.9293 17.8279C35.8821 17.714 35.8128 17.6106 35.7255 17.5235Z" fill="#848FDF"/>
<path fill-rule="evenodd" clip-rule="evenodd" d="M21 11.625C19.4384 11.6238 17.9013 12.0131 16.5286 12.7574C15.1558 13.5018 13.991 14.5775 13.14 15.8869C13.0001 16.0852 12.7887 16.2216 12.5503 16.2673C12.3118 16.3129 12.065 16.2644 11.8617 16.1317C11.6584 15.9991 11.5144 15.7928 11.4601 15.5562C11.4058 15.3195 11.4455 15.0711 11.5706 14.8631C12.8934 12.8303 14.8377 11.2794 17.1137 10.4416C19.3897 9.60378 21.8755 9.52392 24.2006 10.2139C26.5257 10.9039 28.5655 12.3268 30.0161 14.2705C31.4666 16.2143 32.2502 18.5747 32.25 21C32.25 21.2489 32.1511 21.4876 31.9751 21.6636C31.7991 21.8396 31.5605 21.9384 31.3116 21.9384C31.0627 21.9384 30.824 21.8396 30.648 21.6636C30.472 21.4876 30.3731 21.2489 30.3731 21C30.3731 18.5136 29.3854 16.129 27.6273 14.3709C25.8691 12.6127 23.4845 11.625 20.9981 11.625H21ZM10.6875 20.0625C10.9361 20.0625 11.1746 20.1613 11.3504 20.3371C11.5262 20.5129 11.625 20.7514 11.625 21C11.6243 23.0216 12.2771 24.9893 13.4861 26.6096C14.6951 28.2299 16.3954 29.416 18.3336 29.991C20.2717 30.566 22.3438 30.4991 24.2408 29.8003C26.1378 29.1014 27.7581 27.8081 28.86 26.1131C28.925 26.0052 29.011 25.9114 29.113 25.8375C29.215 25.7636 29.3308 25.7109 29.4536 25.6828C29.5764 25.6546 29.7036 25.6515 29.8276 25.6735C29.9517 25.6956 30.07 25.7425 30.1755 25.8113C30.281 25.8801 30.3715 25.9695 30.4417 26.0741C30.5119 26.1787 30.5603 26.2964 30.584 26.4201C30.6077 26.5439 30.6062 26.6711 30.5797 26.7943C30.5531 26.9174 30.502 27.0339 30.4294 27.1369C29.1066 29.1697 27.1623 30.7206 24.8863 31.5584C22.6103 32.3962 20.1245 32.4761 17.7994 31.7861C15.4743 31.0961 13.4345 29.6732 11.9839 27.7294C10.5334 25.7857 9.74979 23.4253 9.75 21C9.75 20.8767 9.77431 20.7547 9.82154 20.6408C9.86877 20.5269 9.938 20.4235 10.0253 20.3364C10.1125 20.2493 10.2161 20.1803 10.33 20.1333C10.444 20.0863 10.5661 20.0622 10.6894 20.0625H10.6875Z" fill="#848FDF"/>
</g>
<path fill-rule="evenodd" clip-rule="evenodd" d="M21 15C21.2761 15 21.5 15.2239 21.5 15.5V26.5C21.5 26.7761 21.2761 27 21 27C20.7239 27 20.5 26.7761 20.5 26.5V15.5C20.5 15.2239 20.7239 15 21 15Z" fill="#848FDF"/>
<path fill-rule="evenodd" clip-rule="evenodd" d="M18.159 17.659C18.581 17.2371 19.1533 17 19.75 17H23.5C23.7761 17 24 17.2239 24 17.5C24 17.7761 23.7761 18 23.5 18H19.75C19.4185 18 19.1005 18.1317 18.8661 18.3661C18.6317 18.6005 18.5 18.9185 18.5 19.25C18.5 19.5815 18.6317 19.8995 18.8661 20.1339C19.1005 20.3683 19.4185 20.5 19.75 20.5H22.25C22.8467 20.5 23.419 20.7371 23.841 21.159C24.2629 21.581 24.5 22.1533 24.5 22.75C24.5 23.3467 24.2629 23.919 23.841 24.341C23.419 24.7629 22.8467 25 22.25 25H18C17.7239 25 17.5 24.7761 17.5 24.5C17.5 24.2239 17.7239 24 18 24H22.25C22.5815 24 22.8995 23.8683 23.1339 23.6339C23.3683 23.3995 23.5 23.0815 23.5 22.75C23.5 22.4185 23.3683 22.1005 23.1339 21.8661C22.8995 21.6317 22.5815 21.5 22.25 21.5H19.75C19.1533 21.5 18.581 21.2629 18.159 20.841C17.7371 20.419 17.5 19.8467 17.5 19.25C17.5 18.6533 17.7371 18.081 18.159 17.659Z" fill="#848FDF"/>
<defs>
<clipPath id="clip0">
<rect width="30" height="30" fill="white" transform="translate(6 6)"/>
</clipPath>
</defs>
</svg>
