<svg  viewBox="0 0 938 834" id="profession" fill="none" xmlns="http://www.w3.org/2000/svg">
<path d="M462.553 315.695C316.709 316.91 191.348 372.123 191.348 372.123L203.862 301.975" stroke="black" stroke-width="5.47"/>
<path d="M228 245.957C238.152 258.305 250.961 281.237 258.046 290.812C265.132 300.387 276.088 294.614 276.088 294.614C284.987 289.822 283.477 281.874 279.587 272.221C270.002 248.525 256.322 232.767 241.063 222.437C193.778 190.45 145.268 214.049 130.833 269.262L73.7477 427.522C69.5299 443.682 73.0414 460.884 83.2553 474.098C93.4692 487.311 109.232 495.044 125.933 495.034H290.2L385.995 740.759" stroke="black" stroke-width="5.47"/>
<rect x="3.265" y="280.265" width="375.47" height="205.47" rx="16.735" stroke="black" stroke-width="5.47"/>
<rect x="16" y="288" width="351" height="190" rx="14" fill="#848FDF"/>
<path d="M71.8986 436.573C64.529 436.505 58.11 430.556 56.4538 422.275C53.1806 405.987 67.8869 380.998 91.7695 375.5C121.611 368.64 144.269 399.002 144.269 422.273C144.269 431.502 139.744 437.161 132.698 437.161L71.8986 436.573Z" fill="#FEFEFE"/>
<circle cx="96.2695" cy="347.5" r="18.5" fill="#FEFEFE"/>
<path d="M204.381 258.305C210.065 267.556 215.778 276.787 221.678 285.901C225.314 291.517 231.938 299.523 224.892 305.394C222.599 307.152 219.829 308.176 216.944 308.334C212.417 308.735 207.664 307.648 204.91 303.757L191.19 281.021C185.519 271.618 173.578 268.147 163.75 273.044" stroke="black" stroke-width="5.47"/>
<path d="M256.272 288.253C259.858 296.779 257.428 302.277 253.234 305.041C246.374 309.539 237.191 307.383 232.33 300.817L204.43 258.354" stroke="black" stroke-width="5.47"/>
<path fill-rule="evenodd" clip-rule="evenodd" d="M760.186 357.885C760.186 357.885 705.208 328.26 669.752 321.096C669.752 321.096 669.507 326.388 663.607 339.451C657.708 352.515 640.303 391.117 640.303 391.117L614.176 371.272L614.568 400.858L542.891 477.416L497.585 378.24L503.622 350.339L477.809 360.227L464.02 311.031C464.02 311.031 396.048 326.319 337.502 373.428C278.957 420.536 262.189 493.968 256.75 556.933C251.311 619.898 257.848 686.293 341.03 708.725C341.03 708.725 380.113 718.525 411.933 705.413C421.851 701.316 436.257 697.494 451.369 694.143L450.879 694.319C450.879 694.319 444.019 718.123 424.144 731.079C424.144 731.079 458.964 757.539 518.459 769.073C577.955 780.608 703.679 787.507 767.046 732.529C830.413 677.551 833 586.911 833 586.911C833 586.911 853.58 411.912 760.186 357.885ZM434.62 512.549C428.6 512.35 423.858 507.348 423.98 501.326C424.102 495.303 429.044 490.498 435.067 490.544C441.091 490.59 445.958 495.471 445.988 501.494C445.881 507.677 440.804 512.614 434.62 512.549ZM675.887 615.181C676.02 614.48 676.13 613.895 676.22 613.44C677.703 606.014 667.611 601.417 641.771 589.646C638.076 587.963 634.06 586.133 629.709 584.128C594.929 568.095 521.978 590.312 521.978 590.312C521.978 590.312 489.667 643.908 521.762 681.51C537.128 680.138 548.222 679.717 548.222 679.717C575.786 676.857 594.837 679.451 609.977 681.512C623.113 683.301 633.304 684.688 643.556 681.765C664.44 675.812 673.556 627.527 675.887 615.181Z" fill="#6573D7"/>
<path d="M737.442 761.723V830.617C626.212 830.617 475.723 830.441 367.002 830.304C365.659 794.847 363.543 713.282 372.539 712.704C384.054 711.998 396.235 704.619 410.289 721.396C424.342 738.174 483.171 768.182 565.579 775.238C647.988 782.294 717.479 762.88 732.914 754.481C732.924 754.491 737.442 746.435 737.442 761.723Z" fill="#6573D7"/>
<path d="M574.937 351.28L557.121 371.301C555.94 372.251 554.422 372.675 552.92 372.475C551.418 372.275 550.064 371.468 549.173 370.243L536.639 343.273L561.041 323.879L574.937 351.28Z" fill="#6573D7"/>
<path d="M563.638 363.961L571.194 394.312L549.144 422.311L532.68 385.796L544.881 361.061" fill="#6573D7"/>
<path d="M638.687 146.557C634.767 147.439 631.337 150.477 628.72 153.721C626.287 156.763 624.228 160.086 622.585 163.619C622.585 163.619 614.314 128.339 610.825 97.7331C609.659 87.7763 606.17 82.4451 601.927 79.7599C593.175 74.2132 581.347 80.1421 581.347 80.1421L542.049 101.545C534.509 105.7 526.21 108.293 517.647 109.17C513.645 109.63 509.604 109.63 505.603 109.17C483.954 98.4681 483.641 56.2497 509.944 55.9557C510.735 56.6946 511.478 57.4835 512.169 58.3175C511.79 57.5401 511.437 56.7659 511.11 55.9949C512.581 56.0397 514.046 56.2036 515.491 56.4849C517.647 56.9063 519.656 59.1309 520.998 60.6891C514.011 47.1259 521.459 30.0347 535.228 24.8505C543.597 21.7047 552.956 22.3025 561.688 24.1449C563.07 24.4193 564.442 24.7427 565.824 25.1249C587.717 31.7301 606.886 43.2059 621.047 62.3649C638.971 86.6003 643.449 117.284 638.687 146.557Z" fill="#25282A"/>
<path d="M389.091 513.096C365.11 619.916 457.161 602.021 576.78 580.961C619.518 573.444 655.886 591.995 676.956 609.302" stroke="black" stroke-width="5.4" stroke-linejoin="round"/>
<path d="M492.177 284.865H492.217" stroke="black" stroke-width="5.4" stroke-linejoin="round"/>
<path d="M682.835 517.037C682.835 517.037 684.795 563.381 676.955 609.304C673.397 630.266 667.802 651.14 659.07 667.487C654.298 676.277 645.177 681.833 635.177 682.04C626.223 682.203 617.267 681.846 608.355 680.971C531.542 673.759 459.552 689.586 407.053 706.981C403.525 708.137 399.977 709.117 396.41 709.921C429.524 739.967 514.716 795.514 675.789 771.425C892.369 739.085 824.68 453.092 824.68 453.092C818.8 422.281 800.435 393.675 778.355 372.007C753.346 347.507 704.855 331.307 671.888 321.047" stroke="black" stroke-width="5.4" stroke-linejoin="round"/>
<path d="M556.044 267.205C556.044 267.205 490.149 255.445 498.978 177.731C502.898 143.156 510.454 122.008 517.598 109.131" stroke="black" stroke-width="5.4" stroke-linejoin="round"/>
<path d="M618.45 246.762C630.621 228.573 628.759 204.426 632.581 198.35C638.461 188.922 661.981 159.513 647.869 148.919C644.616 146.479 641.509 145.979 638.687 146.547C629.19 148.664 622.585 163.609 622.585 163.609C622.585 163.609 614.324 128.329 610.825 97.7138C607.327 67.0986 581.337 80.1326 581.337 80.1326L542.039 101.526C534.502 105.689 526.202 108.286 517.637 109.16C513.155 109.688 508.625 109.652 504.152 109.052C473.772 105.132 471.812 47.6162 506.661 54.1724C508.817 54.5938 510.826 56.8184 512.169 58.3766C505.171 44.8134 512.629 27.7222 526.398 22.538C534.767 19.3922 544.126 19.99 552.858 21.8324C580.122 27.585 604.161 39.4724 621.047 62.3652C638.981 86.6202 643.469 117.304 638.687 146.577" stroke="black" stroke-width="5.4" stroke-linejoin="round"/>
<path d="M547.811 194.214H533.689L534.611 183.022L538.384 137.717" stroke="black" stroke-width="5.4" stroke-linejoin="round"/>
<path d="M534.581 183.022H495.792C490.066 183.022 485.424 178.38 485.424 172.654V137.727H550.986V172.654C550.991 178.382 555.636 183.022 561.364 183.022H599.829C605.557 183.022 610.202 178.382 610.207 172.654V137.727H550.986" stroke="black" stroke-width="5.4" stroke-linejoin="round"/>
<path d="M547.811 207.719C547.811 207.719 557.816 211.247 568.998 194.176" stroke="black" stroke-width="5.4" stroke-linejoin="round"/>
<path d="M542.49 480.846L615.52 399.8L614.187 371.262L639.442 393.028L671.889 321.086L671.978 320.9C664.043 316.224 656.64 310.701 649.898 304.426C646.795 301.512 643.855 298.468 641.078 295.293C637.802 291.574 634.746 287.667 631.925 283.591L629.642 280.367" stroke="black" stroke-width="5.4" stroke-linejoin="round"/>
<path d="M590.392 368.459L575.359 347.752L559.326 326.623L592.979 306.259L629.67 280.367L641.048 295.293L644.87 300.32L635.589 312.207L563.118 405.229V405.268L549.408 422.31" stroke="black" stroke-width="5.4" stroke-linejoin="round"/>
<path d="M520.107 356.679L559.307 326.651L511.15 278.524L492.902 295.732L549.399 422.339L542.49 480.854L497.597 378.239L503.604 350.348L477.791 360.207L462.807 311.53C480.029 304.884 495.601 294.575 508.445 281.317L511.17 278.494" stroke="black" stroke-width="5.4" stroke-linejoin="round"/>
<path d="M575.359 351.278L557.513 371.299C556.334 372.248 554.818 372.672 553.317 372.472C551.817 372.272 550.465 371.466 549.575 370.241L537.031 343.271" stroke="black" stroke-width="5.4" stroke-linejoin="round"/>
<path d="M564.061 363.961L571.626 394.312" stroke="black" stroke-width="5.4" stroke-linejoin="round"/>
<path d="M545.303 361.059L533.102 385.794" stroke="black" stroke-width="5.4" stroke-linejoin="round"/>
<path d="M629.642 280.366L618.451 246.723C615.405 250.992 611.478 254.558 606.936 257.179" stroke="black" stroke-width="5.4" stroke-linejoin="round"/>
<path d="M518.863 246.723L511.17 278.494" stroke="black" stroke-width="5.4" stroke-linejoin="round"/>
<circle cx="572.057" cy="160.817" r="5.1548" fill="black"/>
<circle cx="527.104" cy="160.817" r="5.1548" fill="black"/>
<path d="M737.48 830.616V752.187V750.178" stroke="black" stroke-width="5.4" stroke-linejoin="round"/>
<path d="M367.678 830.333V712.645V712.605" stroke="black" stroke-width="5.4" stroke-linejoin="round"/>
<path d="M227.076 830.089C227.076 830.089 285.229 830.196 367.01 830.304C475.79 830.441 626.25 830.618 737.45 830.618C823.181 830.618 885.538 830.441 887.39 830.089" stroke="black" stroke-width="5.4" stroke-linejoin="round"/>
<circle cx="601.76" cy="540.654" r="7.1638" fill="white"/>
<circle cx="618.527" cy="542.047" r="7.1638" fill="white"/>
<circle cx="895.201" cy="325.604" r="42.3654" fill="#E0E3F7"/>
<circle cx="881.569" cy="314.392" r="13.6318" fill="white"/>
<circle cx="215.875" cy="710.498" r="42.3654" fill="#E0E3F7"/>
<circle cx="764.068" cy="288.354" r="21.1778" fill="#E0E3F7"/>
<circle cx="205.192" cy="698.464" r="13.6318" fill="white"/>
<circle cx="916.801" cy="719.652" r="21.1778" fill="#E0E3F7"/>
<circle cx="756.523" cy="283.247" r="7.546" fill="white"/>
<circle cx="907.991" cy="715.27" r="5.2626" fill="white"/>
<circle cx="417.588" cy="22.1661" r="21.1778" fill="#E0E3F7"/>
<circle cx="414.374" cy="20.2843" r="7.546" fill="white"/>
</svg>
