<svg id="selfie" viewBox="0 0 779 816" fill="none" xmlns="http://www.w3.org/2000/svg">
    <path d="M200.6 502.1C200.6 502.1 128 529.3 74.5999 493.1C-35.5001 418.3 12.9999 308 12.9999 308L116 309C116 309 131 375 226 335C266 314 264.5 306 322.5 293L230 487L200.6 502.1Z" fill="#6573D7"/>
    <path d="M110.1 69.6005C110.4 69.2005 110.8 68.9005 111.2 68.5005C180.3 -0.0994644 291.9 -8.89946 381 19.1005C424.6 32.8005 458.8 71.2005 499.7 90.2005C513.3 96.5005 527.7 100.701 543.4 101.101C584.5 102.201 622.9 75.1005 663.9 78.2005C716.2 82.1005 747.1 135.001 754.5 182.101C766.8 259.901 731.2 344.301 686.9 406.401C662.6 440.501 635.2 472.1 608.9 504.6C588.5 530 575.1 568.301 602 594.601C637.8 629.601 648.8 552.201 690.9 569.901C795.9 613.901 783.9 708.101 760.1 748.401C738.3 785.301 696.4 810.101 653.6 813.501C646.8 814.101 640 814.101 633.2 813.501" stroke="#CCDDE2" stroke-width="4"/>
    <path d="M618.2 340.9C618.2 340.9 563.2 311.3 527.8 304.1C527.8 304.1 527.6 309.4 521.7 322.5C515.8 335.6 498.4 374.2 498.4 374.2L472.3 354.4L472.7 384L401 460.6L355.7 361.4L361.7 333.5L335.9 343.4L322 294C322 294 254 309.3 195.5 356.4C137 403.5 235.4 437 230 500C224.6 563 228 656 221 687C221 687 238.1 701.5 269.9 688.4C279.8 684.3 294.2 680.5 309.3 677.1L308.8 677.3C308.8 677.3 301.9 701.1 282.1 714.1C282.1 714.1 316.9 740.6 376.4 752.1C435.9 763.6 561.6 770.5 625 715.6C688.4 660.6 691 570 691 570C691 570 711.6 394.9 618.2 340.9ZM292.6 495.5C286.6 495.3 281.8 490.3 282 484.3C282.1 478.3 287.1 473.5 293.1 473.5C299.1 473.5 304 478.4 304 484.5C303.9 490.7 298.8 495.6 292.6 495.5ZM533.9 598.2C534 597.5 534.1 596.9 534.2 596.5C535.7 589.1 525.6 584.5 499.8 572.7C496.1 571 492.1 569.2 487.7 567.2C452.9 551.2 380 573.4 380 573.4C380 573.4 347.7 627 379.8 664.6C395.2 663.2 406.3 662.8 406.3 662.8C433.9 659.9 452.9 662.5 468.1 664.6C481.2 666.4 491.4 667.8 501.7 664.9C522.4 658.8 531.6 610.5 533.9 598.2Z" fill="#6573D7"/>
    <path d="M432.9 334.3L415.1 354.3C413.9 355.3 412.4 355.7 410.9 355.5C409.4 355.3 408 354.5 407.2 353.3L394.7 326.3L419.1 306.9L432.9 334.3Z" fill="#6573D7"/>
    <path d="M421.6 347L429.2 377.4L407.2 405.4L390.7 368.9L402.9 344.2" fill="#6573D7"/>
    <path d="M496.7 129.601C492.8 130.501 489.3 133.501 486.7 136.801C484.3 139.801 482.2 143.201 480.6 146.701C480.6 146.701 472.3 111.401 468.8 80.8006C467.6 70.8006 464.1 65.5006 459.9 62.8006C451.1 57.3006 439.3 63.2006 439.3 63.2006L400 84.5006C392.5 88.7006 384.2 91.2006 375.6 92.1006C371.6 92.6006 367.6 92.6006 363.6 92.1006C342 81.4006 341.6 39.2006 367.9 38.9006C368.7 39.6006 369.4 40.4006 370.1 41.3006C369.7 40.5006 369.4 39.7006 369 39.0006C370.5 39.0006 371.9 39.2006 373.4 39.5006C375.6 39.9006 377.6 42.1006 378.9 43.7006C371.9 30.1006 379.4 13.0006 393.1 7.90058C401.5 4.80058 410.8 5.40058 419.6 7.20058C421 7.50058 422.4 7.80058 423.7 8.20058C445.6 14.8006 464.8 26.3006 478.9 45.4006C497 69.6006 501.4 100.301 496.7 129.601Z" fill="#25282A"/>
    <path d="M540.8 500C540.8 500 542.8 546.3 534.9 592.3C531.3 613.3 525.7 634.1 517 650.5C512.2 659.3 503.1 664.8 493.1 665.1C484.1 665.3 475.2 664.9 466.3 664C389.5 656.8 317.5 672.6 265 690C261.5 691.2 257.9 692.1 254.4 692.9C287.5 722.9 372.7 778.5 533.8 754.4C750.4 722.1 682.7 436.1 682.7 436.1C676.8 405.3 658.5 376.7 636.4 355C611.4 330.5 562.9 314.3 529.9 304" stroke="black" stroke-width="5.4" stroke-linejoin="round"/>
    <path d="M414 250.201C414 250.201 348.1 238.401 356.9 160.701C360.8 126.101 368.4 105.001 375.5 92.1006" stroke="black" stroke-width="5.4" stroke-linejoin="round"/>
    <path d="M476.5 229.8C488.7 211.6 486.8 187.5 490.6 181.4C496.5 172 520 142.6 505.9 132C502.6 129.6 499.5 129.1 496.7 129.6C487.2 131.7 480.6 146.7 480.6 146.7C480.6 146.7 472.3 111.4 468.8 80.8002C465.3 50.2002 439.3 63.2002 439.3 63.2002L400 84.5002C392.5 88.7002 384.2 91.3002 375.6 92.1002C371.1 92.6002 366.6 92.6002 362.1 92.0002C331.7 88.1002 329.8 30.6002 364.6 37.1002C366.8 37.5002 368.8 39.7002 370.1 41.3002C363.1 27.7002 370.6 10.6002 384.3 5.50019C392.7 2.40019 402 3.00019 410.8 4.80019C438.1 10.6002 462.1 22.4002 479 45.3002C496.9 69.6002 501.4 100.2 496.6 129.5" stroke="black" stroke-width="5.4" stroke-linejoin="round"/>
    <path d="M405.8 177.2H391.7L392.6 166L396.4 120.7" stroke="black" stroke-width="5.4" stroke-linejoin="round"/>
    <path d="M392.6 166H353.8C348.1 166 343.4 161.4 343.4 155.6V120.7H409V155.6C409 161.3 413.6 166 419.4 166H457.9C463.6 166 468.3 161.4 468.3 155.6V120.7H409" stroke="black" stroke-width="5.4" stroke-linejoin="round"/>
    <path d="M405.8 190.7C405.8 190.7 415.8 194.2 427 177.2" stroke="black" stroke-width="5.4" stroke-linejoin="round"/>
    <path d="M400.5 463.8L473.5 382.8L472.2 354.3L497.5 376.1L529.9 304.2L530 304C522.1 299.3 514.7 293.8 507.9 287.5C504.8 284.6 501.9 281.5 499.1 278.4C495.8 274.7 492.8 270.8 489.9 266.7L487.6 263.5" stroke="black" stroke-width="5.4" stroke-linejoin="round"/>
    <path d="M448.4 351.5L433.4 330.8L417.4 309.7L451.1 289.3L487.8 263.4L499.2 278.3L503 283.3L493.7 295.2L421.2 388.2L407.5 405.2" stroke="black" stroke-width="5.4" stroke-linejoin="round"/>
    <path d="M378.1 339.701L417.3 309.701L369.1 261.601L350.9 278.801L407.4 405.401L400.5 463.901L355.6 361.301L361.6 333.401L335.8 343.301L320.8 294.601C338 288.001 353.6 277.601 366.4 264.401L369.1 261.601" stroke="black" stroke-width="5.4" stroke-linejoin="round"/>
    <path d="M433.4 334.3L415.6 354.3C414.4 355.2 412.9 355.7 411.4 355.5C409.9 355.3 408.5 354.5 407.7 353.3L395.2 326.3" stroke="black" stroke-width="5.4" stroke-linejoin="round"/>
    <path d="M422.1 347L429.7 377.3" stroke="black" stroke-width="5.4" stroke-linejoin="round"/>
    <path d="M403.3 344.101L391.1 368.801" stroke="black" stroke-width="5.4" stroke-linejoin="round"/>
    <path d="M487.6 263.4L476.4 229.8C473.4 234.1 469.4 237.6 464.9 240.3" stroke="black" stroke-width="5.4" stroke-linejoin="round"/>
    <path d="M376.9 229.7L369.2 261.5" stroke="black" stroke-width="5.4" stroke-linejoin="round"/>
    <path d="M430.1 149.001C432.972 149.001 435.3 146.672 435.3 143.801C435.3 140.929 432.972 138.601 430.1 138.601C427.228 138.601 424.9 140.929 424.9 143.801C424.9 146.672 427.228 149.001 430.1 149.001Z" fill="black"/>
    <path d="M385.1 149.001C387.972 149.001 390.3 146.672 390.3 143.801C390.3 140.929 387.972 138.601 385.1 138.601C382.228 138.601 379.9 140.929 379.9 143.801C379.9 146.672 382.228 149.001 385.1 149.001Z" fill="black"/>
    <path d="M114 274.001C114 274.001 147.4 258.801 164.5 264.501C170.5 266.501 174 283.501 145 291.501C145 291.501 138 308.501 114 310.501" fill="white"/>
    <path d="M26.9 198.7C26.9 198.7 -12.7 260.7 14.5 308.1C14.5 308.1 15.2 321.3 83.7 322C105.9 322.2 114.1 310.5 114.1 310.5C138.1 308.5 145.1 291.5 145.1 291.5C174.1 283.5 170.6 266.5 164.6 264.5C147.5 258.8 114.1 274 114.1 274L26.9 198.7Z" fill="white" stroke="black" stroke-width="5.47"/>
    <path d="M13 308C13 308 -34.2 430.2 78.7 492C153.4 532.9 230 487 230 487" stroke="black" stroke-width="5.47"/>
    <path d="M116 309C116 309 124.2 357.4 193.4 348.1C210.6 345.8 231.6 328 257 316.5C284.5 304 302.5 299.5 323.5 294" stroke="black" stroke-width="5.47"/>
    <path d="M238.1 347.601C238.1 347.601 228 558.001 224 687.001" stroke="black" stroke-width="5.47"/>
    <path d="M88.9999 145C79.9999 112 73.9999 98.0001 69.4999 95.0001C56.9999 86.7001 44.1999 97.6001 47.6999 115.1C51.4999 134.4 60.4999 167.4 62.7999 175.7C62.7999 175.8 62.7999 175.8 62.7999 175.9C62.9999 176.5 62.9999 176.9 63.1999 177.2L63.2999 177.7C63.2999 177.7 97.9999 178 88.9999 145Z" fill="white" stroke="black" stroke-width="5.47"/>
    <path d="M175.3 111.7C175 106.4 172 90 155.7 82.7C149 79.7 138.3 79.5 134.3 84.4C132.2 87.1 130.9 89.5 130.4 91.8C129.3 95.2 129.5 98.2 129.5 98.2L128.8 130.2C128.8 140 134.8 145.5 146.6 145.1C151.6 145 156.6 141.7 158.2 132.5C158.2 132.5 158.3 130.9 158.4 128.1C176 129.5 175.7 116.8 175.3 111.7Z" fill="white" stroke="black" stroke-width="5.47"/>
    <path d="M229.6 275.1H48C35.4 275.1 25.2 264.9 25.2 252.3V150.3C25.2 137.7 35.4 127.5 48 127.5H229.7C242.3 127.5 252.5 137.7 252.5 150.3V252.3C252.5 264.9 242.2 275.1 229.6 275.1Z" fill="#6573D7"/>
    <path d="M175.3 117.8C174 128.5 158.5 128.1 158.5 128.1L154.7 127.6C146.6 125.8 141.4 115.6 139.5 110.4" stroke="black" stroke-width="5.47"/>
    <path d="M128.6 133.101C127.1 142.201 122.1 145.601 117 145.701C105.2 146.101 99.2 140.601 99.2 130.801L99.8999 98.8006C99.8999 98.8006 98.5 81.4006 118.6 82.1006C124.9 82.3006 129.6 87.6006 129.7 95.0006C129.9 112.701 128.6 133.101 128.6 133.101Z" fill="white" stroke="black" stroke-width="5.47"/>
    <path d="M216.3 127.7C217.3 118 211.6 106.4 194.6 107.7C182.3 108.7 175.4 117.7 175.9 125.7C176.2 130.7 179.2 135.4 194.2 135.4C211.7 135.3 215.8 132.3 216.3 127.7Z" fill="white" stroke="black" stroke-width="5.47"/>
    <path d="M83.7 322.001C105.9 322.201 114.1 310.501 114.1 310.501C138.1 308.501 145.1 291.501 145.1 291.501C174.1 283.501 169.9 267.901 164.6 264.501C158.3 260.501 148.3 259.801 119.3 270.301C107.9 274.401 99.8 279.301 99.8 279.301" fill="white"/>
    <path d="M83.7 322.001C105.9 322.201 114.1 310.501 114.1 310.501C138.1 308.501 145.1 291.501 145.1 291.501C174.1 283.501 169.9 267.901 164.6 264.501C158.3 260.501 148.3 259.801 119.3 270.301C107.9 274.401 99.8 279.301 99.8 279.301" stroke="black" stroke-width="5.47"/>
    <path d="M224.6 170.3H125.3C120.5 170.3 116.6 166.4 116.6 161.6C116.6 156.8 120.5 152.9 125.3 152.9H224.6C229.4 152.9 233.3 156.8 233.3 161.6C233.2 166.4 229.3 170.3 224.6 170.3Z" fill="#E0E3F7"/>
    <path d="M155.4 189.3H124.1C122.1 189.3 120.4 187.7 120.4 185.6C120.4 183.6 122.1 181.9 124.1 181.9H155.4C157.4 181.9 159.1 183.5 159.1 185.6C159.1 187.7 157.4 189.3 155.4 189.3Z" fill="#E0E3F7"/>
    <path d="M225.7 189.3H170C168 189.3 166.3 187.7 166.3 185.6C166.3 183.6 168 181.9 170 181.9H225.7C227.7 181.9 229.4 183.5 229.4 185.6C229.4 187.7 227.7 189.3 225.7 189.3Z" fill="#E0E3F7"/>
    <path d="M155.4 202.3H124.1C122.1 202.3 120.4 200.7 120.4 198.6C120.4 196.6 122.1 194.9 124.1 194.9H155.4C157.4 194.9 159.1 196.5 159.1 198.6C159.1 200.7 157.4 202.3 155.4 202.3Z" fill="#E0E3F7"/>
    <path d="M225.7 202.3H170C168 202.3 166.3 200.7 166.3 198.6C166.3 196.6 168 194.9 170 194.9H225.7C227.7 194.9 229.4 196.5 229.4 198.6C229.4 200.7 227.7 202.3 225.7 202.3Z" fill="#E0E3F7"/>
    <path d="M155.4 215.3H124.1C122.1 215.3 120.4 213.7 120.4 211.6C120.4 209.6 122.1 207.9 124.1 207.9H155.4C157.4 207.9 159.1 209.5 159.1 211.6C159.1 213.7 157.4 215.3 155.4 215.3Z" fill="#E0E3F7"/>
    <path d="M225.7 215.3H170C168 215.3 166.3 213.7 166.3 211.6C166.3 209.6 168 207.9 170 207.9H225.7C227.7 207.9 229.4 209.5 229.4 211.6C229.4 213.7 227.7 215.3 225.7 215.3Z" fill="#E0E3F7"/>
    <path d="M155.4 228.3H124.1C122.1 228.3 120.4 226.7 120.4 224.6C120.4 222.6 122.1 220.9 124.1 220.9H155.4C157.4 220.9 159.1 222.5 159.1 224.6C159.1 226.7 157.4 228.3 155.4 228.3Z" fill="#E0E3F7"/>
    <path d="M225.7 228.3H170C168 228.3 166.3 226.7 166.3 224.6C166.3 222.6 168 220.9 170 220.9H225.7C227.7 220.9 229.4 222.5 229.4 224.6C229.4 226.7 227.7 228.3 225.7 228.3Z" fill="#E0E3F7"/>
    <path d="M169.1 248.901H124.3C122.7 248.901 121.4 247.601 121.4 246.001C121.4 244.401 122.7 243.101 124.3 243.101H169.1C170.7 243.101 172 244.401 172 246.001C172.1 247.601 170.7 248.901 169.1 248.901Z" fill="#E0E3F7"/>
    <path d="M225.4 248.901H180.6C179 248.901 177.7 247.601 177.7 246.001C177.7 244.401 179 243.101 180.6 243.101H225.4C227 243.101 228.3 244.401 228.3 246.001C228.4 247.601 227.1 248.901 225.4 248.901Z" fill="#E0E3F7"/>
    <path d="M44 238V258" stroke="#E0E3F7" stroke-miterlimit="10" stroke-linecap="round" stroke-linejoin="round"/>
    <path d="M46.7 238V258" stroke="#E0E3F7" stroke-miterlimit="10" stroke-linecap="round" stroke-linejoin="round"/>
    <path d="M49.3 238V258" stroke="#E0E3F7" stroke-miterlimit="10" stroke-linecap="round" stroke-linejoin="round"/>
    <path d="M52 238V258" stroke="#E0E3F7" stroke-miterlimit="10" stroke-linecap="round" stroke-linejoin="round"/>
    <path d="M54.7 238V258" stroke="#E0E3F7" stroke-miterlimit="10" stroke-linecap="round" stroke-linejoin="round"/>
    <path d="M57.3 238V258" stroke="#E0E3F7" stroke-miterlimit="10" stroke-linecap="round" stroke-linejoin="round"/>
    <path d="M60 238V258" stroke="#E0E3F7" stroke-miterlimit="10" stroke-linecap="round" stroke-linejoin="round"/>
    <path d="M62.7 238V258" stroke="#E0E3F7" stroke-miterlimit="10" stroke-linecap="round" stroke-linejoin="round"/>
    <path d="M65.3 238V258" stroke="#E0E3F7" stroke-miterlimit="10" stroke-linecap="round" stroke-linejoin="round"/>
    <path d="M68 238V258" stroke="#E0E3F7" stroke-miterlimit="10" stroke-linecap="round" stroke-linejoin="round"/>
    <path d="M70.7 238V258" stroke="#E0E3F7" stroke-miterlimit="10" stroke-linecap="round" stroke-linejoin="round"/>
    <path d="M73.3 238V258" stroke="#E0E3F7" stroke-miterlimit="10" stroke-linecap="round" stroke-linejoin="round"/>
    <path d="M76 238V258" stroke="#E0E3F7" stroke-miterlimit="10" stroke-linecap="round" stroke-linejoin="round"/>
    <path d="M78.7 238V258" stroke="#E0E3F7" stroke-miterlimit="10" stroke-linecap="round" stroke-linejoin="round"/>
    <path d="M81.3 238V258" stroke="#E0E3F7" stroke-miterlimit="10" stroke-linecap="round" stroke-linejoin="round"/>
    <path d="M84 238V258" stroke="#E0E3F7" stroke-miterlimit="10" stroke-linecap="round" stroke-linejoin="round"/>
    <path d="M86.7 238V258" stroke="#E0E3F7" stroke-miterlimit="10" stroke-linecap="round" stroke-linejoin="round"/>
    <path d="M89.3 238V258" stroke="#E0E3F7" stroke-miterlimit="10" stroke-linecap="round" stroke-linejoin="round"/>
    <path d="M92 238V258" stroke="#E0E3F7" stroke-miterlimit="10" stroke-linecap="round" stroke-linejoin="round"/>
    <path d="M94.7 238V258" stroke="#E0E3F7" stroke-miterlimit="10" stroke-linecap="round" stroke-linejoin="round"/>
    <path d="M97.3 238V258" stroke="#E0E3F7" stroke-miterlimit="10" stroke-linecap="round" stroke-linejoin="round"/>
    <path d="M100 238V258" stroke="#E0E3F7" stroke-miterlimit="10" stroke-linecap="round" stroke-linejoin="round"/>
    <path d="M102.7 238V258" stroke="#E0E3F7" stroke-miterlimit="10" stroke-linecap="round" stroke-linejoin="round"/>
    <path opacity="0.16" d="M110.8 155.2H38.8V231.2H110.8V155.2Z" fill="#E0E3F7"/>
    <path d="M97.4 228C103.1 228 107.2 222.3 105.2 217C100.5 204.7 88.7 196 74.8 196C60.9 196 49.1 204.7 44.4 217C42.4 222.3 46.4 228 52.2 228H97.4Z" fill="#E0E3F7"/>
    <path d="M74.8001 191.8C84.0233 191.8 91.5001 184.324 91.5001 175.1C91.5001 165.877 84.0233 158.4 74.8001 158.4C65.5769 158.4 58.1001 165.877 58.1001 175.1C58.1001 184.324 65.5769 191.8 74.8001 191.8Z" fill="#E0E3F7"/>
</svg>
