<svg id="share" viewBox="0 0 143 181" fill="none" xmlns="http://www.w3.org/2000/svg">
<path d="M100.32 86.7985C87.0232 94.7169 70.8023 85.387 71.5645 85.2247C96.7015 79.759 98.9226 63.9004 98.9226 63.9004C93.9043 51.6388 80.2252 55.5861 80.2252 55.5861C79.8293 72.9868 59.1187 73.9667 59.1187 73.9667C57.7884 68.3209 57.8617 55.1387 57.8617 55.1387C51.5844 50.7499 50.3135 52.6127 50.3135 52.6127C52.2931 35.1923 60.2649 29.5761 60.2649 29.5761C61.5932 28.3389 67.5301 25.5576 70.5787 25.1973L70.6875 25.6803C70.6875 25.6803 67.6053 33.377 73.5124 33.8837C78.4832 34.3193 81.3081 28.2003 82.0782 26.2583C88.5415 28.2617 94.71 32.7455 98.8137 40.2878C108.522 58.1319 100.32 86.7985 100.32 86.7985Z" fill="#25282A"/>
<path d="M101.757 79.29L134.066 100.67C140.332 104.815 139.526 114.25 132.655 117.273L94.8446 133.913C87.6934 137.06 79.4192 136.25 73.0135 131.777L58.4932 121.626" stroke="black" stroke-width="2"/>
<path d="M101.757 86.1844L100.671 85.4639L134.072 107.56C140.338 111.705 139.532 121.14 132.661 124.163L94.8505 140.804C87.6994 143.95 79.4252 143.14 73.0195 138.668L54.5577 125.519" stroke="black" stroke-width="2"/>
<path d="M129.874 116.092L95.1217 131.389C88.5494 134.279 80.9455 133.535 75.0585 129.425L61.7417 120.069C63.5753 118.664 65.6297 117.574 67.8211 116.843C73.3105 114.978 78.6676 112.745 83.8558 110.157C91.8299 106.213 97.6279 98.9157 99.6689 90.2566C100.366 87.2971 100.977 84.3039 101.478 81.2949L132.063 101.513C137.82 105.321 136.187 113.317 129.874 116.092Z" fill="#FFDC8E"/>
<path d="M40.3263 160.424C40.3263 160.424 46.4196 157.898 47.5875 155.993C47.5875 155.993 47.8073 160.317 46.667 161.793C45.5268 163.27 38.713 167.174 38.3467 166.685C37.9805 166.196 40.3263 160.424 40.3263 160.424Z" fill="#FFDC8E"/>
<path d="M21.5696 170.725C21.5696 170.725 22.6782 172.23 26.6117 170.725C30.5452 169.221 39.103 163.68 39.103 163.68C39.103 163.68 36.7156 170.09 35.8505 170.794C34.9854 171.499 18.6418 179.505 18.6418 179.505C18.6418 179.505 11.3351 180.544 14.0887 175.347L21.5696 170.725Z" fill="#FFDC8E"/>
<path d="M45.0912 86.9717C36.084 90.4776 26.5523 98.7147 29.294 121.526L30.0562 127.453" stroke="black"/>
<path d="M45.0774 72.0757C46.5502 69.9734 47.8805 67.7008 48.6961 65.254C49.5117 62.8072 49.5533 60.1565 49.7809 57.5831C50.3867 50.6822 51.325 44.975 53.9876 38.5472C56.2938 32.9845 63.26 25.8184 70.1906 25.1394L70.8142 25.0859" stroke="black"/>
<path d="M62.4978 86.4677C62.4641 86.3707 62.4305 86.2796 62.3949 86.1846" stroke="black" stroke-width="4.21"/>
<path d="M59.1187 73.5389C58.7782 71.5375 58.5248 69.5975 58.3268 67.7565C58.3274 67.7218 58.3234 67.6872 58.315 67.6535C57.2777 57.3735 58.3268 49.8945 58.3268 49.8945" stroke="black"/>
<path d="M83.3313 11.146L81.7476 11.7637C81.7476 11.8132 81.7476 12.4308 81.6803 13.2959C81.6066 14.3291 81.4424 15.3539 81.1893 16.3583C81.3299 15.6734 81.5338 14.0462 80.639 12.9138C80.6251 12.8907 80.6092 12.8688 80.5915 12.8485C79.9976 12.1339 79.2652 12.4169 78.6772 12.9079C78.2712 13.2514 77.9165 13.6514 77.6241 14.0956C77.7266 12.7732 77.4894 11.4464 76.9352 10.2414C76.5737 9.4193 76.0942 8.65438 75.5118 7.97076C76.4086 11.0589 75.2584 13.0801 75.2584 13.0801C72.2197 13.7947 70.1115 13.6423 68.5397 13.3711C67.2153 12.1358 67.6746 7.68768 67.6746 7.68768C66.3423 8.77646 66.663 12.989 66.663 12.989C66.4929 11.8898 66.5136 10.7694 66.7244 9.67718C66.0626 10.6131 65.6802 11.7176 65.6217 12.8624L65.598 12.8505C65.5061 12.8269 65.4156 12.7985 65.3268 12.7654C65.1637 12.6796 65.0057 12.5844 64.8536 12.4803L63.9767 11.8864C65.301 5.13004 69.9313 0.881817 77.0856 2.12896C77.5526 2.20945 78.0122 2.32864 78.4595 2.48529C83.1729 4.94198 83.3313 11.146 83.3313 11.146Z" fill="#FFDC8E"/>
<path d="M42.5039 76.9483L40.7005 71.5202C40.6193 71.2633 40.4112 71.0664 40.1501 70.9996C40.1343 70.9996 40.1165 70.9996 40.0987 70.9877C40.0809 70.9758 40.0769 70.9877 40.065 70.9877C40.0235 70.985 39.9818 70.985 39.9403 70.9877C39.7403 70.9884 39.5479 71.0648 39.4019 71.2015C39.1058 71.475 38.9372 71.8595 38.9366 72.2626C38.9368 72.4186 38.9615 72.5735 39.0099 72.7218C39.4058 73.868 40.1105 75.9367 40.4451 76.879" fill="#FFDC8E"/>
<path d="M42.0962 76.9483L40.1522 70.9996C40.1364 70.9996 40.1185 70.9996 40.1007 70.9878C40.0829 70.9759 40.079 70.9878 40.0671 70.9878L39.0476 70.7898C38.5032 70.6889 37.9588 70.58 37.4144 70.479C36.7611 70.3484 36.1039 70.2395 35.4526 70.0831C35.2989 70.0396 35.1409 70.0131 34.9815 70.0039C34.7808 70.0033 34.5877 70.0807 34.443 70.2197C34.1443 70.4929 33.9753 70.8799 33.9778 71.2847C33.9768 71.4388 34.0016 71.5921 34.0511 71.738C34.4885 73.0208 35.322 75.4478 35.5872 76.1842L42.0962 76.9483Z" fill="#FFDC8E"/>
<path d="M80.532 49.8929C80.3341 52.0962 80.2311 54.7627 80.1619 58.1142C80.1619 65.2407 72.283 71.1419 65.2812 72.492L52.4415 75.3921C50.745 75.7207 49.2425 74.6616 48.0626 73.9589C46.8492 73.2363 45.606 72.3752 44.731 71.7358C43.472 70.8153 41.0469 71.5556 41.5438 73.751C41.7609 74.5971 42.3605 75.2934 43.1651 75.6336C43.3886 75.7339 43.6188 75.8185 43.854 75.887C44.0341 75.9321 44.1614 76.0927 44.1642 76.2784C44.167 76.464 44.0446 76.6283 43.8659 76.6788C42.7534 77.0629 40.7164 77.2905 37.4302 76.085C33.2196 74.5349 32.893 84.1439 38.6496 85.8167H38.6714C43.9748 87.4201 49.682 87.2143 55.1635 86.9846C61.388 86.7488 67.5819 85.9932 73.6806 84.7259C76.7827 84.0687 79.9698 83.3857 82.8086 81.9822C87.6982 79.5651 91.2219 76.7937 94.5733 72.4801C98.3346 67.6439 99.94 61.2993 100.847 55.3506C101.884 48.5448 100.451 42.798 96.8024 36.9404L96.6678 36.7266" stroke="black"/>
<path d="M42.5039 76.9473L40.7005 71.5192C40.6193 71.2623 40.4113 71.0654 40.1502 70.9986C40.1344 70.9986 40.1165 70.9986 40.0987 70.9867C40.0809 70.9748 40.077 70.9867 40.0651 70.9867C40.0235 70.984 39.9819 70.984 39.9404 70.9867C39.7403 70.9874 39.5479 71.0638 39.4019 71.2005C39.1058 71.474 38.9372 71.8585 38.9367 72.2616C38.9368 72.4176 38.9616 72.5726 39.01 72.7209C39.4059 73.867 40.1106 75.9357 40.4452 76.878" stroke="black"/>
<path d="M40.1522 70.9987C40.1363 70.9987 40.1185 70.9987 40.1007 70.9868C40.0829 70.9749 40.0789 70.9868 40.0671 70.9868L39.0476 70.7888C38.5032 70.6879 37.9588 70.579 37.4144 70.478C36.7611 70.3474 36.1039 70.2385 35.4526 70.0821C35.2989 70.0386 35.1409 70.0121 34.9815 70.0029C34.7808 70.0023 34.5877 70.0797 34.443 70.2187C34.1443 70.492 33.9753 70.8789 33.9778 71.2837C33.9768 71.4379 34.0016 71.5911 34.0511 71.7371C34.4885 73.0199 35.322 75.4468 35.5872 76.1833" stroke="black"/>
<path d="M65.006 12.668C65.006 15.2414 65.5069 17.7021 66.7421 19.9747C67.7319 21.7999 69.185 23.6389 71.2635 24.2427C71.7242 24.3756 72.2015 24.4422 72.6809 24.4407C76.2086 24.4248 76.7589 20.2459 76.7589 20.2459" stroke="black" stroke-width="0.5"/>
<path d="M81.4785 14.3457V14.3576C81.315 15.6345 81.034 16.8936 80.6391 18.1188C80.1674 19.5804 80.056 21.1343 80.3145 22.6481L80.8628 25.8373C80.9138 26.1272 81.126 26.3625 81.4092 26.443C88.3695 28.4642 94.5478 32.9242 98.1427 39.3639C102.627 47.405 103.444 57.0892 103.082 66.1162C102.763 73.9416 101.498 81.7214 99.7027 89.3369C97.4804 98.7607 91.1701 106.702 82.492 110.996C76.8517 113.812 71.0269 116.243 65.0577 118.271C58.6584 120.39 53.5536 125.278 51.1589 131.58L37.1315 168.879C36.6159 170.256 35.5991 171.388 34.2848 172.047L20.8433 178.799C19.1459 179.649 17.2097 179.894 15.3539 179.496C14.3692 179.283 13.6149 178.49 13.4522 177.496C13.2896 176.502 13.7518 175.509 14.6175 174.994L21.4827 170.91L30.9234 122.782C32.2679 114.093 37.3459 106.426 44.8222 101.798C45.3147 101.498 45.8281 101.234 46.3584 101.007L66.8235 92.1202" stroke="black"/>
<path d="M75.9355 1.66348C74.8414 1.40272 73.7088 1.34501 72.5939 1.49323C72.5481 1.49424 72.5025 1.49821 72.4573 1.50511" stroke="black"/>
<path d="M70.9785 25.2031C70.9785 25.2031 67.3578 33.5036 73.8331 33.9134C79.6433 34.2855 81.7753 26.3909 81.7753 26.3909" stroke="black"/>
<path fill-rule="evenodd" clip-rule="evenodd" d="M81.1062 16.6606C81.1478 16.5081 81.7713 14.2573 80.5796 12.8399C79.3879 11.4226 77.7725 13.8535 77.6102 14.097C77.9269 10.607 75.5019 7.96024 75.5019 7.96024C76.3967 11.0504 75.2446 13.0696 75.2446 13.0696C70.8162 14.1069 68.3793 13.317 66.6511 12.9765C66.4812 11.8778 66.5026 10.758 66.7145 9.66665C66.051 10.6001 65.6684 11.704 65.6118 12.8479H65.5841C64.9263 12.673 64.3025 12.3886 63.7391 12.0065L62.8622 11.4127C64.1885 4.65826 68.8168 0.406084 75.9711 1.65323C83.1254 2.90038 83.3253 11.1276 83.3253 11.1276L81.7317 11.7472C81.7317 11.7472 81.7456 14.4632 81.1062 16.6606V16.6606Z" stroke="black"/>
<path d="M67.7815 16.3086V19.5928C67.7821 19.6738 67.8212 19.7498 67.8868 19.7975C67.9524 19.8451 68.0368 19.8588 68.1141 19.8343C68.3724 19.7488 68.6098 19.6098 68.8109 19.4265" stroke="black" stroke-width="0.5"/>
<ellipse rx="2.01325" ry="2.79915" transform="matrix(0.931691 -0.363251 0.363252 0.931691 64.8008 16.194)" stroke="black" stroke-width="0.5"/>
<ellipse rx="2.01326" ry="2.79915" transform="matrix(0.931692 -0.36325 0.363252 0.931691 71.0346 17.1325)" stroke="black" stroke-width="0.5"/>
<path d="M66.9105 16.4787C66.9105 16.4787 67.5241 15.778 68.8109 16.5995" stroke="black" stroke-width="0.5"/>
<path d="M70.6875 24.0352C70.6875 24.0352 71.1329 25.5436 72.4434 30.4332" stroke="black" stroke-width="0.5"/>
<path d="M37.8776 166.932L45.5981 162.765C46.4964 162.278 47.0959 161.379 47.1996 160.362C48.4823 147.762 48.0904 139.796 48.0904 139.796" stroke="black"/>
<path d="M30.8698 102.314L1.15802 81.5498" stroke="black" stroke-width="2"/>
<path d="M29.1872 108.035L1.15802 88.4453" stroke="black" stroke-width="2"/>
<path d="M142.842 68.5679V85.5668C142.842 87.1593 141.903 88.6021 140.447 89.2468L119.364 98.5826L112.918 108.378C112.578 108.876 111.954 109.097 111.376 108.924C110.798 108.75 110.399 108.223 110.388 107.62V102.56L108.227 103.516C107.25 103.943 106.124 103.85 105.23 103.269C104.337 102.687 103.796 101.696 103.79 100.63V86.4338C103.791 82.8153 105.94 79.5426 109.26 78.1037L138.233 65.5431C139.253 65.1007 140.426 65.2015 141.355 65.811C142.283 66.4206 142.842 67.457 142.842 68.5679Z" fill="#848FDF"/>
<ellipse rx="4.08589" ry="2.82489" transform="matrix(0.460201 -0.887815 0.887816 0.460199 114.472 89.486)" fill="white"/>
<ellipse rx="4.08589" ry="2.82489" transform="matrix(0.460201 -0.887815 0.887816 0.460199 123.476 85.6325)" fill="white"/>
<ellipse rx="4.0859" ry="2.82489" transform="matrix(0.460199 -0.887816 0.887815 0.460201 132.177 81.4703)" fill="white"/>
</svg>
