<svg id="sit-man" viewBox="0 0 163 266" fill="none" xmlns="http://www.w3.org/2000/svg">
    <mask id="mask0_2047:8548" style="mask-type:alpha" maskUnits="userSpaceOnUse" x="4" y="0" width="159" height="266">
    <path fill-rule="evenodd" clip-rule="evenodd" d="M16.4792 173.469H83.4436V265.253H114.14C115.057 265.129 113.226 265.403 114.14 265.253C143.446 265.3 165.922 242.694 162.262 210.184C158.822 179.566 141.253 159.007 121.178 138.362C112.329 129.266 105.688 107.054 111.791 99.0076L113.437 83.8577L113.49 83.5343C115.004 73.8323 119.788 65.3416 119.444 55.328C119.15 46.999 116.58 38.864 112.497 31.6198C104.4 17.2697 90.0586 5.80662 73.9121 2.46384C64.1395 0.444059 53.9201 -0.0469211 44.1064 2.00814C15.2297 8.07336 -1.51656 40.7632 6.0363 68.3816C8.79402 78.4922 12.0721 88.5029 16.4909 98.0138L16.4792 173.469Z" fill="white"/>
    </mask>
    <g mask="url(#mask0_2047:8548)">
    <path d="M127.982 339.811V179.046H201.629V360.885" stroke="#E0E3F7"/>
    <path fill-rule="evenodd" clip-rule="evenodd" d="M135.302 193.858V203.266H144.71V185.999H135.302V193.858ZM136.849 187.542H143.152V193.857H136.849V187.542ZM143.152 195.401H136.849V201.716H143.152V195.401Z" fill="#FFE7B3"/>
    <path fill-rule="evenodd" clip-rule="evenodd" d="M151.89 193.858V203.266H161.298V185.999H151.89V193.858ZM153.442 187.546H159.757V193.858H153.442V187.546ZM159.757 195.404H153.442V201.719H159.757V195.404Z" fill="#FFE7B3"/>
    <path fill-rule="evenodd" clip-rule="evenodd" d="M135.302 217.084V226.492H144.71V209.229H135.302V217.084ZM136.849 210.769H143.152V217.084H136.849V210.769ZM143.152 218.628H136.849V224.943H143.152V218.628Z" fill="#FFE7B3"/>
    <path fill-rule="evenodd" clip-rule="evenodd" d="M151.89 217.084V226.492H161.298V209.229H151.89V217.084ZM153.442 210.772H159.757V217.084H153.442V210.772ZM159.757 218.631H153.442V224.946H159.757V218.631Z" fill="#FFE7B3"/>
    <path fill-rule="evenodd" clip-rule="evenodd" d="M135.302 240.31V249.718H144.71V232.454H135.302V240.31ZM136.849 233.994H143.152V240.309H136.849V233.994ZM143.152 241.856H136.849V248.172H143.152V241.856Z" fill="#FFE7B3"/>
    <path fill-rule="evenodd" clip-rule="evenodd" d="M151.89 240.31V249.718H161.298V232.454H151.89V240.31ZM153.442 233.998H159.757V240.31H153.442V233.998ZM159.757 241.859H153.442V248.174H159.757V241.859Z" fill="#FFE7B3"/>
    <path fill-rule="evenodd" clip-rule="evenodd" d="M135.302 263.535V272.943H144.71V255.68H135.302V263.535ZM136.849 257.22H143.152V263.535H136.849V257.22ZM143.152 265.079H136.849V271.394H143.152V265.079Z" fill="#FFE7B3"/>
    <path fill-rule="evenodd" clip-rule="evenodd" d="M151.89 263.535V272.943H161.298V255.68H151.89V263.535ZM153.442 257.226H159.757V263.536H153.442V257.226ZM159.757 265.085H153.442V271.4H159.757V265.085Z" fill="#FFE7B3"/>
    <path d="M87.6742 113.522V33.1045H161.318V179.052" stroke="#E0E3F7"/>
    <path fill-rule="evenodd" clip-rule="evenodd" d="M94.9946 47.9163V57.3243H104.403V40.0547H94.9946V47.9163ZM96.541 41.6014H102.856V47.9165H96.541V41.6014ZM102.856 49.46H96.541V55.7751H102.856V49.46Z" fill="#FFE7B3"/>
    <path fill-rule="evenodd" clip-rule="evenodd" d="M111.585 47.9163V57.3243H120.993V40.0547H111.585V47.9163ZM113.128 41.6014H119.443V47.9165H113.128V41.6014ZM119.443 49.46H113.128V55.7751H119.443V49.46Z" fill="#FFE7B3"/>
    <path fill-rule="evenodd" clip-rule="evenodd" d="M127.72 47.9163V57.3243H137.128V40.0547H127.72V47.9163ZM129.263 41.6014H135.578V47.9165H129.263V41.6014ZM135.578 49.46H129.263V55.7751H135.578V49.46Z" fill="#FFE7B3"/>
    <path fill-rule="evenodd" clip-rule="evenodd" d="M142.905 40.0547V57.3184H152.313V40.0547H142.905ZM150.763 55.7751H144.451V49.46H150.763V55.7751ZM144.451 47.9165H150.763V41.6014H144.451V47.9165Z" fill="#FFE7B3"/>
    <path fill-rule="evenodd" clip-rule="evenodd" d="M94.9946 71.1428V80.5508H104.403V63.2842H94.9946V71.1428ZM96.541 64.8274H102.856V71.1425H96.541V64.8274ZM102.856 72.6865H96.541V79.0016H102.856V72.6865Z" fill="#FFE7B3"/>
    <path fill-rule="evenodd" clip-rule="evenodd" d="M111.585 71.1428V80.5508H120.993V63.2842H111.585V71.1428ZM113.128 64.8274H119.443V71.1425H113.128V64.8274ZM119.443 72.6865H113.128V79.0016H119.443V72.6865Z" fill="#FFE7B3"/>
    <path fill-rule="evenodd" clip-rule="evenodd" d="M127.72 71.1428V80.5508H137.128V63.2842H127.72V71.1428ZM129.263 64.8274H135.578V71.1425H129.263V64.8274ZM135.578 72.6865H129.263V79.0016H135.578V72.6865Z" fill="#FFE7B3"/>
    <path fill-rule="evenodd" clip-rule="evenodd" d="M142.905 71.1428V80.5508H152.313V63.2842H142.905V71.1428ZM144.451 64.8274H150.763V71.1425H144.451V64.8274ZM150.763 72.6865H144.451V79.0016H150.763V72.6865Z" fill="#FFE7B3"/>
    <path fill-rule="evenodd" clip-rule="evenodd" d="M94.9946 94.3684V103.776H104.403V86.5098H94.9946V94.3684ZM96.541 88.0535H102.856V94.3685H96.541V88.0535ZM102.856 95.915H96.541V102.23H102.856V95.915Z" fill="#FFE7B3"/>
    <path fill-rule="evenodd" clip-rule="evenodd" d="M111.585 94.3684V103.776H120.993V86.5098H111.585V94.3684ZM113.128 88.0535H119.443V94.3685H113.128V88.0535ZM119.443 95.915H113.128V102.23H119.443V95.915Z" fill="#FFE7B3"/>
    <path fill-rule="evenodd" clip-rule="evenodd" d="M127.72 94.3684V103.776H137.128V86.5098H127.72V94.3684ZM129.263 88.0535H135.578V94.3685H129.263V88.0535ZM135.578 95.915H129.263V102.23H135.578V95.915Z" fill="#FFE7B3"/>
    <path fill-rule="evenodd" clip-rule="evenodd" d="M142.905 94.3684V103.776H152.313V86.5098H142.905V94.3684ZM144.451 88.0535H150.763V94.3685H144.451V88.0535ZM150.763 95.915H144.451V102.23H150.763V95.915Z" fill="#FFE7B3"/>
    <path fill-rule="evenodd" clip-rule="evenodd" d="M94.9946 117.597V127.005H104.403V109.735H94.9946V117.597ZM96.541 111.282H102.856V117.597H96.541V111.282ZM102.856 119.141H96.541V125.456H102.856V119.141Z" fill="#FFE7B3"/>
    <path fill-rule="evenodd" clip-rule="evenodd" d="M111.585 117.597V127.005H120.993V109.735H111.585V117.597ZM113.128 111.282H119.443V117.597H113.128V111.282ZM119.443 119.141H113.128V125.456H119.443V119.141Z" fill="#FFE7B3"/>
    <path fill-rule="evenodd" clip-rule="evenodd" d="M127.72 117.597V127.005H137.128V109.735H127.72V117.597ZM129.263 111.282H135.578V117.597H129.263V111.282ZM135.578 119.141H129.263V125.456H135.578V119.141Z" fill="#FFE7B3"/>
    <path fill-rule="evenodd" clip-rule="evenodd" d="M142.905 117.597V127.005H152.313V109.735H142.905V117.597ZM144.451 111.282H150.763V117.597H144.451V111.282ZM150.763 119.141H144.451V125.456H150.763V119.141Z" fill="#FFE7B3"/>
    <path fill-rule="evenodd" clip-rule="evenodd" d="M111.585 140.822V150.23H120.993V132.961H111.585V140.822ZM113.128 134.508H119.443V140.823H113.128V134.508ZM119.443 142.366H113.128V148.681H119.443V142.366Z" fill="#FFE7B3"/>
    <path fill-rule="evenodd" clip-rule="evenodd" d="M127.72 140.822V150.23H137.128V132.961H127.72V140.822ZM129.263 134.508H135.578V140.823H129.263V134.508ZM135.578 142.366H129.263V148.681H135.578V142.366Z" fill="#FFE7B3"/>
    <path fill-rule="evenodd" clip-rule="evenodd" d="M142.905 140.822V150.23H152.313V132.961H142.905V140.822ZM144.451 134.508H150.763V140.823H144.451V134.508ZM150.763 142.366H144.451V148.681H150.763V142.366Z" fill="#FFE7B3"/>
    </g>
    <path d="M15.8908 98.014C11.4808 88.4943 8.20268 78.4836 5.43614 68.373C-2.11672 40.7634 14.6295 8.07355 43.5062 2.02009C53.317 -0.0379062 63.5394 0.456014 73.3119 2.47579C89.4555 5.80681 103.8 17.2699 111.899 31.62C115.983 38.8524 118.564 46.9992 118.85 55.3282C119.194 65.3418 114.41 73.8355 112.896 83.5345L112.843 83.8579" stroke="#E0E3F7"/>
    <path d="M113.54 265.253C114.454 265.13 112.623 265.403 113.54 265.253C142.858 265.3 165.322 242.694 161.674 210.184C158.231 179.567 140.665 159.007 120.587 138.363C111.741 129.266 105.099 107.055 111.2 99.0078" stroke="#E0E3F7"/>
    <path d="M1.34076 147.845C1.34076 148.468 1.36134 149.091 1.37898 149.703C1.73766 160.637 4.33368 167.825 5.9007 171.221C5.38768 169.771 5.21075 168.224 5.38326 166.696C5.49356 165.659 5.65743 164.629 5.87424 163.609C7.10611 157.886 9.9007 152.616 13.9475 148.386L13.9857 148.35C14.5237 147.792 14.9383 147.415 15.1617 147.215L15.2617 147.113L15.3646 147.03L60.961 103.651C61.2455 101.783 61.4261 99.9018 61.5019 98.0146C63.7951 98.3644 66.3059 98.629 69.0548 98.8084C71.2157 98.9407 73.5412 99.0171 76.0138 99.0259C98.7429 99.1024 108.507 102.613 112.293 104.682C112.735 104.926 113.272 104.918 113.706 104.662C114.14 104.406 114.406 103.94 114.407 103.436V84.5876C111.761 83.1617 108.498 82.1709 104.455 81.821C93.5391 80.8773 81.5469 80.939 71.3127 76.5526C63.6687 73.2745 56.7685 66.73 48.9687 63.4255C45.1467 61.8114 41.1483 60.9794 36.7295 61.6615C31.7815 62.4347 27.6155 64.6456 24.0875 67.6767C24.0405 67.712 24.0023 67.762 23.9552 67.7972C19.9245 71.3017 16.7405 75.8617 14.2768 80.5274C6.50634 95.2098 1.87878 114.067 1.47306 130.875V131.063C1.47306 131.819 1.45542 132.565 1.45542 133.312L1.34076 147.845Z" fill="#25282A"/>
    <path d="M29.3042 28.8391V33.2873H61.7295V28.8391C61.7305 28.4895 61.7119 28.14 61.6736 27.7925C61.1358 22.493 56.6692 18.4636 51.3425 18.4727H39.6707C36.9208 18.4711 34.2832 19.5628 32.3387 21.5072C30.3943 23.4516 29.3026 26.0893 29.3042 28.8391H29.3042Z" fill="#25282A"/>
    <path d="M74.0439 165.339L78.5362 176.661H106.76C107.558 176.661 108.322 176.344 108.886 175.779C109.448 175.211 109.765 174.444 109.768 173.645C109.764 172.221 108.763 170.994 107.369 170.705L94.5534 168.079L92.854 161.582L74.0439 165.339Z" fill="#FFB81C"/>
    <path d="M114.387 258.296L105.273 245.948V237.543H90.1936C90.0553 237.546 89.9293 237.623 89.864 237.745C89.7988 237.867 89.8045 238.014 89.879 238.131L107.284 263.365C108.098 264.545 109.44 265.249 110.874 265.249C112.52 265.25 114.027 264.324 114.77 262.854C115.513 261.384 115.364 259.622 114.387 258.296Z" fill="#FFB81C"/>
    <path d="M31.855 39.9396C32.7162 42.733 33.1552 45.6394 33.1574 48.5626C39.5314 48.5626 40.7309 45.455 40.2399 43.0001C39.6931 40.2718 40.5133 36.4645 44.3177 35.9177C48.122 35.3708 47.0489 41.3655 46.5962 48.4391C46.6079 49.9605 46.8589 51.4705 47.34 52.9138C48.0551 55.0914 49.5534 56.926 51.5442 58.0618C53.443 59.1134 55.5863 59.6439 57.7564 59.5994C57.7564 59.5994 61.4755 50.3472 58.8795 49.5828C56.2835 48.8184 50.3153 42.1799 51.6736 34.0008C51.703 33.8214 51.7324 33.6627 51.7706 33.501H30.9113C30.8642 35.6848 31.1832 37.8611 31.855 39.9396Z" fill="#FFB81C"/>
    <path d="M1.4938 130.883V131.071C1.4938 131.827 1.47616 132.573 1.47616 133.32L1.37328 147.879C1.37328 148.493 1.39091 149.099 1.40855 149.702" stroke="#25282A"/>
    <path d="M5.90381 163.593C11.1345 171.749 20.1606 176.678 29.8501 176.67H82.1821C87.0449 176.67 89.4616 179.087 89.4616 182.062V259.713C89.4616 262.774 91.9428 265.255 95.0035 265.255H114.14" stroke="#25282A"/>
    <path fill-rule="evenodd" clip-rule="evenodd" d="M114.387 258.296L105.273 245.948V237.543H90.1936C90.0553 237.546 89.9293 237.623 89.864 237.745C89.7988 237.867 89.8045 238.014 89.879 238.131L107.284 263.365C108.098 264.545 109.44 265.249 110.874 265.249C112.52 265.25 114.027 264.324 114.77 262.854C115.513 261.384 115.364 259.622 114.387 258.296V258.296Z" stroke="#25282A"/>
    <path d="M61.1758 147.035L67.1352 147.932" stroke="#25282A"/>
    <path d="M102.498 154.05C114.943 158.877 122.196 170.728 120.702 183.523L114.443 237.543H89.453" stroke="#25282A"/>
    <path d="M60.6144 131.506L64.2306 140.62L67.1295 147.938L74.0444 165.339L78.5367 176.661H106.761C107.558 176.661 108.323 176.344 108.886 175.779C109.448 175.211 109.765 174.444 109.768 173.645C109.765 172.221 108.764 170.994 107.369 170.705L94.5538 168.079L92.8545 161.582L104.497 159.495L102.507 154.047L85.6309 107.889C82.1029 98.1869 68.917 96.1024 61.4406 103.223L61.0055 103.638L13.7596 148.581" stroke="#25282A"/>
    <path d="M32.4197 176.67C41.4433 176.671 49.6491 171.441 53.4584 163.261L61.1729 147.041L64.2305 140.62" stroke="#25282A"/>
    <path d="M38.5381 86.9268C38.5381 86.9268 42.1366 95.1059 61.5318 98.0224C63.825 98.3732 66.3426 98.6378 69.0846 98.8162C71.2406 98.9475 73.5603 99.02 76.0436 99.0337C98.7728 99.1102 108.536 102.621 112.323 104.69C112.765 104.933 113.302 104.925 113.736 104.669C114.171 104.413 114.438 103.948 114.44 103.444V95.1236C116.166 96.276 117.433 97.9842 118.347 99.9216C119.491 102.274 120.111 104.99 120.443 107.474C120.715 109.436 120.844 111.415 120.832 113.396C120.831 113.884 121.025 114.352 121.37 114.698C121.711 115.05 122.182 115.247 122.672 115.245C123.574 115.247 124.345 114.597 124.495 113.707C125.377 108.503 127.12 91.4603 114.44 84.5866C111.794 83.1607 108.528 82.1699 104.485 81.8201C93.5719 80.8763 81.5796 80.9381 71.3426 76.5516C63.6839 73.2735 56.7925 66.7202 48.9986 63.4245C45.1913 61.8104 41.1782 60.9784 36.7594 61.6605C31.8113 62.4337 27.6454 64.6446 24.1174 67.6757C20.019 71.2037 16.7968 75.8136 14.3036 80.5265C6.53322 95.2088 1.90566 114.066 1.49994 130.874V131.062C1.49994 131.818 1.4823 132.564 1.4823 133.311" stroke="#25282A"/>
    <path d="M47.3725 52.9725L47.3461 52.9137C46.8022 51.8317 46.4641 50.3823 46.5993 48.4419C47.0462 41.3624 48.1369 35.3707 44.3237 35.9175C40.5106 36.4644 39.6962 40.2746 40.2518 42.997C40.7428 45.4549 39.5492 48.583 33.1723 48.5654" stroke="#25282A"/>
    <path d="M58.8798 49.5827C59.3826 47.7423 63.7425 48.001 61.7875 44.0144C60.6732 41.7388 60.6115 37.861 61.3112 33.5098" stroke="#25282A"/>
    <path d="M30.9116 33.5098C30.8688 35.6902 31.1867 37.8628 31.8524 39.9395C32.7183 42.7331 33.1593 45.6409 33.1607 48.5655L33.0548 53.7135C32.9854 58.5574 30.5484 63.0602 26.531 65.7675C25.6139 66.3603 24.7572 67.0417 23.9732 67.8019" stroke="#25282A" stroke-width="0.5"/>
    <path d="M46.5994 48.4421C46.6093 49.9628 46.8613 51.4723 47.3461 52.9138C49.8422 60.0521 57.7537 59.5964 57.7537 59.5964C57.7537 59.5964 61.4787 50.3472 58.8797 49.5828C56.2808 48.8184 50.3155 42.1799 51.6767 34.0008C51.7032 33.8273 51.7385 33.6597 51.7738 33.501" stroke="#25282A"/>
    <path d="M61.9028 28.0058H61.9534" stroke="#25282A" stroke-width="4.82"/>
    <path d="M74.0444 165.348L92.8428 161.591" stroke="#25282A" stroke-width="0.5"/>
    <path d="M114.44 95.1238V84.5869" stroke="#25282A" stroke-width="0.5"/>
    <path d="M118.353 99.916C116.689 102.797 117.077 108.624 118.879 108.51C119.502 108.463 120.023 108.036 120.449 107.472" stroke="#25282A"/>
    <path d="M61.9608 33.51V29.0647C61.9608 26.3123 60.8667 23.6727 58.9197 21.7273C56.9726 19.7818 54.332 18.69 51.5796 18.6924H39.9078C37.1559 18.69 34.516 19.782 32.5698 21.7276C30.6237 23.6732 29.531 26.3128 29.5325 29.0647V33.51H73.5561" stroke="#25282A"/>
    <path d="M53.2436 33.5095C53.4494 21.4349 46.5728 18.9683 45.7496 18.7154C45.6971 18.6977 45.6403 18.6977 45.5879 18.7154C44.7647 18.9683 37.888 21.4349 38.0938 33.5095" stroke="#25282A"/>
    <path d="M47.9929 18.6345C47.9483 17.3831 46.921 16.3916 45.6688 16.3916C44.4166 16.3916 43.3892 17.3831 43.3447 18.6345H47.9929Z" fill="#25282A"/>
    <path d="M51.5445 58.0557L49.0043 63.4212" stroke="#25282A"/>
    <path d="M60.5025 38.037C60.5025 38.037 56.5364 37.3226 55.0253 40.389" stroke="#25282A"/>
    <ellipse cx="57.9845" cy="41.4108" rx="1.22303" ry="1.04076" transform="rotate(-34.86 57.9845 41.4108)" fill="#25282A"/>
    <path d="M55.3635 50.2471C55.3635 50.2471 56.8717 52.3727 59.9499 51.6142" stroke="#25282A"/>
    <path d="M15.3853 147.034C15.3853 147.034 6.73582 154.049 5.40987 166.685C4.86303 171.898 8.14408 176.666 13.3861 176.666H30.5822" stroke="#25282A"/>
    <path d="M7.11529 173.468C7.11529 173.468 1.10594 164.233 1.37642 145.832" stroke="#25282A"/>
    <path d="M60.9939 103.649C61.2777 101.781 61.4573 99.8999 61.532 98.0127" stroke="#25282A"/>
    <path d="M6.64494 164.685C6.64494 164.685 6.30684 164.052 5.90406 164.937C5.50128 165.822 3.86371 173.131 8.90285 175.26C13.942 177.388 24.523 176.174 24.523 176.174C24.523 176.174 12.0281 173.522 6.64494 164.685Z" fill="#25282A"/>
</svg>
