<svg id="success" viewBox="0 0 453 453" fill="none" xmlns="http://www.w3.org/2000/svg">
<ellipse rx="8.0353" ry="6.53035" transform="matrix(0.500001 -0.866025 0.866026 0.499999 191.151 237.488)" fill="#CCDDE2"/>
<ellipse rx="8.06299" ry="6.55284" transform="matrix(0.498283 -0.867015 0.867013 0.498285 210.676 241.582)" fill="#CCDDE2"/>
<path d="M145.414 295.994C150.484 284.452 153.685 271.134 153.987 255.689C155.452 180.148 240.866 121.854 335.616 185.928C430.366 250.002 346.626 426.273 346.626 426.273" stroke="#CCDDE2" stroke-width="4.47"/>
<path d="M79.1696 426.273C74.9832 422.983 43.0684 391.779 62.2377 373.919C70.4284 366.297 88.0573 357.396 105.717 343.824" stroke="#CCDDE2" stroke-width="4.47"/>
<path d="M233.159 271.231C232.502 271.405 231.947 271.529 231.508 271.631C231.179 271.689 230.908 271.746 230.722 271.773H230.682L230.424 271.817C230.424 271.817 230.398 271.786 230.38 271.786C225.941 268.528 227.303 262.464 227.303 262.464C240.577 264.555 243.33 253.802 243.33 253.802C243.157 248.648 242.175 246.224 239.911 244.83C237.545 243.348 233.772 242.966 228.005 241.723L227.05 241.51C218.473 239.561 214.474 230.757 212.893 225.874C212.525 224.792 212.228 223.687 212.005 222.567C202.292 226.216 196.21 231.383 192.707 235.259C191.322 207.783 218.9 211.73 218.9 211.73C223.54 211.797 228.152 212.471 232.617 213.737C233.63 214.181 234.597 214.625 235.521 215.069C235.965 215.295 236.435 215.539 236.853 215.792C237.27 216.045 237.74 216.294 238.149 216.547C238.446 216.72 238.748 216.906 239.037 217.102C245.103 220.952 249.952 226.445 253.021 232.942C253.064 233.03 253.103 233.12 253.136 233.212C253.276 233.513 253.399 233.821 253.505 234.136C259.747 261.447 240.488 269.265 233.159 271.231Z" fill="#848FDF"/>
<path d="M233.159 271.231C231.223 268.013 232.12 264.128 232.12 264.128C245.381 266.224 248.142 255.472 248.142 255.472C247.858 247.565 245.723 246.082 239.911 244.817C237.758 244.333 235.112 243.889 231.863 243.166C230.513 242.862 229.214 242.367 228.005 241.696C219.175 236.857 216.795 224.209 216.795 224.209C215.428 224.72 214.132 225.275 212.893 225.847C212.525 224.766 212.228 223.661 212.005 222.54C202.292 226.189 196.21 231.357 192.707 235.232C191.322 207.757 218.9 211.703 218.9 211.703C223.54 211.77 228.152 212.445 232.617 213.71C233.63 214.154 234.597 214.598 235.521 215.042C235.965 215.268 236.435 215.512 236.853 215.766C237.27 216.019 237.74 216.267 238.149 216.52C238.446 216.693 238.748 216.88 239.037 217.075C245.103 220.925 249.952 226.418 253.021 232.915C253.064 233.003 253.103 233.093 253.136 233.186C253.276 233.487 253.399 233.795 253.505 234.109C259.747 261.447 240.488 269.265 233.159 271.231Z" fill="#848FDF"/>
<path d="M279.697 392.831C281.748 406.22 284.257 419.392 286.876 426.273H169.138C154.963 386.025 161.685 342.058 161.685 342.058L140.775 342.715C153.352 320.651 148.877 301.996 146.755 295.772C163.181 292.98 179.607 290.787 196.205 290.6C195.762 300.101 206.132 311.022 221.088 308.149C227.153 306.995 234.544 304.598 234.704 293.974L238.606 294.658C244.005 295.546 248.888 296.496 253.518 297.566C265.505 300.327 275.804 303.781 288.638 308.149C270.881 321.295 279.706 351.656 279.706 351.656L280.15 352.668L274.481 351.656C274.481 351.656 276.581 372.481 279.697 392.831Z" fill="#25282A"/>
<ellipse cx="157.543" cy="78.9743" rx="21.2559" ry="21.2559" fill="#848FDF"/>
<path d="M164.53 71.8801C164.231 71.1883 163.829 70.546 163.336 69.9756C161.598 67.9084 158.593 67.4592 156.326 68.9279C154.875 69.8665 153.95 71.4342 153.831 73.1587C151.535 72.3283 148.966 73.1137 147.527 75.0863C146.088 77.0589 146.124 79.7448 147.616 81.6779C149.139 83.6623 151.727 84.9675 154.071 85.7266C155.301 86.1182 156.566 86.3873 157.849 86.5302C158.497 86.6012 162.204 87.0984 162.55 86.5302C164.814 82.9209 166.457 76.2929 164.53 71.8801Z" fill="white"/>
<path d="M113.038 72.111C108.271 72.6429 103.601 73.8383 99.1647 75.6625C98.9072 74.9788 98.6941 74.3307 98.6231 74.1087C98.2671 73.1002 98.0099 72.0594 97.8551 71.0011C97.5843 68.9768 97.6242 66.5617 98.5654 64.7194C99.4686 62.9019 101.466 61.9022 103.462 62.2689C105.459 62.6356 106.971 64.28 107.169 66.2998C108.506 65.7787 110.009 65.9049 111.24 66.6416C113.1 67.7764 113.862 70.0937 113.038 72.111Z" fill="white"/>
<path d="M93.4378 78.5925C92.1217 79.3834 90.861 80.2629 89.6643 81.2251C88.8623 81.8461 88.0918 82.5069 87.3559 83.2051C86.4128 84.1046 85.5825 85.1153 84.8831 86.215C84.2287 87.2385 83.6614 88.3151 83.1873 89.4335C82.4706 91.1435 81.8989 92.9107 81.4781 94.7164C80.6342 98.611 80.1248 102.571 79.9554 106.552C73.5299 103.342 70.1416 96.1472 71.7604 89.1495C73.3792 82.1519 79.5832 77.1757 86.7654 77.1142H87.5601C89.598 77.2118 91.5962 77.7144 93.4378 78.5925Z" fill="#848FDF"/>
<path d="M84.8832 86.215C84.2288 87.2385 83.6615 88.3151 83.1873 89.4335C82.4707 91.1435 81.899 92.9107 81.4782 94.7164C80.5548 93.4334 79.769 91.8974 79.6447 90.3614C79.5571 89.245 79.9379 88.1424 80.6958 87.318C81.4536 86.4936 82.5203 86.0216 83.6401 86.0152C84.0629 86.0099 84.4834 86.0775 84.8832 86.215Z" fill="white"/>
<g opacity="0.72">
<ellipse cx="182.115" cy="64.5951" rx="11.7023" ry="11.7023" fill="#848FDF"/>
<path d="M187.194 66.6816C187.482 66.3845 187.724 66.0464 187.913 65.6783C188.603 64.3604 188.204 62.7344 186.981 61.887C186.202 61.3497 185.216 61.2068 184.317 61.5008C184.267 60.1531 183.33 59.0015 182.021 58.678C180.712 58.3546 179.346 58.9375 178.674 60.1068C177.982 61.301 177.858 62.8903 177.964 64.2444C178.02 64.9525 178.148 65.653 178.346 66.3353C178.444 66.6816 178.963 68.6704 179.318 68.7326C181.627 69.1233 185.347 68.5772 187.194 66.6816Z" fill="white"/>
</g>
<g opacity="0.72">
<ellipse cx="176.899" cy="187.26" rx="8.35493" ry="8.35497" fill="#848FDF"/>
<path d="M180.521 188.765C180.727 188.553 180.899 188.31 181.032 188.046C181.524 187.107 181.24 185.948 180.37 185.342C179.811 184.955 179.102 184.853 178.457 185.067C178.416 184.109 177.748 183.292 176.817 183.061C175.886 182.83 174.914 183.24 174.43 184.068C173.978 184.984 173.801 186.011 173.92 187.025C173.961 187.53 174.053 188.03 174.195 188.517C174.266 188.761 174.639 190.186 174.888 190.226C176.548 190.492 179.203 190.097 180.521 188.765Z" fill="white"/>
</g>
<path d="M162.704 112.882C155.191 109.329 151.98 100.357 155.533 92.8434C159.087 85.3296 168.058 82.1191 175.572 85.6724C183.086 89.2258 186.297 98.1975 182.743 105.711C179.19 113.225 170.218 116.436 162.704 112.882Z" fill="#848FDF"/>
<path d="M182.354 101.895L178.328 110.41C176.574 114.113 172.156 115.7 168.446 113.961L158.235 109.131C154.534 107.375 152.947 102.959 154.684 99.249L154.955 98.6719C157.729 96.4522 162.528 93.4689 164.277 97.5399C166.799 103.4 170.075 101.504 174.266 99.0537C177.782 96.9805 181.982 96.2924 182.354 101.895Z" fill="white"/>
<ellipse cx="166.528" cy="89.6955" rx="3.1431" ry="3.14309" fill="white"/>
<path d="M202.896 159.529C193.003 154.85 188.775 143.038 193.454 133.144C198.133 123.251 209.945 119.024 219.839 123.703C229.732 128.381 233.959 140.194 229.28 150.087C224.602 159.98 212.789 164.207 202.896 159.529Z" fill="#848FDF"/>
<path d="M226 142.667L221.721 151.564C219.86 155.428 215.19 157.08 211.271 155.26L200.489 150.221C196.579 148.382 194.908 143.767 196.748 139.893L197.037 139.291C199.972 136.979 205.042 133.854 206.892 138.107C209.563 144.231 213.025 142.251 217.457 139.689C221.162 137.536 225.608 136.81 226 142.667Z" fill="white"/>
<ellipse cx="207.925" cy="129.002" rx="4.13753" ry="4.13753" fill="white"/>
<path d="M227.206 81.2783C227.822 82.4136 228.271 83.6323 228.538 84.8965C229.499 89.6287 227.902 94.518 224.333 97.7707C222.944 99.0004 221.173 99.9638 219.761 101.251C218.735 102.139 217.98 103.297 217.581 104.594C217.507 105.036 217.329 105.455 217.062 105.815C216.236 106.703 215.432 105.309 214.718 105.056C213.571 104.683 212.328 104.745 211.224 105.229C205.244 107.694 198.355 105.624 194.724 100.271C191.093 94.9182 191.717 87.752 196.219 83.1074C198.394 80.8877 201.244 79.4804 203.992 78.0243C206.416 76.7368 208.827 75.3606 211.455 74.6015C217.643 72.7636 224.218 75.8312 227.206 81.2783Z" fill="#848FDF"/>
<ellipse cx="202.381" cy="94.3701" rx="2.96106" ry="2.96107" fill="white"/>
<circle cx="210.358" cy="90.1039" r="2.96107" fill="white"/>
<ellipse cx="217.843" cy="86.0995" rx="2.96107" ry="2.96108" fill="white"/>
<path d="M319.15 280.687V280.758L318.054 305.965L317.441 319.776C317.441 319.266 317.468 318.737 317.499 318.227C309.921 315.692 300.185 312.087 292.674 309.539C277.89 304.496 266.752 300.62 253.509 297.575C252.71 293.717 251.955 285.442 255.671 273.362C260.999 256.129 262.752 238.642 260.044 235.263C260.018 235.224 259.985 235.191 259.946 235.166C258.02 228.218 252.923 232.715 252.923 232.715C252.923 232.715 252.954 232.786 252.968 232.826C251.907 231.068 250.742 229.375 249.478 227.756C249.52 227.505 249.587 227.258 249.678 227.019C251.316 222.092 260.044 220.906 260.044 220.906C272.821 221.847 279.542 227.543 282.934 235.024C285.921 244.466 284.159 254.703 283.773 264.39C283.617 268.59 283.018 275.045 286.223 278.445C289.184 284.043 296.634 281.624 298.653 281.011C299.311 280.825 301.015 280.709 303.253 280.638C307.812 280.527 314.52 280.612 318.609 280.683C318.808 280.687 318.981 280.687 319.15 280.687Z" fill="#848FDF"/>
<path d="M142.329 54.1226C141.399 54.3298 140.443 54.4016 139.492 54.3356C135.944 54.0556 132.806 51.9289 131.231 48.7376C130.64 47.499 130.343 46.0473 129.699 44.7865C129.279 43.8811 128.613 43.112 127.777 42.5668C127.478 42.4246 127.218 42.213 127.018 41.9497C126.574 41.1861 127.71 40.902 128.034 40.4492C128.529 39.7126 128.739 38.821 128.625 37.9409C128.081 33.1925 130.954 28.7171 135.497 27.2338C140.041 25.7505 145 27.6689 147.363 31.8234C148.491 33.8167 148.904 36.1208 149.374 38.3627C149.792 40.3382 150.262 42.3226 150.262 44.3426C150.302 49.0883 146.791 53.1192 142.329 54.1226Z" fill="#848FDF"/>
<ellipse cx="138.12" cy="33.8789" rx="2.17976" ry="2.17974" fill="white"/>
<ellipse cx="139.514" cy="40.3959" rx="2.17975" ry="2.17975" fill="white"/>
<ellipse cx="140.824" cy="46.5134" rx="2.17973" ry="2.17975" fill="white"/>
<g opacity="0.72">
<ellipse cx="272.297" cy="116.807" rx="16.5678" ry="16.5678" fill="#848FDF"/>
<path d="M272.918 124.545C273.477 124.723 274.059 124.814 274.645 124.816C276.751 124.843 278.548 123.3 278.84 121.215C279.025 119.882 278.573 118.539 277.62 117.588C279.287 116.662 280.141 114.744 279.714 112.885C279.287 111.025 277.682 109.673 275.777 109.566C273.828 109.455 271.742 110.312 270.095 111.306C269.238 111.831 268.435 112.439 267.698 113.122C267.32 113.468 265.136 115.4 265.287 115.883C266.264 119.067 269.331 123.43 272.918 124.545Z" fill="white"/>
</g>
<path d="M279.99 184.428C278.954 185.933 277.704 187.279 276.279 188.423C270.912 192.664 263.71 193.77 257.318 191.335C254.872 190.363 252.528 188.734 249.998 187.784C248.221 187.055 246.275 186.839 244.382 187.162C243.776 187.351 243.134 187.394 242.508 187.287C240.866 186.807 242.109 184.907 241.971 183.842C241.708 182.156 240.838 180.624 239.525 179.536C232.543 173.56 230.733 163.494 235.197 155.461C239.661 147.428 249.165 143.648 257.926 146.422C262.126 147.754 265.718 150.457 269.313 153.001C272.483 155.243 275.746 157.441 278.401 160.246C284.656 166.91 284.971 177.183 279.99 184.428Z" fill="#848FDF"/>
<ellipse cx="247.605" cy="161.414" rx="4.19077" ry="4.1908" fill="white"/>
<ellipse cx="258.086" cy="168.774" rx="4.19081" ry="4.1908" fill="white"/>
<ellipse cx="267.924" cy="175.678" rx="4.19083" ry="4.1908" fill="white"/>
<g opacity="0.54">
<path d="M152.726 60.0669C152.671 60.7906 152.559 61.509 152.393 62.2156L150.537 70.2642C149.969 72.7281 149.33 75.3251 147.567 77.1364C144.282 80.497 138.782 79.729 134.196 78.7079L122.938 76.2085C120.354 75.6314 117.726 75.0454 115.391 73.758C113.056 72.4706 111.067 70.3796 110.507 67.7826C110.112 65.8692 110.538 63.8937 110.951 61.9847L112.705 54.2513C113.269 51.7208 113.908 49.0439 115.733 47.2059C118.987 43.9252 124.376 44.671 128.891 45.6477L140.402 48.1471C147.354 49.6698 153.281 52.8928 152.726 60.0669Z" fill="#848FDF"/>
<path d="M137.202 60.2844C138.182 61.1977 138.6 62.5643 138.3 63.8699C138 65.1754 137.026 66.2218 135.745 66.615L132.314 67.6672L128.887 68.7149C127.603 69.1093 126.206 68.7874 125.225 67.8709C124.243 66.9544 123.826 65.5831 124.132 64.2755L124.935 60.7772L125.739 57.2834C126.041 55.9778 127.016 54.9322 128.298 54.5396C129.579 54.1469 130.972 54.4668 131.954 55.3789L134.578 57.825L137.202 60.2844Z" fill="white"/>
</g>
<g opacity="0.54">
<path d="M279.24 75.5604C279.184 76.2841 279.073 77.0024 278.907 77.7091L277.051 85.771C276.483 88.2349 275.844 90.8319 274.081 92.6388C270.796 96.0038 265.296 95.2314 260.71 94.2148L249.452 91.7109C246.868 91.1382 244.24 90.5478 241.905 89.2648C239.57 87.9818 237.581 85.882 237.021 83.2894C236.626 81.376 237.052 79.4005 237.465 77.4915L239.223 69.7892C239.783 67.2543 240.422 64.5818 242.246 62.7394C245.501 59.4631 250.89 60.2045 255.405 61.1856L266.898 63.6672C273.868 65.1722 279.795 68.3996 279.24 75.5604Z" fill="#848FDF"/>
<path d="M263.715 75.7868C264.695 76.701 265.114 78.068 264.813 79.374C264.513 80.68 263.54 81.7271 262.259 82.1218L258.828 83.1695L255.4 84.2217C254.117 84.616 252.72 84.2942 251.739 83.3777C250.757 82.4612 250.34 81.0899 250.646 79.7823L251.449 76.2884L252.253 72.7946C252.555 71.4891 253.53 70.4435 254.811 70.0508C256.093 69.6582 257.486 69.978 258.468 70.8901L261.092 73.3363L263.715 75.7868Z" fill="white"/>
</g>
<g opacity="0.54">
<path d="M226.114 183.562C226.086 183.899 226.032 184.233 225.954 184.561L225.093 188.321C224.826 189.467 224.529 190.674 223.707 191.518C222.18 193.085 219.619 192.725 217.492 192.25L212.249 191.087C211.032 190.875 209.851 190.491 208.742 189.946C207.624 189.385 206.799 188.372 206.478 187.162C206.357 186.258 206.428 185.338 206.687 184.463L207.486 180.867C207.748 179.691 208.045 178.443 208.898 177.587C210.411 176.06 212.92 176.406 215.02 176.863L220.382 178.026C223.61 178.719 226.371 180.219 226.114 183.562Z" fill="#848FDF"/>
<path d="M218.882 183.664C219.34 184.089 219.535 184.726 219.395 185.335C219.255 185.943 218.8 186.43 218.203 186.612L216.609 187.1L215.011 187.589C214.414 187.775 213.762 187.628 213.304 187.202C212.845 186.777 212.65 186.138 212.791 185.529L213.182 183.882L213.555 182.252C213.693 181.643 214.147 181.153 214.745 180.97C215.343 180.786 215.993 180.937 216.449 181.365L217.67 182.501L218.882 183.664Z" fill="white"/>
</g>
<g opacity="0.54">
<path d="M170.848 27.6726C171.212 27.862 171.562 28.0771 171.895 28.3163L175.624 31.0421C176.77 31.8723 177.964 32.7735 178.506 34.0787C179.513 36.507 177.906 39.1662 176.375 41.2971L172.615 46.5356C171.809 47.7828 170.829 48.9072 169.702 49.874C168.53 50.7619 167.012 51.3568 165.56 51.0594C164.49 50.8463 163.567 50.1715 162.679 49.5544L159.083 46.9751C157.907 46.1316 156.673 45.1994 156.127 43.8675C155.154 41.4703 156.721 38.8643 158.218 36.7645L162.031 31.3928C164.317 28.1521 167.278 25.8125 170.848 27.6726Z" fill="#848FDF"/>
<path d="M167.545 35.7035C168.226 35.4012 169.017 35.4841 169.622 35.9211C170.226 36.3581 170.553 37.0834 170.479 37.8255L170.266 39.8233L170.053 41.821C169.974 42.5661 169.502 43.2121 168.817 43.5153C168.132 43.8185 167.337 43.7328 166.732 43.2904L165.112 42.1095L163.492 40.9331C162.884 40.4924 162.559 39.7606 162.639 39.0145C162.718 38.2683 163.191 37.6218 163.878 37.3194L165.711 36.507L167.545 35.7035Z" fill="white"/>
</g>
<path d="M346.608 362.79C346.606 362.867 346.597 362.944 346.581 363.02C346.575 363.039 346.575 363.059 346.581 363.078C345.957 367.224 344.235 371.128 341.596 374.385C341.565 374.412 341.552 374.456 341.525 374.483C337.467 379.539 331.585 383.189 325.632 385.479C319.55 387.846 313.384 388.8 308.993 388.471H308.895C303.524 388.072 297.628 388.769 292.47 389.737C291.928 389.839 291.386 389.937 290.845 390.052C287.44 390.736 284.079 391.588 280.749 392.529L280.124 392.702L279.706 392.813C276.599 372.463 274.494 351.624 274.494 351.624L337.978 362.905C340.835 363.424 343.766 363.385 346.608 362.79Z" fill="#848FDF"/>
<path d="M216.236 266.055C212.898 269.367 208.427 270.006 204.036 270.983C194.061 273.203 185.697 270.681 185.258 259.214C184.974 251.836 185.755 244.453 190.221 238.327C195.571 230.988 203.788 226.1 211.974 222.531C211.974 222.531 215.73 241.745 232.839 242.58C249.949 243.414 245.785 265.971 225.736 262.211" stroke="black" stroke-width="2"/>
<path d="M229.097 271.817C229.541 271.817 229.949 271.817 230.362 271.786C230.463 271.78 230.564 271.78 230.664 271.786H230.704L231.49 271.715" stroke="black" stroke-width="4.47"/>
<path d="M248.053 224.889C245.248 221.554 241.896 218.721 238.14 216.511C237.722 216.236 237.289 215.984 236.844 215.757C236.4 215.504 235.956 215.259 235.512 215.033C234.575 214.549 233.603 214.092 232.609 213.701C226.738 211.243 220.434 209.986 214.07 210.003C179.833 210.003 189.347 239.627 189.347 239.627" stroke="black" stroke-width="2"/>
<path d="M253.736 297.282C252.555 290.987 254.033 281.189 255.671 273.353C257.141 266.375 258.748 260.963 258.748 260.963C261.172 246.721 261.07 239.086 259.946 235.157C258.02 228.218 252.923 232.715 252.923 232.715" stroke="black" stroke-width="2"/>
<path d="M259.946 235.157C258.02 228.218 252.923 232.715 252.923 232.715C252.042 230.709 250.955 228.8 249.678 227.019C249.163 226.303 248.621 225.605 248.053 224.924C249.576 220.88 253.638 218.469 257.82 218.145C268.799 217.302 279.622 224.569 282.929 235.015C285.917 244.457 284.154 254.695 283.768 264.381C283.613 268.581 283.013 275.036 286.219 278.437C286.387 278.61 286.547 278.765 286.729 278.92C289.393 281.216 293.637 281.344 298.667 281.003C300.132 280.9 301.672 280.776 303.266 280.63C308.149 280.186 313.477 279.804 318.622 280.674L319.132 280.758C318.977 289.149 318.462 297.566 318.036 305.956C317.809 310.041 317.592 314.129 317.481 318.218C309.903 315.683 300.167 312.078 292.656 309.53L288.652 308.149C275.817 303.777 265.536 300.327 253.531 297.566C248.901 296.496 244.018 295.542 238.619 294.658L232.879 293.65C232.085 293.512 231.506 292.819 231.512 292.012V271.702C239.283 271.042 246.297 266.784 250.468 260.195C256.022 251.263 256.55 242.122 253.514 234.1C253.406 233.78 253.28 233.466 253.136 233.159C253.103 233.067 253.064 232.976 253.021 232.888C253.021 232.862 252.994 232.817 252.981 232.786" stroke="black" stroke-width="2"/>
<path d="M111.768 308.149C113.544 294.387 114.361 280.39 116.083 266.548" stroke="black" stroke-width="2"/>
<path d="M116.367 264.381C116.851 260.635 117.424 256.888 118.143 253.185C118.17 253.003 118.201 252.83 118.241 252.661C118.64 250.468 119.084 248.289 119.572 246.109C121.055 239.587 126.232 234.815 129.912 229.501L130.138 228.933C138.078 217.382 142.474 203.764 142.786 189.751C142.875 184.681 142.675 174.657 136.864 172.588C133.601 171.42 130.138 173.702 128.331 176.308C127.589 177.384 126.992 178.553 126.556 179.784" stroke="black" stroke-width="2"/>
<path d="M169.138 426.273C154.963 386.025 161.685 342.058 161.685 342.058L140.779 342.715L85.6333 344.464C79.08 344.68 72.7548 342.045 68.2937 337.24C63.8325 332.435 61.6736 325.931 62.3753 319.412L78.7566 259.609" stroke="black" stroke-width="2"/>
<path d="M79.5513 256.688L80.9896 251.449L82.6588 245.51" stroke="black" stroke-width="4.47"/>
<path d="M84.0795 240.395L85.034 236.964C86.2983 232.407 85.9854 227.558 84.1461 223.202L82.2505 218.673C81.0119 214.9 80.6257 213.075 82.1795 209.386C82.9146 207.645 83.9466 206.046 85.2293 204.658C88.9717 200.53 94.2413 198.479 99.6707 197.777C105.1 197.076 111.093 197.622 115.462 201.142C118.427 203.531 121.233 209.217 119.293 212.933C117.886 215.637 114.907 216.423 112.372 215.455C111.485 215.123 110.686 214.591 110.037 213.901C107.045 210.767 100.714 210.083 98.4943 213.133" stroke="black" stroke-width="2"/>
<path d="M317.357 323.203C317.357 322.089 317.397 320.984 317.441 319.856V319.767C317.441 319.257 317.468 318.729 317.499 318.218" stroke="black" stroke-width="2"/>
<path d="M311.661 216.569C306.462 219.348 300.079 226.336 310.848 242.762C314.4 248.173 318.151 254.024 318.68 260.706C319.172 267.382 319.329 274.079 319.15 280.772" stroke="black" stroke-width="2"/>
<path d="M261.243 349.294L273.602 351.487L274.49 351.642L280.159 352.654L337.964 362.923C340.826 363.443 343.761 363.404 346.608 362.807V362.807C356.778 360.666 364.19 351.884 364.592 341.498L356.051 271.573L354.159 256.648C353.559 251.954 354.567 247.195 357.018 243.148L359.553 238.93C359.553 238.93 363.966 232.493 356.246 232.023C352.086 231.778 347.758 232.911 343.998 234.615C341.849 235.57 338.83 237.279 337.618 239.627C337.126 240.516 336.959 241.55 337.148 242.548C338.035 247.134 343.807 249.07 347.616 247.134" stroke="black" stroke-width="2"/>
<path d="M358.794 232.356C358.794 232.356 363.158 229.759 360.206 223.37C359.158 221.097 355.984 219.521 349.152 219.956C330.95 221.115 323.82 239.832 337.64 239.627" stroke="black" stroke-width="2"/>
<path d="M354.648 219.925C358.687 214.358 351.54 209.031 346.333 209.213C341.423 209.386 336.455 211.202 332.153 213.475C326.169 216.636 318.444 222.758 320.655 230.504C321.308 232.786 326.471 235.605 329.845 233.976" stroke="black" stroke-width="2"/>
<path d="M320.273 227.752C320.273 227.752 320.273 227.752 320.273 227.779C317.454 233.164 304.11 227.779 311.643 216.569C313.403 214.089 315.513 211.878 317.907 210.003C336.695 194.652 340.894 210.261 340.868 209.333" stroke="black" stroke-width="2"/>
<path d="M328.451 234.1C328.451 234.1 335.323 238.984 333.214 247.121" stroke="black" stroke-width="2"/>
<path d="M86.5035 195.038C86.0595 193.289 86.1173 191.083 87.1561 188.259C88.6521 184.201 93.0116 181.538 97.2557 179.784C98.8051 179.145 100.363 178.617 101.695 178.204C106.325 176.783 111.409 176.029 116.345 176.526C118.009 176.687 119.654 177.002 121.26 177.467C123.111 178.001 124.884 178.78 126.529 179.784C130.587 182.279 133.335 186.066 134.986 191.038C136.425 195.327 136.979 200.423 133.419 203.1" stroke="black" stroke-width="2"/>
<path d="M133.743 260.164L132.434 266.503C132.346 266.934 132.087 267.311 131.716 267.547C131.345 267.783 130.894 267.858 130.467 267.755C125.428 266.561 121.011 265.451 116.367 264.381C114.063 263.84 111.684 263.329 109.162 262.801C99.3068 260.763 89.4646 258.464 79.5559 256.688C75.4139 255.947 71.2675 255.303 67.0945 254.819C64.7594 254.548 62.3931 254.437 60.0447 254.264C59.5314 254.252 59.0339 254.083 58.6197 253.78C56.4 252.155 58.6197 246.872 59.1036 244.679C59.1036 244.653 59.1036 244.622 59.1036 244.595C59.4454 242.912 69.1144 243.396 82.6324 245.505C87.347 246.246 92.5278 247.17 97.9572 248.284C105.589 249.851 112.47 251.543 118.094 253.167C119.062 253.452 119.99 253.722 120.873 253.993H120.9C122.023 254.348 123.08 254.69 124.074 255.032C130.356 257.176 133.974 259.041 133.743 260.164Z" fill="#848FDF"/>
<path fill-rule="evenodd" clip-rule="evenodd" d="M133.743 260.164L132.434 266.503C132.346 266.934 132.087 267.311 131.716 267.547C131.345 267.783 130.894 267.858 130.467 267.755C125.428 266.561 121.011 265.451 116.367 264.381C114.063 263.84 111.684 263.329 109.162 262.801C99.3068 260.763 89.4646 258.464 79.5559 256.688C75.4139 255.947 71.2675 255.303 67.0945 254.819C64.7594 254.548 62.3931 254.437 60.0447 254.264C59.5314 254.252 59.0339 254.083 58.6197 253.78C56.4 252.155 58.6197 246.872 59.1036 244.679C59.1036 244.653 59.1036 244.622 59.1036 244.595C59.4454 242.912 69.1144 243.396 82.6324 245.505C87.347 246.246 92.5278 247.17 97.9572 248.284C105.589 249.851 112.47 251.543 118.094 253.167C119.062 253.452 119.99 253.722 120.873 253.993H120.9C122.023 254.348 123.08 254.69 124.074 255.032C130.356 257.176 133.974 259.041 133.743 260.164V260.164Z" stroke="black" stroke-width="2"/>
<path d="M119.919 209.519L121.18 212.045C122.764 213.781 124.958 214.878 127.963 214.123C133.859 212.658 134.44 207.77 133.415 203.1C133.238 202.252 133.01 201.416 132.731 200.596C131.35 196.476 129.215 193.16 126.223 190.741C124.097 189.019 121.64 187.753 119.004 187.02C116.857 186.4 114.641 186.047 112.407 185.968C108.018 185.817 103.635 186.418 99.4487 187.744C95.2624 189.027 89.5355 191.233 86.4901 195.02C85.808 195.852 85.268 196.791 84.8919 197.799C83.9552 200.347 83.7954 202.412 84.1239 204.081L84.4391 205.635" stroke="black" stroke-width="2"/>
<path d="M121.553 177.565L123.018 171.496L124.758 164.348C125.254 162.265 124.863 160.069 123.676 158.286C122.49 156.503 120.616 155.293 118.503 154.946C118.093 154.878 117.679 154.845 117.264 154.848C113.644 154.839 110.51 157.361 109.744 160.899C109.3 162.968 108.745 165.485 108.132 168.322C107.551 171.012 106.907 173.96 106.223 177.067" stroke="black" stroke-width="2"/>
<path d="M104.163 186.608V186.594" stroke="black" stroke-width="2"/>
<path d="M98.5077 213.129C98.0637 215.308 97.8107 216.68 97.824 216.915V216.946C95.9017 229.865 90.2459 236.773 84.0929 240.373C80.3295 242.514 76.1263 243.767 71.8047 244.036" stroke="black" stroke-width="2"/>
<path d="M112.407 215.45C112.407 215.45 102.099 242.926 118.218 252.666C119.071 253.178 119.961 253.623 120.882 253.998C121.985 254.455 123.124 254.822 124.287 255.094" stroke="black" stroke-width="2"/>
<path d="M131.581 267.627C131.581 267.627 131.652 268.896 116.083 266.548C110.756 265.749 103.595 264.523 93.9661 262.672C87.9285 261.518 82.912 260.492 78.7567 259.609C56.9237 254.939 58.6152 253.785 58.6152 253.785" stroke="black" stroke-width="2"/>
<path d="M175.447 113.184C172.126 130.787 161.187 149.317 147.922 161.21C142.497 166.093 136.189 169.498 129.379 170.839C127.289 171.264 125.163 171.482 123.031 171.491L124.758 164.348C125.633 160.718 123.787 156.981 120.372 155.47C119.774 155.213 119.148 155.027 118.507 154.915C118.096 154.847 117.68 154.814 117.264 154.817C113.636 154.811 110.499 157.346 109.744 160.895C109.473 162.191 109.144 163.66 108.789 165.267C91.9194 154.116 84.6033 130.263 85.4157 110.894C85.6732 104.456 86.0283 95.9816 88.8474 89.4291C89.7986 87.0937 91.2189 84.9784 93.0204 83.2139C101.011 75.6936 111.95 72.2619 123.231 71.7469C131.889 72.1553 140.41 74.0692 148.411 77.4027C163.327 83.7023 178.892 94.8718 175.447 113.184Z" fill="#848FDF"/>
<path d="M175.447 113.184C172.126 130.787 161.187 149.317 147.922 161.21C142.497 166.093 136.189 169.498 129.379 170.839L130.955 164.348C131.452 162.265 131.06 160.069 129.874 158.286C128.687 156.503 126.813 155.293 124.7 154.946C124.291 154.878 123.876 154.845 123.461 154.848C122.391 154.844 121.332 155.066 120.354 155.501C119.756 155.244 119.13 155.058 118.489 154.946C118.078 154.878 117.663 154.845 117.246 154.848C113.634 154.847 110.51 157.365 109.744 160.895C109.473 162.191 109.144 163.66 108.789 165.267C91.9194 154.116 84.6033 130.263 85.4157 110.894C85.6732 104.456 86.0283 95.9816 88.8474 89.4291C89.7986 87.0937 91.2189 84.9784 93.0204 83.2139C101.011 75.6936 111.95 72.2619 123.231 71.7469C131.889 72.1553 140.41 74.0692 148.411 77.4027C163.327 83.7023 178.892 94.8718 175.447 113.184Z" fill="#848FDF"/>
<path fill-rule="evenodd" clip-rule="evenodd" d="M175.447 113.189C172.131 130.791 161.192 149.321 147.923 161.214C140.82 167.58 132.247 171.451 123.018 171.496L124.758 164.348C125.255 162.265 124.863 160.069 123.677 158.286C122.49 156.503 120.616 155.293 118.503 154.946C118.094 154.878 117.679 154.845 117.264 154.848C113.644 154.839 110.51 157.361 109.744 160.899C109.3 162.968 108.745 165.485 108.132 168.322C87.3116 159.092 78.3218 132.274 79.223 110.898C79.4761 104.461 79.8312 95.9861 82.6547 89.4335C83.6042 87.0973 85.0247 84.9816 86.8277 83.2184C102.548 68.4352 129.597 69.4562 148.411 77.4072C163.323 83.7067 178.892 94.8718 175.447 113.189V113.189Z" stroke="black" stroke-width="2"/>
<path d="M175.358 113.824C178.95 118.121 182.319 125.322 179.354 136.021C178.898 137.709 178.245 139.337 177.409 140.873C172.695 149.308 163.594 150.786 157.458 150.697" stroke="black" stroke-width="2"/>
<path d="M172.623 122.822C175.731 126.542 178.603 132.434 177.405 140.882C177.214 142.238 176.934 143.58 176.566 144.899C172.126 160.846 155.829 160.06 150.236 159.283" stroke="black" stroke-width="2"/>
<path d="M85.5891 144.815C82.1175 145.53 62.4732 141.499 62.2335 125.122C62.163 122.902 62.5813 120.694 63.4587 118.654C66.5352 111.719 74.6505 109.526 79.3251 108.812" stroke="black" stroke-width="2"/>
<path d="M82.0552 136.607C78.5037 136.824 59.6318 130.09 61.6784 113.837C61.9225 111.636 62.6452 109.514 63.796 107.622C67.7914 101.18 76.1553 100.146 80.8788 100.075" stroke="black" stroke-width="2"/>
<path d="M161.685 342.062C161.685 342.062 162.089 338.977 164.309 332.007" stroke="black" stroke-width="2"/>
<path d="M234.695 293.948V293.979C234.535 304.593 227.148 307 221.079 308.154C206.123 311.013 195.739 300.105 196.197 290.605" stroke="black" stroke-width="2"/>
<path d="M199.034 235.543C199.034 235.543 199.477 240.426 195.229 246.726C194.092 248.422 198.026 249.119 198.962 249.434" stroke="black" stroke-width="2"/>
<ellipse cx="209.73" cy="242.398" rx="9.13628" ry="7.42711" transform="rotate(-60 209.73 242.398)" stroke="black" stroke-width="2"/>
<ellipse cx="192.077" cy="236.746" rx="9.16775" ry="7.45269" transform="rotate(-60.1135 192.077 236.746)" stroke="black" stroke-width="2"/>
<path fill-rule="evenodd" clip-rule="evenodd" d="M185.498 234.242C187.105 231.437 189.826 229.803 192.392 229.803V229.807C193.365 229.801 194.322 230.052 195.167 230.535C198.292 232.311 199.029 236.906 196.809 240.746C195.198 243.547 192.476 245.185 189.911 245.185C188.937 245.192 187.979 244.939 187.136 244.453C184.011 242.677 183.278 238.087 185.498 234.242ZM194.505 231.69C193.863 231.319 193.133 231.128 192.392 231.135C190.195 231.135 187.975 232.613 186.643 234.895C185.738 236.398 185.377 238.165 185.618 239.903C185.786 241.312 186.589 242.568 187.797 243.312C188.44 243.681 189.17 243.871 189.91 243.862C192.108 243.862 194.328 242.389 195.66 240.102C196.564 238.601 196.926 236.835 196.685 235.099C196.519 233.689 195.715 232.433 194.505 231.69Z" fill="white"/>
<path d="M198.976 237.155C198.976 237.155 200.307 235.17 203.313 238.682" stroke="black" stroke-width="4.47"/>
<ellipse rx="2.15755" ry="1.82903" transform="matrix(0.60682 -0.794839 0.794838 0.606822 210.59 240.895)" fill="#25282A"/>
<ellipse rx="2.15755" ry="1.82903" transform="matrix(0.606823 -0.794837 0.79484 0.606819 195.613 236.583)" fill="#25282A"/>
<path d="M208.09 257.349C198.998 265.074 194.226 258.193 194.226 258.193" stroke="black" stroke-width="2"/>
<path d="M111.768 301.752C119.63 300.345 127.563 299.244 135.355 297.806C139.155 297.107 142.952 296.429 146.746 295.772C163.651 292.896 180.53 290.658 197.622 290.587C199.328 290.588 200.774 289.33 201.009 287.639L201.324 285.273L203.317 270.521" stroke="black" stroke-width="2"/>
<path d="M231.49 271.702V271.631V271.276" stroke="black" stroke-width="4.47"/>
<path d="M58.584 426.273H155.962H166.976H261.327H279.005H396.844" stroke="black" stroke-width="4.47"/>
<path d="M274.485 351.642C274.485 351.642 276.581 372.481 279.697 392.831C281.748 406.22 284.256 419.392 286.876 426.273" stroke="black" stroke-width="2"/>
<path d="M279.697 392.831L280.11 392.72L280.741 392.547C284.07 391.606 287.431 390.771 290.836 390.07C291.377 389.954 291.919 389.857 292.461 389.755C296.257 389.054 300.107 388.679 303.967 388.631C305.677 388.631 307.315 388.574 308.882 388.489H308.98C315.545 388.116 321.033 387.064 325.618 385.497C333.108 382.949 338.164 379.033 341.511 374.501C341.538 374.474 341.551 374.43 341.583 374.403C344.018 371.025 345.716 367.172 346.568 363.096C346.561 363.077 346.561 363.057 346.568 363.038L346.612 362.825" stroke="black" stroke-width="2"/>
</svg>
