<svg id="success" viewBox="0 0 337 404" fill="none" xmlns="http://www.w3.org/2000/svg">
<path d="M242.082 401.238C257.5 401.682 273.06 390.858 283.298 380.297C314.817 347.765 332.078 301.236 334.08 256.371C335.033 235.576 331.919 214.794 324.913 195.192C314.982 167.534 288.843 153.71 263.973 173.776C224.049 205.966 165.316 139.184 86.6323 159.233C78.5881 161.295 70.7564 164.112 63.2411 167.645C61.0185 168.681 58.8639 169.809 56.7773 171.028" stroke="#FFDC8E" stroke-width="4"/>
<path d="M54.8864 172.147C47.6562 176.604 41.1386 182.125 35.5528 188.524C22.1547 203.787 9.80434 224.785 11.0429 245.726C12.0595 262.835 21.7818 276.22 33.9902 287.456C45.7235 298.27 66.7307 307.167 69.0969 324.827C72.0092 346.54 49.1951 362.176 39.5572 378.988C33.8748 388.918 38.7581 401.717 51.3038 401.273" stroke="#FFDC8E" stroke-width="4"/>
<mask id="mask0_1897:8466" style="mask-type:alpha" maskUnits="userSpaceOnUse" x="0" y="155" width="334" height="247">
<path fill-rule="evenodd" clip-rule="evenodd" d="M97.9127 400.625C99.1469 369.212 39.6989 383.236 18.4031 367.947C-13.0545 345.363 5.97277 277.059 11.7174 240.687C16.6007 209.664 33.8611 181.225 62.948 167.641C153.512 125.347 219.885 209.078 263.675 173.772C288.536 153.719 314.684 167.53 324.624 195.196C338.315 233.313 336.122 281.822 321.286 318.421C308.438 350.118 289.704 400.603 250.397 401.273L97.9127 400.625Z" fill="white"/>
</mask>
<g mask="url(#mask0_1897:8466)">
<path d="M36.0224 277.041L35.8359 281.614H35.9292V288.845H45.576V287.704L45.1365 277.041L36.0224 277.041Z" fill="#FFDC8E"/>
<path d="M31.5476 263.363C34.1754 266.112 35.7572 269.695 36.0181 273.49H45.1366C45.3721 270.028 46.7154 266.735 48.9678 264.096C52.0926 260.49 56.6268 258.416 61.3981 258.409H64.1905L64.7277 245.224C65.0084 240.729 63.4101 236.318 60.3144 233.047C57.2187 229.775 52.9035 227.936 48.3995 227.968H32.7507C28.2492 227.929 23.9337 229.761 20.8359 233.027C17.7381 236.293 16.1364 240.7 16.4137 245.193L16.9553 258.409H19.7476C24.1881 258.402 28.4432 260.188 31.5476 263.363Z" fill="#FFDC8E"/>
<path d="M93.3583 277.041L93.1719 281.614H93.2651V288.845H102.912V287.704L102.472 277.041L93.3583 277.041Z" fill="#FFDC8E"/>
<path d="M88.8816 263.363C91.5142 266.11 93.0995 269.694 93.3609 273.489H102.479C102.706 270.032 104.038 266.738 106.28 264.096C109.415 260.483 113.966 258.411 118.75 258.418H121.542L122.079 245.233C122.36 240.737 120.762 236.327 117.666 233.056C114.57 229.784 110.255 227.945 105.751 227.977H90.0846C85.5832 227.937 81.2677 229.77 78.1699 233.036C75.0721 236.302 73.4704 240.709 73.7476 245.202L74.2715 258.409H77.0683C81.5137 258.396 85.7748 260.184 88.8816 263.363Z" fill="#FFDC8E"/>
<path d="M150.692 277.041L150.506 281.614H150.599V288.845H160.246V287.704L159.811 277.041L150.692 277.041Z" fill="#FFDC8E"/>
<path d="M146.217 263.363C148.847 266.111 150.429 269.695 150.688 273.489H159.806C160.036 270.031 161.371 266.737 163.615 264.096C166.751 260.483 171.302 258.411 176.086 258.418H178.878L179.415 245.233C179.696 240.737 178.098 236.327 175.002 233.056C171.906 229.784 167.591 227.945 163.087 227.977H147.421C142.919 227.937 138.604 229.77 135.506 233.036C132.408 236.302 130.806 240.709 131.084 245.202L131.625 258.418H134.422C138.86 258.408 143.114 260.191 146.217 263.363Z" fill="#FFDC8E"/>
<path d="M208.026 277.041L207.84 281.614H207.933V288.845H217.58V287.704L217.145 277.041L208.026 277.041Z" fill="#FFDC8E"/>
<path d="M203.551 263.363C206.181 266.111 207.763 269.695 208.022 273.489H217.14C217.37 270.031 218.705 266.737 220.949 264.096C224.086 260.484 228.636 258.412 233.42 258.418H236.217L236.749 245.233C237.03 240.737 235.432 236.327 232.336 233.056C229.24 229.784 224.925 227.945 220.421 227.977H204.755C200.253 227.937 195.938 229.77 192.84 233.036C189.742 236.302 188.14 240.709 188.418 245.202L188.959 258.418H191.756C196.194 258.408 200.448 260.191 203.551 263.363Z" fill="#FFDC8E"/>
<path d="M265.362 277.041L265.176 281.614H265.269V288.845H274.916V287.704L274.481 277.041L265.362 277.041Z" fill="#FFDC8E"/>
<path d="M260.887 263.363C263.517 266.111 265.099 269.695 265.358 273.489H274.49C274.715 270.032 276.046 266.739 278.285 264.096C281.423 260.482 285.975 258.41 290.76 258.418H293.552L294.085 245.233C294.366 240.737 292.768 236.327 289.672 233.056C286.576 229.784 282.261 227.945 277.757 227.977H262.09C257.589 227.937 253.274 229.77 250.176 233.036C247.078 236.302 245.476 240.709 245.754 245.202L246.295 258.418H249.092C253.53 258.408 257.784 260.191 260.887 263.363Z" fill="#FFDC8E"/>
<path d="M322.696 277.041L322.51 281.614H322.603V288.846H332.25V281.614H345.803C348.302 281.614 350.356 279.641 350.456 277.143L350.545 274.791C349.351 276.174 347.63 276.991 345.803 277.041H322.696Z" fill="#FFDC8E"/>
<path d="M318.221 263.363C320.851 266.111 322.433 269.695 322.692 273.49H345.803C348.301 273.489 350.354 271.519 350.456 269.024L351.419 245.224C351.701 240.728 350.103 236.317 347.007 233.045C343.911 229.773 339.596 227.934 335.091 227.968H319.424C314.923 227.929 310.608 229.761 307.51 233.027C304.412 236.293 302.81 240.7 303.087 245.193L303.629 258.409H306.426C310.865 258.401 315.119 260.188 318.221 263.363Z" fill="#FFDC8E"/>
<path d="M36.0224 337.918L35.8359 342.491H35.9292V349.723H45.576V348.582L45.1365 337.918L36.0224 337.918Z" fill="#FFDC8E"/>
<path d="M31.5476 324.236C34.1748 326.988 35.7563 330.572 36.0181 334.367H45.1366C45.3703 330.903 46.7137 327.606 48.9678 324.964C52.0931 321.36 56.6278 319.289 61.3981 319.286H64.1905L64.7277 306.101C65.0084 301.606 63.4101 297.196 60.3144 293.924C57.2187 290.653 52.9035 288.813 48.3995 288.845H32.7507C28.2492 288.806 23.9337 290.638 20.8359 293.905C17.7381 297.171 16.1364 301.577 16.4137 306.07L16.9553 319.286H19.7476C24.1871 319.279 28.4416 321.064 31.5476 324.236Z" fill="#FFDC8E"/>
<path d="M93.3583 337.918L93.1719 342.491H93.2651V349.723H102.912V348.582L102.472 337.918L93.3583 337.918Z" fill="#FFDC8E"/>
<path d="M88.8816 324.236C91.5136 326.985 93.0986 330.57 93.3609 334.367H102.479C102.707 330.905 104.042 327.608 106.288 324.964C109.423 321.35 113.974 319.277 118.759 319.286H121.551L122.088 306.101C122.369 301.606 120.771 297.196 117.675 293.924C114.579 290.653 110.264 288.813 105.76 288.845H90.0846C85.5832 288.806 81.2677 290.638 78.1699 293.905C75.0721 297.171 73.4704 301.577 73.7476 306.07L74.2715 319.286H77.0683C81.5126 319.275 85.7729 321.06 88.8816 324.236Z" fill="#FFDC8E"/>
<path d="M150.692 337.918L150.506 342.491H150.599V349.723H160.246V348.582L159.811 337.918L150.692 337.918Z" fill="#FFDC8E"/>
<path d="M146.217 324.236C148.846 326.987 150.428 330.571 150.688 334.367H159.806C160.034 330.905 161.369 327.608 163.615 324.964C166.75 321.35 171.302 319.277 176.086 319.286H178.878L179.415 306.101C179.696 301.606 178.098 297.196 175.002 293.924C171.906 290.653 167.591 288.813 163.087 288.845H147.421C142.919 288.806 138.604 290.638 135.506 293.905C132.408 297.171 130.806 301.577 131.084 306.07L131.625 319.286H134.422C138.86 319.28 143.113 321.064 146.217 324.236Z" fill="#FFDC8E"/>
<path d="M208.026 337.918L207.84 342.491H207.933V349.723H217.58V348.582L217.145 337.918L208.026 337.918Z" fill="#FFDC8E"/>
<path d="M203.551 324.236C206.18 326.987 207.762 330.571 208.022 334.367H217.14C217.368 330.905 218.703 327.608 220.949 324.964C224.084 321.35 228.636 319.278 233.42 319.286H236.217L236.749 306.101C237.03 301.606 235.432 297.196 232.336 293.924C229.24 290.653 224.925 288.813 220.421 288.845H204.755C200.253 288.806 195.938 290.638 192.84 293.905C189.742 297.171 188.14 301.577 188.418 306.07L188.959 319.286H191.756C196.194 319.28 200.447 321.064 203.551 324.236Z" fill="#FFDC8E"/>
<path d="M265.362 337.918L265.176 342.491H265.269V349.723H274.916V348.582L274.481 337.918L265.362 337.918Z" fill="#FFDC8E"/>
<path d="M260.887 324.236C263.516 326.987 265.098 330.571 265.358 334.367H274.49C274.717 330.905 276.053 327.608 278.299 324.964C281.435 321.35 285.988 319.277 290.773 319.286H293.566L294.099 306.101C294.379 301.606 292.781 297.196 289.685 293.924C286.59 290.653 282.274 288.813 277.77 288.845H262.09C257.589 288.806 253.274 290.638 250.176 293.905C247.078 297.171 245.476 301.577 245.754 306.07L246.295 319.286H249.092C253.53 319.28 257.783 321.064 260.887 324.236Z" fill="#FFDC8E"/>
<path d="M322.696 337.919L322.51 342.491H322.603V349.723H332.25V342.491H345.803C348.302 342.491 350.356 340.518 350.456 338.021L350.545 335.668C349.351 337.052 347.63 337.869 345.803 337.919H322.696Z" fill="#FFDC8E"/>
<path d="M318.221 324.236C320.85 326.987 322.432 330.571 322.692 334.367H345.803C348.301 334.367 350.354 332.396 350.456 329.901L351.419 306.101C351.701 301.606 350.103 297.195 347.007 293.923C343.911 290.651 339.596 288.812 335.091 288.845H319.424C314.923 288.806 310.608 290.638 307.51 293.905C304.412 297.171 302.81 301.577 303.087 306.07L303.629 319.286H306.426C310.864 319.28 315.117 321.064 318.221 324.236Z" fill="#FFDC8E"/>
</g>
<path d="M71.8898 146.385C64.1652 140.472 59.1132 134.106 60.6048 132.179C62.0964 130.253 69.5413 133.467 77.2703 139.385C84.9993 145.302 90.0291 151.655 88.5508 153.591C88.5233 153.633 88.4849 153.666 88.4398 153.688C86.7395 155.384 79.4323 152.174 71.8898 146.385Z" fill="#FFB81C"/>
<path d="M92.6962 170.829C87.7773 174.322 80.7852 174.646 75.0762 172.604C82.8312 169.45 88.0574 162.089 88.4787 153.728V153.697C92.6296 151.442 97.0068 153.719 98.5828 157.941C100.549 163.322 96.9136 167.867 92.6962 170.829Z" fill="#FFB81C"/>
<path d="M60.533 132.201C56.3146 133.521 52.6071 136.112 49.9184 139.62C47.5819 142.658 46.1122 146.272 45.6655 150.079C42.185 145.107 40.7555 138.328 42.8731 132.663C44.6489 127.829 48.1072 123.096 53.794 123.642C58.2512 124.033 61.5852 127.642 60.533 132.201Z" fill="#FFB81C"/>
<path d="M56.613 171.472L41.8653 190.695C41.1564 191.621 40.0071 192.099 38.8505 191.948C37.6938 191.797 36.7056 191.041 36.2579 189.964C35.8102 188.886 35.9712 187.652 36.6801 186.726L51.41 167.499L56.613 171.472Z" fill="#FFB81C"/>
<path d="M49.0658 202.624C47.1746 205.096 39.8807 202.699 32.7776 197.256C25.6746 191.814 21.4438 185.399 23.3528 182.926C25.0176 180.76 30.7932 182.322 36.964 186.375L36.6976 186.726C35.9084 187.642 35.6909 188.92 36.1322 190.046C36.5736 191.172 37.6015 191.962 38.8032 192.098C40.0049 192.234 41.1833 191.694 41.8651 190.695L42.1314 190.349C47.6984 195.259 50.7439 200.457 49.0658 202.624Z" fill="#FFB81C"/>
<path d="M80.2875 211.458C78.5292 212.285 76.5384 212.478 74.6539 212.004C73.1211 211.491 71.8098 210.47 70.9381 209.109C66.6852 209.069 64.1813 206.21 63.1425 202.681C62.8007 202.605 62.3612 202.49 62.0726 202.392C59.3024 201.274 57.6332 198.082 56.5944 195.436C56.1993 193.882 56.1105 192.146 57.0073 190.783C57.5848 189.906 58.4447 189.253 59.4445 188.932C60.4478 188.63 61.5088 188.741 62.5254 188.63C64.7451 188.346 66.805 187.458 68.27 185.713C72.19 181.056 80.7003 182.046 82.2763 192.199C83.8523 202.352 82.6226 210.046 87.7634 213.002C87.7188 213.032 87.6712 213.058 87.6214 213.078C85.4816 213.597 82.7513 213.562 80.2875 211.458Z" fill="#FFDC8E"/>
<path d="M11.1443 150.603C10.2986 152.348 10.0837 154.332 10.5361 156.218C11.0283 157.759 12.0365 159.082 13.3907 159.965C13.3907 164.223 16.2141 166.753 19.7301 167.832C19.8056 168.174 19.9166 168.618 20.0098 168.906C21.0975 171.685 24.2716 173.39 26.9042 174.46C28.458 174.868 30.1894 174.979 31.5611 174.096C32.4461 173.529 33.1091 172.674 33.439 171.676C33.7542 170.678 33.6521 169.617 33.7764 168.6C34.0827 166.38 34.9928 164.334 36.7552 162.891C41.4521 159.024 40.5554 150.487 30.4202 148.814C20.2851 147.14 12.5649 148.281 9.67933 143.109C9.64943 143.154 9.62414 143.201 9.60386 143.251C9.06225 145.386 9.06669 148.112 11.1443 150.603Z" fill="#FFDC8E"/>
<path fill-rule="evenodd" clip-rule="evenodd" d="M88.4795 153.697V153.728C88.0635 162.082 82.8509 169.44 75.108 172.604L74.8638 172.702C73.2419 173.336 71.5505 173.775 69.8251 174.011C63.2671 174.869 56.6792 172.66 51.9632 168.023C47.2472 163.386 44.9279 156.837 45.6748 150.265C45.697 150.216 45.697 150.132 45.697 150.079C46.1436 146.272 47.6134 142.657 49.9499 139.619C52.6386 136.111 56.3461 133.52 60.5645 132.201C60.5734 132.161 60.5956 132.161 60.6311 132.161C60.5432 132.288 60.4772 132.429 60.4358 132.578C59.8276 134.909 64.7109 140.853 71.9116 146.381C79.4409 152.134 86.7037 155.357 88.4795 153.697ZM61.9228 161.066L68.4487 152.8H68.4354C68.7973 152.337 68.8206 151.694 68.4931 151.206C68.1586 150.709 67.5256 150.509 66.966 150.722L62.278 152.369C61.7885 152.494 61.4117 152.885 61.305 153.379C61.1983 153.872 61.38 154.384 61.7743 154.699C62.1685 155.015 62.7074 155.081 63.1658 154.869L63.4944 154.762L59.8141 159.437L57.7009 157.803C57.4183 157.581 57.0581 157.483 56.702 157.531C56.3459 157.578 56.0241 157.768 55.8098 158.056C55.3675 158.643 55.4847 159.478 56.0717 159.921L58.9706 162.207C59.0061 162.229 59.0405 162.259 59.0749 162.289C59.1093 162.319 59.1437 162.349 59.1793 162.371L62.5399 164.915C62.6762 165.005 62.8261 165.072 62.9838 165.115C63.5036 165.27 64.0655 165.094 64.4044 164.671C64.6263 164.392 64.7273 164.036 64.6847 163.682C64.6422 163.329 64.4597 163.007 64.178 162.789L61.9228 161.066Z" fill="#FFDC8E"/>
<path d="M144.593 344.933C138.352 347.721 132.731 348.702 132.034 347.13C131.337 345.559 135.825 342.047 142.063 339.259C148.3 336.471 153.912 335.494 154.613 337.039C154.623 337.073 154.623 337.108 154.613 337.141C155.119 338.78 150.693 342.229 144.593 344.933Z" fill="#FFB81C"/>
<path d="M166.648 340.28C167.158 344.484 165.014 348.91 161.84 351.747C162.488 345.907 159.696 340.219 154.679 337.159H154.652C154.652 333.839 157.525 331.899 160.659 332.343C164.632 332.906 166.226 336.698 166.648 340.28Z" fill="#FFB81C"/>
<path d="M132.03 347.188C131.434 350.233 131.79 353.387 133.051 356.222C134.143 358.684 135.883 360.803 138.085 362.353C133.85 362.837 129.184 361.465 126.401 358.242C124.012 355.516 122.25 351.805 124.492 348.475C126.214 345.861 129.571 345.008 132.03 347.188Z" fill="#FFB81C"/>
<path d="M154.956 362.766L161.886 378.303C162.361 379.452 161.836 380.771 160.7 381.278C159.564 381.784 158.232 381.294 157.695 380.172L150.77 364.635L154.956 362.766Z" fill="#FFB81C"/>
<path d="M171.657 377.864C172.545 379.857 168.625 383.555 162.885 386.117C157.145 388.678 151.786 389.127 150.898 387.129C150.117 385.38 153.02 382.334 157.588 379.888L157.713 380.168C158.25 381.289 159.582 381.779 160.718 381.273C161.853 380.767 162.379 379.448 161.904 378.299L161.779 378.019C166.649 376.239 170.876 376.11 171.657 377.864Z" fill="#FFB81C"/>
<path d="M187.566 361.553C187.488 362.915 186.941 364.208 186.016 365.211C185.188 365.989 184.117 366.46 182.984 366.543C181.532 369.154 178.931 369.74 176.405 369.207C176.245 369.389 176.023 369.624 175.868 369.771C174.252 371.103 171.721 371.063 169.741 370.818C168.649 370.543 167.548 370.015 167.007 369.007C166.658 368.356 166.544 367.606 166.683 366.881C166.901 366.189 167.183 365.518 167.526 364.879C168.145 363.442 168.19 361.823 167.65 360.355C166.092 356.359 169.559 351.445 176.347 353.887C183.135 356.328 187.477 359.658 191.028 357.469C191.032 357.506 191.032 357.543 191.028 357.58C190.61 359.4 189.311 360.891 187.566 361.553Z" fill="#FFDC8E"/>
<path d="M126.839 383.835C127.633 384.945 128.788 385.744 130.107 386.095C131.222 386.307 132.376 386.128 133.374 385.589C136.002 387.018 138.511 386.121 140.357 384.31C140.593 384.381 140.903 384.461 141.112 384.501C143.194 384.763 145.307 383.373 146.848 382.104C147.625 381.287 148.273 380.253 148.18 379.112C148.128 378.375 147.824 377.679 147.318 377.141C146.765 376.675 146.171 376.26 145.543 375.902C144.251 375.021 143.347 373.679 143.017 372.151C142.2 367.955 136.633 365.647 132.202 371.343C127.772 377.038 125.889 382.184 121.721 382.228C121.739 382.26 121.76 382.292 121.783 382.321C123.109 383.639 125.007 384.207 126.839 383.835Z" fill="#FFDC8E"/>
<path fill-rule="evenodd" clip-rule="evenodd" d="M154.653 337.159H154.679L154.666 337.15C159.683 340.21 162.475 345.898 161.827 351.738V351.925C161.669 353.139 161.371 354.331 160.939 355.476C159.272 359.812 155.702 363.139 151.259 364.496C146.816 365.853 141.996 365.089 138.191 362.424C138.18 362.414 138.164 362.404 138.147 362.394C138.124 362.379 138.1 362.364 138.085 362.348C135.883 360.798 134.143 358.679 133.05 356.218C131.79 353.383 131.433 350.228 132.029 347.183V347.13C132.078 347.227 132.144 347.314 132.225 347.388C133.454 348.542 138.76 347.521 144.584 344.933C150.657 342.211 155.097 338.815 154.653 337.159ZM150.306 355.991L147.394 349.212C147.219 348.831 146.816 348.608 146.4 348.662C145.977 348.695 145.637 349.022 145.587 349.443L145.037 352.888C144.978 353.221 145.104 353.559 145.366 353.773C145.628 353.986 145.985 354.041 146.299 353.916C146.613 353.792 146.835 353.507 146.879 353.172L146.924 352.933L148.575 356.768L146.862 357.527C146.631 357.628 146.45 357.818 146.36 358.053C146.27 358.288 146.278 358.55 146.382 358.779C146.483 359.007 146.671 359.184 146.904 359.272C147.137 359.36 147.395 359.35 147.621 359.245L150.013 358.198C150.04 358.184 150.07 358.173 150.1 358.162C150.13 358.151 150.16 358.14 150.187 358.127L152.899 356.906C153.001 356.853 153.093 356.782 153.17 356.697C153.442 356.428 153.52 356.018 153.365 355.667C153.156 355.192 152.604 354.974 152.127 355.179L150.306 355.991Z" fill="#FFDC8E"/>
<path d="M294.154 201.123C289.448 198.903 286.092 196.106 286.66 194.908C287.229 193.709 291.49 194.593 296.196 196.835C300.902 199.076 304.249 201.851 303.69 203.05C303.68 203.076 303.663 203.099 303.641 203.116C302.94 204.191 298.753 203.32 294.154 201.123Z" fill="#FFB81C"/>
<path d="M307.787 211.627C305.598 214.002 301.967 214.952 298.748 214.512C302.46 211.998 304.379 207.561 303.671 203.134C305.598 201.492 308.142 202.197 309.443 204.235C311.059 206.828 309.651 209.607 307.787 211.627Z" fill="#FFB81C"/>
<path d="M286.623 194.948C284.56 196.109 282.905 197.88 281.887 200.018C280.998 201.869 280.629 203.926 280.817 205.971C278.442 203.751 276.937 200.355 277.421 197.154C277.82 194.419 279.099 191.556 282.14 191.21C284.519 190.921 286.672 192.44 286.623 194.948Z" fill="#FFB81C"/>
<path d="M288.932 215.973L283.37 227.693C283.101 228.257 282.551 228.636 281.928 228.685C281.305 228.735 280.702 228.448 280.348 227.933C279.993 227.418 279.94 226.752 280.209 226.188L285.794 214.477L288.932 215.973Z" fill="#FFB81C"/>
<path d="M288.44 233.14C287.72 234.65 283.632 234.201 279.303 232.137C274.975 230.073 272.054 227.178 272.773 225.669C273.399 224.337 276.604 224.528 280.289 225.966L280.187 226.179C279.916 226.748 279.97 227.417 280.327 227.936C280.684 228.454 281.291 228.743 281.918 228.693C282.546 228.643 283.099 228.262 283.37 227.693L283.472 227.484C286.921 229.433 289.07 231.822 288.44 233.14Z" fill="#FFB81C"/>
<path d="M305.783 234.303C304.954 234.933 303.932 235.255 302.893 235.213C302.033 235.117 301.232 234.728 300.624 234.112C298.404 234.556 296.757 233.34 295.821 231.608C295.634 231.608 295.377 231.608 295.226 231.573C293.654 231.298 292.425 229.797 291.586 228.536C291.141 227.787 291.031 226.885 291.284 226.05C291.49 225.527 291.869 225.09 292.358 224.812C292.868 224.597 293.397 224.429 293.938 224.31C295.078 223.958 296.039 223.183 296.624 222.144C298.16 219.267 302.742 218.836 304.686 223.986C306.631 229.136 306.853 233.309 309.876 234.285L309.809 234.339C308.546 235.001 307.035 234.987 305.783 234.303Z" fill="#FFDC8E"/>
<path d="M262.779 210.082C262.529 211.092 262.637 212.157 263.086 213.096C263.513 213.849 264.187 214.433 264.994 214.748C265.465 216.967 267.214 217.988 269.194 218.166C269.27 218.335 269.381 218.557 269.461 218.699C270.348 220.031 272.191 220.572 273.691 220.843C274.556 220.954 275.427 220.696 276.093 220.133C276.493 219.738 276.745 219.217 276.808 218.659C276.804 218.104 276.749 217.552 276.643 217.007C276.514 215.821 276.847 214.63 277.571 213.682C279.605 211.134 278.184 206.757 272.688 207.023C267.192 207.289 263.272 208.723 261.177 206.335C261.174 206.362 261.174 206.388 261.177 206.415C261.068 207.828 261.669 209.202 262.779 210.082Z" fill="#FFDC8E"/>
<path fill-rule="evenodd" clip-rule="evenodd" d="M294.162 201.141C298.748 203.321 302.908 204.204 303.663 203.134L303.667 203.152C304.375 207.579 302.455 212.015 298.744 214.53L298.624 214.61C297.844 215.122 297.007 215.541 296.129 215.857C292.786 217.027 289.092 216.597 286.107 214.691C283.122 212.785 281.177 209.615 280.831 206.091C280.833 206.057 280.833 206.023 280.831 205.989C280.643 203.944 281.013 201.887 281.901 200.035C282.919 197.898 284.574 196.127 286.638 194.966C286.642 194.939 286.669 194.939 286.669 194.939C286.637 195.015 286.619 195.096 286.615 195.179C286.553 196.466 289.776 199.041 294.162 201.141ZM290.553 209.935L293.057 204.87C293.198 204.586 293.141 204.244 292.915 204.022C292.684 203.798 292.329 203.763 292.058 203.938L289.785 205.323C289.622 205.419 289.505 205.576 289.458 205.759C289.411 205.943 289.44 206.137 289.537 206.299C289.637 206.463 289.798 206.58 289.985 206.624C290.172 206.669 290.368 206.636 290.531 206.535L290.691 206.441L289.279 209.3L287.992 208.679C287.819 208.595 287.62 208.585 287.439 208.649C287.258 208.713 287.11 208.847 287.029 209.021C286.947 209.192 286.937 209.389 287.001 209.567C287.065 209.746 287.198 209.891 287.37 209.971L289.146 210.859C289.164 210.866 289.181 210.878 289.197 210.89C289.223 210.907 289.248 210.925 289.275 210.925L291.308 211.893C291.389 211.926 291.474 211.944 291.561 211.946C291.853 211.975 292.13 211.817 292.254 211.551C292.43 211.196 292.285 210.765 291.93 210.588L290.553 209.935Z" fill="#FFDC8E"/>
<path fill-rule="evenodd" clip-rule="evenodd" d="M267.653 392.874C268.212 393.564 268.579 394.39 268.718 395.267C268.784 395.643 268.808 396.026 268.79 396.408C268.74 397.081 268.557 397.737 268.252 398.339C267.478 399.825 266.061 400.87 264.412 401.171C264.076 401.237 263.734 401.269 263.391 401.269H218.052L217.608 391.147L216.849 379.365L216.049 366.784L213.55 327.872C212.005 306.504 200.962 286.954 183.46 274.599L181.262 281.365C174.287 302.854 154.262 317.402 131.67 317.395H31.3394V341.723C31.346 343.144 30.7794 344.508 29.7678 345.506C28.7654 346.509 27.404 347.072 25.9854 347.068C23.0483 347.056 20.6703 344.678 20.6582 341.741V301.307L57.4031 292.468L121.477 277.046C127.174 275.673 131.464 270.976 132.318 265.179L139.359 217.336L143.265 222.432C142.937 220.954 142.644 219.489 142.409 218.068C141.33 217.86 140.309 217.611 139.372 217.336C132.633 215.36 129.317 211.955 129.552 210.623C129.561 210.533 129.595 210.447 129.65 210.375C130.077 209.466 130.402 208.514 130.618 207.533C130.893 206.424 131.208 205.07 131.541 203.538C131.985 201.5 132.469 199.103 132.966 196.533C135.341 183.951 138.009 167.188 138.338 165.044C138.29 165.205 138.226 165.451 138.141 165.771C137.956 166.472 137.676 167.532 137.277 168.857C137.468 166.371 137.512 164.05 137.512 161.83C132.58 176.413 120.567 201.398 97.2156 195.569C82.2637 191.84 78.2682 170.047 78.2682 147.277C78.2682 127.491 81.2961 106.981 82.785 96.8961C82.967 95.6632 83.126 94.586 83.2537 93.6851C82.6055 94.058 81.5001 93.947 79.498 92.8682C74.113 89.9726 71.0421 84.0824 71.7512 78.0095L6.34998 27.649C1.8208 24.1793 0.691052 17.8252 3.74663 13.0069C6.8022 8.18865 13.0315 6.50141 18.1011 9.11891C18.2004 9.16457 18.2968 9.21646 18.3896 9.27429C18.7053 9.45062 19.0106 9.64479 19.3041 9.85585C19.3529 9.88468 19.3973 9.91572 19.4416 9.94677L19.4417 9.94679L19.4417 9.94681L19.4417 9.94684L19.4418 9.94686C19.4862 9.97793 19.5306 10.009 19.5794 10.0379C19.9623 10.3098 20.3271 10.6064 20.6715 10.9257L82.095 66.3916C87.2802 65.0243 94.4676 65.7568 103.706 70.0941C108.314 72.26 114.144 75.4425 120.551 78.9401C123.835 80.7332 127.272 82.6091 130.773 84.4733L138.023 83.066L146.777 70.0408C144.069 70.76 140.935 69.517 138.848 67.5281C136.929 65.6605 135.623 63.2526 135.106 60.6248C134.99 60.0347 134.915 59.4297 134.84 58.825C134.656 57.3369 134.471 55.8499 133.685 54.5872C132.781 53.1335 131.27 52.2842 129.747 51.4282C128.856 50.9275 127.961 50.4246 127.182 49.7971C126.227 49.038 125.388 48.0036 126.147 46.4143C126.629 45.4884 127.392 44.7392 128.327 44.2745C130.067 42.8805 132.127 42.4233 134.143 42.2724C135.441 42.0456 136.759 41.9578 138.076 42.0104L138.115 42.0125C138.598 42.0384 139.07 42.0637 139.541 42.0637C137.414 37.7575 135.217 30.5346 137.357 20.9899C138.887 14.2344 143.689 8.68868 150.155 6.20666C150.187 6.19268 150.215 6.17313 150.24 6.14895L150.764 5.98469C150.878 5.94829 150.99 5.91003 151.1 5.87223L151.1 5.87211L151.1 5.87204C151.286 5.80849 151.468 5.74621 151.652 5.69613C152.078 5.57183 152.508 5.46084 152.921 5.36318C153.014 5.34385 153.107 5.32036 153.201 5.29674C153.301 5.27154 153.402 5.24618 153.503 5.22556C154.137 5.09908 154.777 5.0072 155.421 4.95031C155.585 4.91924 155.754 4.91924 155.918 4.91924L155.956 4.9172C156.44 4.89126 156.912 4.86596 157.396 4.86596C157.522 4.86596 157.645 4.87281 157.766 4.87956C157.883 4.88612 157.999 4.8926 158.115 4.8926C158.468 4.90409 158.846 4.93869 159.228 4.97362L159.412 4.99027C159.536 5.00359 159.664 5.02134 159.791 5.0391C159.919 5.05686 160.046 5.07462 160.171 5.08793C160.615 5.15453 161.059 5.25219 161.503 5.34986L162.191 5.5008C162.821 5.67837 163.505 5.87371 164.153 6.12231C168.743 7.82731 172.949 10.4273 176.525 13.7714C177.063 13.1366 177.631 12.5017 178.212 11.8802C178.352 11.7583 178.485 11.6294 178.612 11.494L178.612 11.4939L178.612 11.4938L178.612 11.4937L178.612 11.4937L178.612 11.4936C179.221 10.9033 179.829 10.313 180.463 9.71823L180.579 9.611L180.58 9.61026C180.9 9.31349 181.218 9.01824 181.551 8.73712C181.898 8.42411 182.262 8.11316 182.62 7.80729C183.003 7.4798 183.38 7.15812 183.722 6.84594C184.383 6.24218 185.076 5.6473 185.804 5.07018C185.973 4.91924 186.15 4.76386 186.332 4.62624L186.37 4.5977L186.37 4.59728L186.37 4.59717L186.37 4.59711C186.417 4.56132 186.471 4.51962 186.523 4.48862C186.772 4.29772 187.02 4.11571 187.269 3.93813C187.334 3.88616 187.404 3.8401 187.477 3.80051C187.713 3.62279 187.961 3.46113 188.219 3.31661C188.278 3.27383 188.34 3.23749 188.404 3.19983C188.446 3.17497 188.49 3.14953 188.534 3.12128L189.187 2.74837C189.338 2.66402 189.497 2.57967 189.666 2.51308C189.748 2.48083 189.828 2.44128 189.911 2.40101L189.911 2.40098L189.911 2.40089C189.998 2.35805 190.087 2.31439 190.181 2.27779L190.816 2.04251C190.881 2.0239 190.948 1.99879 191.021 1.97172L191.021 1.97154L191.022 1.97142L191.022 1.97126C191.053 1.95973 191.085 1.94784 191.118 1.93596C191.202 1.89796 191.289 1.86966 191.38 1.85161C192.525 1.55417 193.022 1.90488 192.747 2.88599C192.294 4.51525 189.679 7.8448 184.352 12.595C184.919 12.595 185.508 12.5573 186.109 12.519C186.223 12.5117 186.337 12.5044 186.452 12.4973C187.116 12.4342 187.786 12.4671 188.441 12.595C189.406 12.7625 190.294 13.2283 190.98 13.9268C191.138 14.0975 191.286 14.2769 191.424 14.4639C191.46 14.5066 191.491 14.5527 191.517 14.6016C191.64 14.7817 191.75 14.9701 191.846 15.1654C191.864 15.2099 191.888 15.2517 191.917 15.2897C192.166 15.8217 192.336 16.3869 192.423 16.9678V17.0388C192.428 17.0652 192.428 17.0923 192.423 17.1187C192.478 17.4847 192.506 17.8541 192.507 18.2241V18.6947C192.494 18.9699 192.467 19.2319 192.427 19.5071C192.415 19.5415 192.415 19.5914 192.416 19.6353V19.6354C192.416 19.6823 192.417 19.7222 192.401 19.7291C192.37 19.7424 192.37 19.769 192.37 19.769C192.188 20.7689 191.819 21.7254 191.282 22.5881C190.092 24.4526 188.254 25.2783 186.226 25.7223H186.172H186.141C184.896 25.9895 183.576 26.1074 182.283 26.223C181.557 26.2879 180.839 26.352 180.148 26.4415C179.751 26.6805 179.475 27.0779 179.389 27.5335C182.076 30.9277 185.592 33.5714 189.6 35.2093C189.6 35.2093 187.682 37.5178 186.079 39.3645C185.196 40.3812 185.071 42.5343 185.125 44.2479C185.232 46.6565 184.678 49.0485 183.522 51.1645C180.694 56.11 176.343 57.0911 172.463 56.7004L172.215 62.738C172.18 63.3793 172.409 64.0071 172.85 64.4745C173.29 64.9419 173.903 65.208 174.546 65.2107H174.603C174.77 65.2245 174.938 65.2126 175.1 65.1752C179.296 64.0032 184.254 62.7868 188.507 61.9833C190.841 61.5398 193.205 61.2815 195.579 61.2108C196.299 61.1842 197.013 61.1842 197.719 61.2108C203.162 61.4062 207.632 62.9378 211.295 65.5348H211.321C213.159 66.4049 214.869 68.0742 216.374 70.0941C217.669 71.8151 218.758 73.682 219.619 75.6566C219.621 75.6865 219.63 75.7154 219.645 75.741C226.287 89.1657 226.469 110.111 224.107 130.976C224.069 131.294 224.031 131.611 223.992 131.929L223.992 131.934C223.863 133.011 223.733 134.087 223.596 135.162C223.077 139.331 222.433 143.477 221.745 147.535C220.365 155.668 218.749 163.472 217.146 170.46C216.609 172.791 216.067 175.028 215.543 177.168C215.488 177.394 215.433 177.619 215.378 177.843L215.369 177.878L215.369 177.879L215.368 177.882L215.368 177.883L215.368 177.883C215.169 178.698 214.974 179.495 214.771 180.276C213.759 184.324 212.795 187.885 211.983 190.841C210.181 192.32 208.405 193.723 206.629 195.054L209.293 200.093L218.766 220.421C222.575 228.572 226.028 236.859 229.123 245.282C245.826 290.736 245.487 305.064 244.88 330.749V330.75V330.75V330.751V330.751C244.754 336.067 244.617 341.868 244.617 348.533L244.035 366.375L243.25 390.073V390.845H263.582C264.962 390.842 266.285 391.394 267.253 392.377C267.308 392.438 267.36 392.503 267.412 392.569C267.434 392.597 267.456 392.625 267.478 392.653L267.478 392.654C267.51 392.695 267.541 392.736 267.573 392.776C267.6 392.809 267.626 392.842 267.653 392.874ZM184.033 13.1632L184.326 12.595C183.771 13.0922 183.194 13.6027 182.572 14.1133L182.75 13.9757C183.142 13.653 183.573 13.3801 184.033 13.1632ZM111.009 95.27L110.565 96.1268L110.551 96.1388L110.551 96.1389C110.472 96.2054 110.397 96.2684 110.33 96.3354C110.583 95.9891 110.805 95.6429 111.009 95.27ZM108.758 98.4486C108.692 98.7638 108.012 101.263 107.036 101.445C107.46 100.367 108.04 99.3575 108.758 98.4486ZM106.192 108.237V105.862C106.19 105.493 106.208 105.124 106.246 104.757C106.314 104.043 106.443 103.336 106.632 102.644C106.616 103.046 106.639 103.449 106.703 103.847L106.259 104.757L107.147 105.436C107.964 107.629 109.992 109.631 114.068 108.237H114.108C114.163 108.224 114.218 108.204 114.275 108.184C114.332 108.163 114.391 108.142 114.454 108.126L114.565 108.086C114.782 108.012 114.994 107.925 115.2 107.825C115.24 107.804 115.275 107.784 115.31 107.765L115.31 107.765C115.371 107.73 115.426 107.699 115.488 107.674C115.503 107.674 115.514 107.664 115.526 107.653C115.536 107.644 115.546 107.635 115.559 107.629C116.064 107.375 116.533 107.056 116.953 106.679C117.047 106.743 117.143 106.802 117.242 106.857C116.98 107.265 116.715 107.672 116.45 108.08C116.184 108.487 115.919 108.894 115.657 109.303C115.611 109.36 115.568 109.419 115.528 109.48C114.533 111.006 113.518 112.513 112.521 113.994C111.74 115.154 110.969 116.299 110.228 117.423C110.198 117.465 110.169 117.507 110.141 117.55C110.109 117.597 110.079 117.644 110.048 117.691C110.014 117.743 109.979 117.796 109.944 117.848C109.919 117.885 109.894 117.923 109.868 117.96L108.887 119.478C108.749 119.7 108.598 119.922 108.443 120.144C108.166 120.585 107.881 121.029 107.603 121.463L107.555 121.538C107.536 121.57 107.517 121.601 107.498 121.633L107.463 121.69C107.347 121.883 107.235 122.069 107.111 122.253C106.849 122.697 106.587 123.141 106.339 123.553C106.322 123.588 106.301 123.62 106.281 123.652C106.255 123.694 106.23 123.735 106.214 123.775C106.117 123.952 106.017 124.127 105.918 124.3L105.918 124.3C105.739 124.614 105.562 124.924 105.402 125.236C105.695 115.474 106.192 108.237 106.192 108.237ZM145.201 78.7686C145.447 79.7082 145.81 80.6134 146.28 81.4633L146.582 81.4056C146.106 80.3804 145.924 79.2429 146.058 78.1205C145.867 78.2496 145.663 78.4092 145.448 78.5771C145.367 78.6402 145.285 78.7044 145.201 78.7686Z" fill="#FEFEFE"/>
<path d="M219.704 98.8792C217.51 104.749 214.37 110.22 210.408 115.074C205.121 95.0258 177.863 89.5698 177.863 89.5698C167.186 105.494 149.744 94.3466 149.744 94.3466L135.453 86.5466C137.926 84.5311 142.205 80.7309 144.869 78.6888C145.491 81.1305 147.009 84.1715 150.64 85.2769C157.077 87.2213 168.842 88.713 172.296 76.811C173.441 73.043 174.105 69.1454 174.271 65.2108C174.441 65.2109 174.609 65.1824 174.768 65.1265C178.964 63.9545 183.922 62.7381 188.175 61.939C191.161 61.3515 194.203 61.0969 197.245 61.1798C202.688 61.3707 207.163 62.9023 210.821 65.4994H210.847C214.341 67.9854 217.063 71.4526 219.176 75.6523C219.179 75.6806 219.188 75.7079 219.202 75.7322C222.368 82.9684 222.479 91.31 219.704 98.8792Z" fill="#25282A"/>
<path d="M108.455 98.4218C108.455 98.4218 110.755 94.1378 112.699 95.9979C114.644 97.858 122.302 104.877 114.218 108.086C106.134 111.296 105.663 101.618 106.715 101.427C107.767 101.236 108.455 98.4218 108.455 98.4218Z" fill="#FFDC8E"/>
<path d="M211.681 190.846C209.874 192.324 208.076 193.736 206.327 195.059C176.273 217.926 154.662 220.537 142.107 218.051C141.083 217.858 140.069 217.614 139.07 217.318C131.887 215.205 128.602 211.494 129.348 210.361C131.421 207.254 138.063 164.844 138.063 164.844C138.063 164.844 137.716 166.389 136.957 168.875C140.549 123.704 105.926 123.762 105.926 123.762C108.842 118.666 113.051 112.855 116.904 106.844C131.017 115.891 138.436 125.307 160.854 130.847C195.255 139.327 213.843 115.145 219.823 98.8837C222.598 91.3367 222.487 82.9729 219.339 75.75C233.541 104.375 218.251 167.193 211.681 190.846Z" fill="#25282A"/>
<path d="M81.7614 66.3826L74.9692 69.7032L71.9992 75.803L10.8509 27.6488C7.48313 25.035 5.92443 20.7136 6.84832 16.5519C7.7722 12.3901 11.013 9.13416 15.1704 8.19092C17.1109 8.61183 18.8985 9.55782 20.3379 10.9256L81.7614 66.3826Z" fill="#FFDC8E"/>
<path d="M192.122 17.021C192.269 17.9037 192.259 18.8056 192.091 19.6846C190.519 21.8289 188.49 25.4203 185.875 25.6911C181.964 26.0951 181.964 26.0951 180.024 26.3215C179.136 26.6412 178.91 27.5734 178.692 30.4635C178.656 30.9685 178.582 31.4701 178.47 31.964C177.023 33.8197 175.611 36.8473 173.507 37.1847C170.884 37.6287 168.677 36.5499 168.335 38.8628C167.39 39.8573 167.003 41.3001 167.061 43.2223C167.084 44.2755 166.934 45.3253 166.617 46.3299C166.243 46.9619 165.809 47.5565 165.321 48.1057C164.211 49.3265 161.57 48.1367 158.693 47.018C155.816 45.8993 154.08 47.9547 154.222 49.9258C152.309 51.3198 152.944 55.3907 152.891 57.4728C152.837 59.5549 152.607 61.7834 151.665 63.688C150.309 66.2977 147.485 67.8017 144.562 67.4703C141.211 67.124 138.489 64.4204 137.109 61.486C135.777 58.6226 136.167 55.1554 134.516 52.4918C133.504 50.8581 131.977 49.5884 130.405 48.4963C129.309 47.7461 128.185 47.1201 127.231 46.1745C127.062 46.0294 126.933 45.8428 126.858 45.6329C126.716 45.078 127.675 44.5097 128.026 44.2256C132.079 40.9671 137.792 42.8006 140.829 41.784C143.865 40.7673 163.914 27.7066 163.914 27.7066C163.914 27.7066 179.487 16.4128 182.417 13.98C185.347 11.5472 191.22 11.6182 192.122 17.021Z" fill="#FFB81C"/>
<path d="M153.153 34.6054L141.659 40.7496C139.55 36.43 137.424 29.2782 139.542 19.84C140.853 13.9892 144.634 8.9928 149.908 6.14C154.38 4.41544 159.332 4.40437 163.812 6.10893C168.402 7.81286 172.608 10.413 176.184 13.758C176.713 13.1232 177.285 12.4839 177.871 11.8668C179.614 10.0823 181.452 8.3929 183.376 6.80591C185.525 4.95912 187.989 2.7705 190.777 1.92257C190.861 1.88571 190.949 1.85601 191.039 1.83379C196.259 0.39542 188.135 13.1365 153.153 34.6054Z" fill="#25282A"/>
<path d="M183.997 12.5861C185.773 12.5861 187.788 12.1421 189.426 13.03C192.827 14.8058 192.832 19.6891 190.976 22.5747C188.312 26.7034 182.541 25.8066 178.381 26.6723C181.152 30.4728 184.924 33.4297 189.276 35.2137C189.276 35.2137 187.353 37.5178 185.755 39.369C184.867 40.3945 184.747 42.5476 184.796 44.2523C184.906 46.6645 184.35 49.0603 183.189 51.1778C176.974 62.0232 163.514 53.8414 163.514 53.8414" stroke="black" stroke-width="2" stroke-linejoin="round"/>
<path d="M153.197 34.5789C153.197 34.5789 153.166 34.61 153.153 34.6144C149.714 36.8253 146.22 38.9369 142.671 40.9495C141.93 41.4251 141.116 41.776 140.261 41.9883C139.917 42.0503 139.567 42.0771 139.217 42.0682C138.738 42.0682 138.25 42.0371 137.757 42.0238C134.356 41.877 130.98 42.6597 127.99 44.2879C127.055 44.7519 126.291 45.4992 125.806 46.4233C125.06 48.0081 125.899 49.0514 126.849 49.8016C128.962 51.5108 131.915 52.2877 133.344 54.5962C134.458 56.3719 134.379 58.5916 134.769 60.6382C135.284 63.2662 136.594 65.6727 138.52 67.5326C140.949 69.8588 144.789 71.1552 147.737 69.5348C149.615 68.496 150.769 66.4982 151.532 64.4783C152.486 61.9237 152.958 59.2141 152.922 56.4874C152.9 55.2088 152.762 53.9036 153.024 52.6473C153.286 51.3909 154.041 50.1523 155.244 49.7128C157.65 48.825 160.065 51.4575 162.595 51.1823C164.709 50.9603 166.089 48.7983 166.564 46.7163C167.039 44.6342 166.924 42.4367 167.665 40.4434C168.797 37.3358 170.733 37.5134 173.499 37.2204C177.521 36.7986 179.785 30.0108 178.382 26.6724" stroke="black" stroke-width="2" stroke-linejoin="round"/>
<path d="M139.218 42.0592C137.087 37.7485 134.889 30.5389 137.029 20.9898C139.715 9.00339 152.341 1.76716 163.807 6.10446C168.4 7.8115 172.606 10.4163 176.18 13.7669C178.276 11.232 180.881 8.93679 183.372 6.80588C185.592 4.90582 188.153 2.63728 191.034 1.84707C196.26 0.408705 188.14 13.1365 153.157 34.6054" stroke="black" stroke-width="2" stroke-linejoin="round"/>
<path d="M183.109 274.599L180.911 281.365C173.939 302.843 153.931 317.389 131.35 317.395H31.0193V341.741C31.0393 343.913 29.7385 345.88 27.7317 346.711C25.7249 347.543 23.4142 347.073 21.8919 345.523C20.8816 344.525 20.3152 343.162 20.3203 341.741V301.307L57.0653 292.468L121.126 277.046C126.828 275.68 131.127 270.984 131.985 265.183L139.057 217.318" stroke="black" stroke-width="2"/>
<path d="M139.976 152.005C139.976 152.005 129.437 203.698 96.9142 195.565C67.0326 188.093 80.9324 108.322 83.05 93.0367C83.2975 91.2415 83.8787 89.5084 84.7636 87.927C87.3429 83.3011 93.5714 75.6076 104.164 82.2801C115.666 89.5296 111.551 94.5417 108.474 98.4217C106.799 100.541 105.888 103.165 105.891 105.867V108.242C105.891 108.242 102.712 154.775 108.11 170.66" stroke="black" stroke-width="2"/>
<path d="M116.447 106.555C130.849 115.696 138.2 125.254 160.841 130.847C195.242 139.327 213.83 115.145 219.81 98.8836C222.584 91.3366 222.473 82.9728 219.326 75.7499C219.311 75.7256 219.302 75.6983 219.299 75.67C218.432 73.6837 217.333 71.8063 216.027 70.0764C214.518 68.0609 212.809 66.3872 210.971 65.5171C210.971 65.5171 210.971 65.5171 210.944 65.5171" stroke="black" stroke-width="2"/>
<path d="M184.468 73.9916C180.916 82.5064 179.141 92.6371 169.796 96.7214C160.451 100.806 152.26 95.8335 135.106 86.9192C123.067 80.6774 111.395 73.854 103.373 70.085C94.135 65.7477 86.9476 65.0152 81.7624 66.3825C75.4229 68.0429 72.0268 72.833 71.4186 78.0093C70.7053 84.0806 73.7731 89.9716 79.1565 92.868C81.1586 93.9467 82.2641 94.0577 82.9122 93.6848" stroke="black" stroke-width="2"/>
<path d="M116.891 106.843C112.664 113.431 108.012 119.797 105.1 125.227" stroke="black" stroke-width="2"/>
<path d="M206.308 195.072L208.972 200.115L218.446 220.439C222.24 228.578 225.692 236.865 228.803 245.3C248.962 300.18 244.296 309.671 244.296 348.556L243.715 366.393L242.916 390.863H263.257C264.697 390.872 266.07 391.475 267.052 392.528C268.034 393.581 268.538 394.993 268.447 396.43C268.269 399.205 265.823 401.313 263.048 401.313H217.713L217.269 391.192L215.711 366.833L213.212 327.917C211.665 306.549 200.623 287 183.121 274.644C182.456 274.16 181.79 273.707 181.119 273.263C154.23 255.546 144.84 234.49 142.119 218.095" stroke="black" stroke-width="2"/>
<path d="M140.774 146.492L138.048 164.844C138.048 164.844 131.407 207.272 129.32 210.379C128.575 211.511 131.86 215.223 139.043 217.336C140.042 217.632 141.055 217.876 142.079 218.068C154.634 220.554 176.263 217.931 206.282 195.09C208.058 193.758 209.833 192.355 211.636 190.877C218.206 167.224 233.495 104.406 219.298 75.7767C219.283 75.7523 219.274 75.725 219.272 75.6968C217.172 71.4971 214.437 68.0299 210.943 65.5438C210.943 65.5438 210.943 65.5438 210.917 65.5438C207.254 62.9468 202.784 61.4152 197.341 61.2243C194.293 61.1401 191.245 61.3947 188.253 61.9835C184 62.7825 179.042 63.9989 174.846 65.1709C174.114 65.379 173.326 65.2217 172.729 64.7483C172.133 64.2749 171.8 63.5433 171.837 62.7825L172.098 56.5674" stroke="black" stroke-width="2"/>
<path d="M105.912 104.761L109.215 107.327C110.824 108.532 112.974 108.728 114.775 107.834C116.575 106.941 117.72 105.111 117.734 103.101C117.734 101.652 117.141 100.265 116.092 99.2653L111.093 94.4707" stroke="black" stroke-width="2"/>
<path d="M71.4181 78.0096L6.01689 27.6446C2.7933 25.1566 1.2039 21.0941 1.8833 17.0792C2.56271 13.0642 5.40023 9.75081 9.26292 8.46197C13.1256 7.17313 17.3842 8.11878 20.3384 10.9214L81.7619 66.3828" stroke="black" stroke-width="2"/>
<path d="M146.444 70.041L146.097 73.9566L145.725 78.1207C143.034 80.0696 137.689 84.8464 135.105 86.9196" stroke="black" stroke-width="2"/>
<path d="M145.747 78.1207C145.241 83.1772 150.186 85.6677 154.435 86.449C159.598 87.4257 165.977 86.1605 169.529 81.9519C173.2 77.5702 173.879 70.9733 173.706 65.4995" stroke="black" stroke-width="2"/>
<path d="M57.0829 292.468V317.395H31.0369V341.741C31.0569 343.913 29.756 345.88 27.7493 346.712C25.7425 347.543 23.4318 347.073 21.9095 345.524C20.8991 344.525 20.3328 343.162 20.3379 341.741V301.307L57.0829 292.468Z" fill="#25282A"/>
<path d="M268.449 396.412C268.271 399.187 265.825 401.296 263.05 401.296H217.715L217.271 391.174L215.713 366.815C215.806 366.54 215.851 366.397 215.851 366.397H243.73L242.931 390.867H263.259C264.699 390.877 266.072 391.479 267.054 392.532C268.036 393.586 268.54 394.997 268.449 396.434V396.412Z" fill="#25282A"/>
<path d="M299.19 401.273H20.3379" stroke="black" stroke-width="4.67"/>
</svg>
