<svg id="verification" viewBox="0 0 445 445" fill="none" xmlns="http://www.w3.org/2000/svg">
    <path opacity="0.5" d="M104.753 189.435C104.753 189.435 81.2777 119.973 163.16 128.451C245.042 136.928 205.919 106.183 236.861 87.1041C267.802 68.0247 358.969 127.382 320.827 184.633C282.686 241.885 381.781 189.513 402.452 275.608C415.208 328.738 383.56 367.843 357.451 390.01" stroke="#D49200" stroke-width="5.47"/>
    <path fill-rule="evenodd" clip-rule="evenodd" d="M302.097 244.697C337.495 256.109 359.283 287.997 365.436 323.631C367.996 338.55 368.188 354.201 364.956 369.055C363.129 377.393 360.486 386.774 354.351 393.04C351.777 395.679 348.386 397.37 344.73 397.838C345.624 396.033 346.091 394.047 346.095 392.033C346.122 384.618 340.152 378.576 332.737 378.514L324.216 378.466L311.46 378.401C311.081 378.353 310.679 378.353 310.283 378.353H301.696L294.461 378.322L255.133 378.113C254.628 378.113 254.1 378.148 253.577 378.196L253.658 378.207C253.965 378.252 254.287 378.298 254.58 378.37C254.242 378.37 253.909 378.398 253.561 378.427L253.511 378.431C260.17 379.25 265.222 384.828 265.377 391.536V391.789C265.386 391.953 265.386 392.117 265.377 392.282C264.983 398.814 259.967 404.126 253.468 404.894C253.81 404.938 254.155 404.964 254.501 404.972C254.18 405.044 253.856 405.098 253.529 405.133L253.589 405.139C254.095 405.185 254.582 405.229 255.09 405.229H254.597C247.615 405.229 243.319 409.521 243.319 414.754C243.325 417.283 244.331 419.707 246.119 421.496C247.851 423.232 250.236 424.296 254.597 424.296H200.843L191.432 400.123L158.228 314.952H85.1286C77.6966 314.957 70.6823 311.516 66.1371 305.636C61.5919 299.755 60.0293 292.101 61.9062 284.909L79.5639 235.547C79.665 235.83 79.7737 236.184 79.8998 236.595C81.3033 241.167 84.8546 252.734 103.794 250.314C106.768 263.854 111.155 277.047 117.901 289.148C120.27 293.409 123.305 298.071 127.84 300.295C128.303 300.519 128.781 300.71 129.271 300.866C133.819 302.34 139.419 301.137 143.727 299.724C154.176 296.309 164.813 292.201 174.355 286.715C182.614 281.996 192.444 274.325 191.363 264.116V263.972C190.864 258.226 186.983 253.333 181.502 251.539C178.699 256.145 175.346 260.392 171.516 264.186C168.445 261.188 165.968 257.637 164.215 253.72C162.963 250.91 161.973 247.99 161.259 244.998C181.877 239.873 207.607 235.373 234.959 235.15C231.732 238.125 229.438 242.385 230.11 246.886C230.699 250.881 233.956 254.583 237.314 256.685C242.892 260.183 250.336 259.895 256.346 257.671C262.233 255.508 267.318 251.356 271.007 246.301C272.748 243.86 273.907 241.052 274.396 238.094V238.046C283.782 239.57 293.042 241.794 302.097 244.697ZM246.049 335.013C246.049 335.013 258.666 336.038 266.075 324.634C273.524 313.247 267.109 301.363 267.109 301.363C267.109 301.363 246.032 283.536 242.425 281.486C238.819 279.436 220.158 269.066 208.187 271.674C196.216 274.282 208.013 284.159 208.649 284.286C209.286 284.412 222.531 287.818 222.531 287.818L217.952 290.234C217.952 290.234 214.075 292.428 213.102 299.043C213.011 299.665 212.898 300.339 212.777 301.057C211.615 307.978 209.767 318.991 220.08 326.775C231.462 335.366 232.609 328.738 233.163 324.377C233.163 324.377 240.118 327.346 242.561 331.69C245.003 336.033 246.049 335.013 246.049 335.013Z" fill="#25282A"/>
    <path d="M103.776 250.323C103.776 250.323 113.758 249.11 117.496 241.984L114.238 260.261C114.238 260.261 153.949 246.742 161.232 244.998C161.232 244.998 163.579 260.126 172.92 264.186L182.558 251.932C182.558 251.932 194.642 254.985 191.336 271.452C188.031 287.919 142.31 301.682 134.556 301.364C126.802 301.045 118.455 296.274 109.908 270.636L103.776 250.323Z" fill="#353642"/>
    <path d="M120.038 209.609C122.568 213.726 125.11 217.834 127.735 221.89C129.353 224.389 132.301 227.952 129.166 230.564C128.145 231.346 126.913 231.802 125.629 231.872C123.614 232.051 121.499 231.567 120.274 229.836L114.168 219.718C111.645 215.534 106.331 213.989 101.958 216.168" stroke="black" stroke-width="2"/>
    <path d="M143.13 222.936C144.726 226.73 143.644 229.177 141.778 230.407C138.725 232.408 134.639 231.449 132.476 228.527L120.06 209.631" stroke="black" stroke-width="2"/>
    <path d="M130.548 204.114C135.066 209.609 140.766 219.813 143.919 224.074C147.072 228.335 151.948 225.766 151.948 225.766C155.907 223.634 155.236 220.097 153.505 215.801C149.24 205.256 143.152 198.244 136.361 193.647C115.32 179.413 93.7327 189.914 87.3089 214.484L61.9061 284.91C60.0292 292.101 61.5918 299.756 66.137 305.636C70.6822 311.516 77.6964 314.957 85.1285 314.953H158.228L200.856 424.301" stroke="black" stroke-width="2"/>
    <path d="M156.649 210.966C161.882 209.151 161.642 200.805 154.216 197.987C146.012 194.874 131.447 190.469 127.788 189.37C127.765 189.352 127.738 189.342 127.709 189.339C127.452 189.261 127.273 189.196 127.134 189.165L126.929 189.1" stroke="black" stroke-width="2"/>
    <path d="M233.969 294.421C229.39 288.918 216.857 285.8 208.676 284.291C205.851 283.76 203.717 281.426 203.442 278.565C203.348 277.625 203.456 276.676 203.761 275.782C204.764 272.958 207.569 271.185 210.551 271.491C224.506 272.904 238.897 277.296 249.543 286.755C249.543 286.755 301.146 326.134 307.308 329.968C309.851 331.512 312.223 329.689 310.501 327.264L309.96 326.339C306.927 321.134 303.337 316.273 299.254 311.843" stroke="black" stroke-width="2"/>
    <path d="M234.924 235.146C170.024 235.687 114.238 260.257 114.238 260.257L119.807 229.041" stroke="black" stroke-width="2"/>
    <path d="M335.725 405.039C335.725 405.039 328.655 403.438 326.776 409.099C324.896 414.76 322.934 423.765 336.449 424.297C349.963 424.829 342.026 422.173 341.246 417.799C340.465 413.425 335.725 405.039 335.725 405.039Z" fill="#353642"/>
    <path d="M227.733 301.604C227.733 301.604 220.106 295.821 213.237 301.682C212.948 301.937 212.696 302.23 212.487 302.554" stroke="black" stroke-width="2"/>
    <path d="M132.45 228.506C134.63 231.432 138.712 232.387 141.752 230.381C143.596 229.16 144.678 226.726 143.121 222.967C143.405 223.381 143.662 223.748 143.915 224.084C147.063 228.362 151.943 225.784 151.943 225.784C155.903 223.652 155.236 220.115 153.505 215.815C151.81 211.556 149.588 207.527 146.889 203.822C148.655 202.17 150.753 200.499 152.964 201.232C155.349 202.026 156.017 205.017 156.287 207.512C156.413 208.672 156.54 209.819 156.666 210.979L158.576 228.056C159.213 233.726 159.85 239.478 161.232 245.012C161.947 248.004 162.937 250.924 164.189 253.734C165.942 257.652 168.418 261.203 171.489 264.2C175.319 260.406 178.673 256.159 181.476 251.554C186.957 253.348 190.838 258.241 191.336 263.987V264.131C192.418 274.34 182.588 282.011 174.328 286.729C164.786 292.216 154.15 296.324 143.701 299.738C139.392 301.151 133.793 302.355 129.244 300.881C128.754 300.725 128.276 300.534 127.814 300.31C123.278 298.085 120.243 293.424 117.875 289.163C106.537 268.775 101.827 245.365 99.3453 222.182C104.308 221.498 109.254 220.734 114.138 219.683C114.138 219.683 114.138 219.718 114.168 219.731L119.798 229.068L120.261 229.845C121.482 231.589 123.597 232.056 125.616 231.881C126.9 231.818 128.133 231.361 129.148 230.573C132.28 227.956 129.34 224.406 127.718 221.907" fill="white"/>
    <path d="M132.45 228.506C134.63 231.432 138.712 232.387 141.752 230.381C143.596 229.16 144.678 226.726 143.121 222.967C143.405 223.381 143.662 223.748 143.915 224.084C147.063 228.362 151.943 225.784 151.943 225.784C155.903 223.652 155.236 220.115 153.505 215.815C151.81 211.556 149.588 207.527 146.889 203.822C148.655 202.17 150.753 200.499 152.964 201.232C155.349 202.026 156.017 205.017 156.287 207.512C156.413 208.672 156.54 209.819 156.666 210.979L158.576 228.056C159.213 233.726 159.85 239.478 161.232 245.012C161.947 248.004 162.937 250.924 164.189 253.734C165.942 257.652 168.418 261.203 171.489 264.2C175.319 260.406 178.673 256.159 181.476 251.554C186.957 253.348 190.838 258.241 191.336 263.987V264.131C192.418 274.34 182.588 282.011 174.328 286.729C164.786 292.216 154.15 296.324 143.701 299.738C139.392 301.151 133.793 302.355 129.244 300.881C128.754 300.725 128.276 300.534 127.814 300.31C123.278 298.085 120.243 293.424 117.875 289.163C106.537 268.775 101.827 245.365 99.3453 222.182C104.308 221.498 109.254 220.734 114.138 219.683C114.138 219.683 114.138 219.718 114.168 219.731L119.798 229.068L120.261 229.845C121.482 231.589 123.597 232.056 125.616 231.881C126.9 231.818 128.133 231.361 129.148 230.573C132.28 227.956 129.34 224.406 127.718 221.907" fill="#FFDC8E"/>
    <path d="M133.788 229.888C135.72 232.505 139.022 232.173 141.752 230.381C143.4 229.291 144.752 229.609 143.361 226.247C143.618 226.613 143.653 225.374 143.88 225.649C146.693 229.469 143.915 224.07 143.915 224.07C147.84 229.029 156.383 224.358 154.817 220.525C153.16 216.395 151.416 210.29 149.205 207.237C150.949 205.589 150.613 205.833 152.833 207.145C154.042 207.923 154.816 209.223 154.922 210.656C155.101 212.318 155.279 213.909 155.458 215.532L157.159 230.795C157.73 235.867 158.297 240.991 159.531 245.928C160.169 248.597 161.054 251.202 162.174 253.708C163.735 257.157 168.751 262.901 171.489 265.531C174.895 262.151 178.977 255.936 181.476 251.806C186.273 253.28 186.064 257.868 186.404 262.879V263.01C187.372 272.12 178.598 278.962 171.245 283.179C162.724 288.077 153.23 291.74 143.902 294.793C140.055 296.058 135.057 297.148 130.997 295.813C130.559 295.675 130.132 295.504 129.72 295.303C125.673 293.314 122.96 289.158 120.845 285.351C111.587 268.723 107.291 249.844 104.927 230.917C104.567 227.974 106.603 225.274 109.533 224.812C112.188 224.376 114.836 223.94 117.465 223.355L117.539 223.39L122.563 231.724C123.658 233.272 123.837 232.06 125.638 231.903C126.776 231.803 128.983 231.58 129.864 230.843C132.659 228.514 131.08 227.551 129.632 225.322" fill="#FFE7B3"/>
    <path d="M226.813 310.021C226.813 310.021 212.33 305.259 212.112 313.265" stroke="black" stroke-width="2"/>
    <path opacity="0.54" d="M97.1736 391.585L68.7704 318.817C68.0573 315.964 68.6986 312.941 70.5089 310.623C72.3191 308.305 75.0964 306.951 78.0376 306.951H190.857C196.071 306.95 200.607 310.524 201.825 315.595L232.918 388.345C233.599 391.188 232.94 394.187 231.13 396.483C229.32 398.778 226.558 400.119 223.634 400.12H108.115C102.942 400.123 98.4305 396.604 97.1736 391.585Z" fill="white"/>
    <path d="M231.527 322.297C231.527 322.297 233.878 324.451 232.984 327.53C232.321 329.811 230.053 331.25 227.807 330.47C220.655 327.997 214.214 323.797 212.644 316.658C211.902 313.044 211.742 309.334 212.169 305.669C212.513 302.271 213.015 298.604 214.157 295.372C215.902 290.409 221.244 286.951 226.429 289.341" stroke="black" stroke-width="2"/>
    <path d="M97.1736 391.585L68.7704 318.817C68.0573 315.964 68.6986 312.941 70.5089 310.623C72.3191 308.305 75.0964 306.951 78.0376 306.951H190.857C196.071 306.95 200.607 310.524 201.825 315.595L232.918 388.345C233.599 391.188 232.94 394.187 231.13 396.483C229.32 398.778 226.558 400.119 223.634 400.12H108.115C102.942 400.123 98.4305 396.604 97.1736 391.585Z" fill="#FFE7B3"/>
    <path fill-rule="evenodd" clip-rule="evenodd" d="M97.1736 391.585L68.7704 318.817C68.0573 315.964 68.6986 312.941 70.5089 310.623C72.3191 308.305 75.0964 306.951 78.0376 306.951H190.857C196.071 306.95 200.607 310.524 201.825 315.595L232.918 388.345C233.599 391.188 232.94 394.187 231.13 396.483C229.32 398.778 226.558 400.119 223.634 400.12H108.115C102.942 400.123 98.4305 396.604 97.1736 391.585V391.585Z" stroke="black" stroke-width="2" stroke-linecap="square" stroke-linejoin="round"/>
    <path d="M101.33 388.654L75.1244 321.495C74.4679 318.862 75.0605 316.074 76.7309 313.936C78.4012 311.798 80.9632 310.549 83.6763 310.549H187.756C192.566 310.547 196.75 313.844 197.873 318.521L226.564 385.641C227.192 388.265 226.583 391.031 224.912 393.149C223.242 395.267 220.693 396.503 217.995 396.504H111.421C106.656 396.508 102.498 393.273 101.33 388.654Z" fill="#FFF9EA"/>
    <path d="M324.076 378.117L344.032 424.296" stroke="black" stroke-width="2"/>
    <path d="M418.745 424.296H26.255" stroke="black" stroke-width="5.47"/>
    <path d="M233.128 215.875C229.892 219.072 225.06 219.067 222.308 216.11" stroke="black" stroke-width="2"/>
    <path d="M146.889 203.809C148.655 202.156 150.753 200.486 152.964 201.218C155.349 202.012 156.016 205.004 156.287 207.498C157.051 214.354 157.815 221.202 158.576 228.043C159.545 236.765 160.565 245.696 164.189 253.712C165.941 257.629 168.418 261.18 171.489 264.178" stroke="black" stroke-width="2"/>
    <path d="M191.336 264.126V263.982C190.838 258.236 186.957 253.343 181.476 251.549C178.673 256.154 175.319 260.401 171.489 264.196C161.447 274.181 148.547 280.794 134.578 283.118C135.249 285.791 136.632 288.225 137.587 290.798C138.542 293.371 139.017 296.349 137.857 298.831C136.392 301.997 132.188 301.583 129.266 300.881C129.236 300.881 129.218 300.881 129.188 300.881" stroke="black" stroke-width="2"/>
    <path d="M114.147 219.678C109.262 220.729 104.317 221.492 99.3541 222.177C101.836 245.36 106.528 268.77 117.884 289.157C120.252 293.418 123.287 298.08 127.823 300.304C128.285 300.528 128.763 300.719 129.253 300.875C133.802 302.371 139.401 301.146 143.71 299.733C154.176 296.314 164.795 292.21 174.337 286.724C182.575 282.001 192.405 274.334 191.345 264.125C191.242 263.001 191.013 261.892 190.66 260.819" stroke="black" stroke-width="2"/>
    <path d="M195.819 173.435C197.319 179.693 202.646 184.294 209.055 184.87C209.314 183.611 209.877 182.434 210.695 181.442C214.184 177.33 215.671 185.044 226.83 179.506C242.295 171.813 248.164 176.226 248.164 176.226C248.679 176.61 248.601 180.151 248.688 180.797C249.124 184.473 249.516 188.132 249.948 191.804C250.21 194.045 250.467 196.269 250.711 198.494C250.922 198.115 251.155 197.75 251.409 197.399C252.818 192.414 255.334 186.527 260.759 189.061C261.857 189.596 262.814 190.384 263.55 191.359C267.148 196.086 264.422 200.652 260.659 204.032C259.715 205.081 258.661 206.024 257.514 206.845C258.134 208.127 260.663 213.216 260.663 213.234C260.925 213.748 269.764 203.744 270.423 202.654C271.407 199.983 271.935 197.166 271.984 194.32C272.128 182.62 267.366 169 257.889 162.289C255.539 160.627 256.289 159.027 256.145 156.768C256.125 156.518 255.952 156.306 255.711 156.235C255.471 156.165 255.211 156.25 255.059 156.449C252.089 159.868 244.737 159.528 244.737 159.528C219.216 153.135 210.638 164.482 205.488 166.506C203.386 167.302 201.073 167.34 198.946 166.615C198.691 168.05 197.662 169.225 196.273 169.667L196.404 170.849C196.515 171.753 196.308 172.667 195.819 173.435H195.819Z" fill="#FFB81C"/>
    <path d="M209.072 184.886C202.663 184.311 197.337 179.709 195.837 173.452C195.55 172.281 195.369 171.087 195.296 169.884L195.497 169.863C195.771 169.842 196.041 169.783 196.299 169.688C197.688 169.246 198.717 168.07 198.972 166.635C199.052 166.245 199.068 165.845 199.02 165.449L198.366 159.675C198.366 159.675 202.98 163.107 208.1 161.101C213.22 159.095 221.815 147.748 247.349 154.124C247.349 154.124 253.114 154.464 256.071 151.045C256.223 150.846 256.482 150.761 256.723 150.831C256.964 150.902 257.136 151.113 257.157 151.363C257.309 153.627 258.147 155.227 260.502 156.884C269.978 163.6 274.74 177.215 274.592 188.916C274.548 193.77 272.935 198.562 270.445 202.675C269.786 203.765 260.946 213.769 260.685 213.255C260.685 213.255 258.155 208.148 257.536 206.866L257.388 206.582L257.671 206.395C258.724 205.68 259.729 204.898 260.68 204.053C264.44 200.673 267.17 196.107 263.572 191.38C262.835 190.405 261.879 189.617 260.781 189.082C255.338 186.548 252.839 192.435 251.431 197.42C251.157 198.372 250.989 199.352 250.929 200.342C250.864 199.731 250.798 199.142 250.733 198.532C250.489 196.308 250.232 194.084 249.97 191.842C249.534 188.17 249.124 184.511 248.71 180.835C248.644 180.207 248.71 176.648 248.186 176.265C248.186 176.265 242.312 171.851 226.852 179.544C215.692 185.083 214.205 177.364 210.717 181.48C209.899 182.472 209.336 183.649 209.077 184.908C208.997 185.312 208.946 185.722 208.924 186.134C208.916 186.187 208.916 186.241 208.924 186.295C208.872 187.198 208.854 188.096 208.833 188.977C208.75 197.476 209.683 206.355 213.019 214.249C217.075 223.817 227.807 233.254 238.967 228.793C242.456 227.393 245.583 225.138 248.444 222.744" stroke="black" stroke-width="2"/>
    <ellipse rx="2.11945" ry="2.56427" transform="matrix(0.948324 -0.317304 0.317305 0.948324 215.896 203.185)" fill="black"/>
    <ellipse rx="2.11946" ry="2.56428" transform="matrix(0.948324 -0.317304 0.317305 0.948323 232.501 202.654)" fill="black"/>
    <path d="M226.966 207.961C226.966 207.961 221.44 211.096 221.105 207.843C221 206.84 219.648 197.015 219.648 197.015C219.648 197.015 215.182 192.283 208.34 195.781" stroke="black" stroke-width="2"/>
    <path d="M225.723 194.263C225.723 194.263 234.645 189.806 240.55 196.23" stroke="black" stroke-width="2"/>
    <path d="M233.904 229.889L234.929 235.148C231.697 238.127 229.412 242.396 230.079 246.892C230.673 250.878 233.935 254.589 237.279 256.678C242.87 260.167 250.306 259.892 256.324 257.673C262.207 255.492 267.296 251.354 270.986 246.303C272.723 243.862 273.88 241.057 274.37 238.1V238.048" stroke="black" stroke-width="2"/>
    <path d="M234.929 235.148L236.926 244.647" stroke="black" stroke-width="2"/>
    <path d="M263.175 210.965L266.193 231.004C266.808 235.058 270.295 238.052 274.396 238.047C283.788 239.569 293.053 241.79 302.114 244.693C337.513 256.11 359.3 287.998 365.454 323.627C368.013 338.546 368.205 354.193 364.991 369.029C363.164 377.381 360.521 386.761 354.385 393.015C346.418 401.17 334.19 397.812 324.774 394.127C295.542 382.758 271.23 362.531 250.236 339.375C239.011 326.989 224.506 317.064 224.506 317.064" stroke="black" stroke-width="2"/>
    <path d="M110.989 373.622C107.71 373.592 104.853 370.944 104.116 367.259C102.66 360.011 102.276 348.804 112.904 346.357C126.183 343.304 136.396 357.765 141.403 366.906C143.086 369.959 141.18 373.884 138.045 373.884L110.989 373.622Z" fill="#979EA3"/>
    <ellipse cx="110.365" cy="332.677" rx="6.13156" ry="9.04035" transform="rotate(-33.64 110.365 332.677)" fill="#979EA3"/>
    <path d="M333.605 405.278C333.4 405.309 333.169 405.339 332.968 405.387H332.89L301.87 405.226L255.325 404.986C255.146 404.986 254.972 404.986 254.797 404.986C254.452 404.978 254.107 404.951 253.764 404.907C260.274 404.151 265.298 398.825 265.674 392.282C265.683 392.118 265.683 391.954 265.674 391.789V391.536C265.648 385.144 261.14 379.647 254.876 378.371C254.558 378.292 254.209 378.244 253.873 378.196C254.401 378.148 254.924 378.113 255.434 378.113L294.757 378.323L301.997 378.353L311.761 378.401C318.689 379.033 323.999 384.833 324.02 391.789C324.02 392.423 323.972 393.056 323.876 393.682C322.915 400.287 317.267 405.196 310.592 405.226H334.22C332.859 405.226 333.239 405.226 333.605 405.278Z" fill="white"/>
    <path d="M270.685 421.497C272.474 423.297 274.91 424.305 277.449 424.297H254.606C250.245 424.297 247.864 423.233 246.128 421.497C244.344 419.706 243.34 417.283 243.333 414.755C243.333 409.522 247.624 405.23 254.606 405.23H277.449C273.592 405.225 270.112 407.545 268.635 411.108C267.159 414.671 267.976 418.773 270.707 421.497H270.685Z" fill="#FFE7B3"/>
    <path d="M346.126 392.03C346.12 394.045 345.651 396.031 344.756 397.835C344.117 399.199 343.24 400.438 342.166 401.494C340.395 403.249 338.171 404.476 335.742 405.039C334.741 405.27 333.717 405.388 332.689 405.388C332.899 405.34 333.126 405.31 333.326 405.279C332.96 405.244 332.58 405.231 333.945 405.231H310.313C316.992 405.205 322.646 400.293 323.605 393.683C323.702 393.057 323.75 392.424 323.749 391.791C323.728 384.832 318.416 379.032 311.486 378.402L324.242 378.468L332.764 378.516C340.177 378.578 346.148 384.617 346.126 392.03Z" fill="#FFE7B3"/>
    <path fill-rule="evenodd" clip-rule="evenodd" d="M346.126 392.025C346.07 399.443 340.025 405.42 332.606 405.391L255.016 404.99C254.497 404.99 253.978 404.951 253.454 404.898C260.224 404.131 265.35 398.422 265.385 391.609C265.421 384.796 260.355 379.034 253.594 378.196C254.113 378.141 254.634 378.115 255.155 378.117L332.746 378.519C340.164 378.569 346.145 384.607 346.126 392.025V392.025Z" stroke="black" stroke-width="2" stroke-linecap="square" stroke-linejoin="round"/>
    <path fill-rule="evenodd" clip-rule="evenodd" d="M323.741 391.785C323.726 399.202 317.717 405.212 310.3 405.226H255.094C254.573 405.223 254.052 405.194 253.533 405.139C260.298 404.336 265.393 398.6 265.393 391.788C265.393 384.975 260.298 379.24 253.533 378.436C254.052 378.388 254.575 378.354 255.094 378.354H310.3C317.713 378.37 323.719 384.373 323.741 391.785V391.785Z" stroke="black" stroke-width="2" stroke-linecap="square" stroke-linejoin="round"/>
    <path fill-rule="evenodd" clip-rule="evenodd" d="M243.333 414.758C243.332 417.284 244.336 419.707 246.124 421.492C247.868 423.236 250.236 424.296 254.601 424.296H333.941C332.576 424.296 332.947 424.27 333.317 424.235C328.512 423.669 324.891 419.597 324.891 414.758C324.891 409.92 328.512 405.847 333.317 405.282C332.947 405.247 332.576 405.221 333.941 405.221H254.601C247.615 405.225 243.333 409.516 243.333 414.758H243.333Z" stroke="black" stroke-width="2" stroke-linecap="square" stroke-linejoin="round"/>
    <path fill-rule="evenodd" clip-rule="evenodd" d="M267.885 414.758C267.897 420.021 272.16 424.284 277.423 424.296H332.21C332.576 424.296 332.947 424.27 333.317 424.235C328.512 423.669 324.891 419.597 324.891 414.758C324.891 409.92 328.512 405.847 333.317 405.282C332.947 405.247 332.576 405.221 332.21 405.221H277.423C272.161 405.235 267.899 409.497 267.885 414.758H267.885Z" stroke="black" stroke-width="2" stroke-linecap="square" stroke-linejoin="round"/>
    <path d="M179.073 341.991H154.599C152.311 341.986 150.242 340.632 149.322 338.537C148.969 337.761 149.039 336.858 149.506 336.145C149.973 335.432 150.773 335.008 151.625 335.022H177.643C176.417 337.085 177.041 339.95 179.073 341.991Z" fill="#979EA3"/>
    <path d="M194.899 339.471C194.897 340.86 193.772 341.985 192.383 341.987H179.073C177.041 339.951 176.417 337.086 177.643 335.01H189.396C191.681 335.01 193.751 336.357 194.677 338.446C194.818 338.77 194.893 339.118 194.899 339.471Z" fill="#D49200"/>
    <path d="M188.776 341.991C188.707 342.124 188.627 342.251 188.537 342.37C186.792 344.756 183.002 344.987 180.059 342.833C179.711 342.576 179.381 342.294 179.073 341.991C177.041 339.954 176.417 337.089 177.643 335.013C177.712 334.88 177.792 334.753 177.883 334.634C179.627 332.231 183.399 332.017 186.343 334.154C186.697 334.419 187.031 334.711 187.342 335.026C189.356 337.054 189.984 339.902 188.776 341.991Z" fill="white"/>
    <path d="M201.053 354.835C201.043 356.225 199.913 357.347 198.523 357.347H172.841C174.08 355.262 173.461 352.419 171.424 350.369H195.549C197.838 350.37 199.91 351.723 200.83 353.819C200.974 354.138 201.05 354.484 201.053 354.835Z" fill="#D49200"/>
    <path d="M172.841 357.347H160.757C158.471 357.349 156.4 356.001 155.476 353.911C155.333 353.591 155.258 353.245 155.253 352.895C155.252 352.228 155.517 351.589 155.988 351.117C156.459 350.646 157.099 350.382 157.765 350.383H171.424C173.461 352.419 174.093 355.263 172.841 357.347Z" fill="#979EA3"/>
    <path d="M172.841 357.347C172.785 357.484 172.71 357.613 172.619 357.73C170.874 360.129 167.098 360.347 164.159 358.206C163.803 357.94 163.468 357.649 163.156 357.333C161.136 355.297 160.517 352.454 161.725 350.356C161.795 350.222 161.875 350.094 161.965 349.972C163.709 347.587 167.499 347.355 170.438 349.514C170.788 349.769 171.118 350.05 171.424 350.356C173.461 352.419 174.093 355.262 172.841 357.347Z" fill="white"/>
    <path d="M181.398 372.598H166.021C163.736 372.595 161.667 371.248 160.739 369.161C160.388 368.383 160.458 367.479 160.925 366.764C161.392 366.049 162.192 365.623 163.046 365.633H179.967C178.755 367.722 179.378 370.561 181.398 372.598Z" fill="#D49200"/>
    <path d="M206.316 370.102C206.309 371.484 205.186 372.599 203.804 372.597H181.398C179.378 370.56 178.755 367.717 179.967 365.619H200.813C203.102 365.62 205.174 366.973 206.094 369.069C206.238 369.394 206.313 369.746 206.316 370.102Z" fill="#979EA3"/>
    <path d="M191.101 372.596C191.031 372.73 190.951 372.858 190.861 372.98C189.117 375.378 185.344 375.596 182.401 373.455C182.047 373.189 181.713 372.897 181.402 372.583C179.383 370.546 178.759 367.703 179.972 365.605C180.038 365.47 180.117 365.342 180.207 365.221C181.951 362.836 185.741 362.631 188.685 364.763C189.035 365.018 189.364 365.299 189.67 365.605C191.703 367.668 192.322 370.529 191.101 372.596Z" fill="white"/>
    <path d="M74.9281 233.564L75.3119 233.673L75.168 234.232C75.0769 234.013 74.9968 233.791 74.9281 233.564Z" fill="#353642"/>
    <ellipse cx="139.519" cy="255.996" rx="10.8327" ry="12.9827" transform="rotate(-16.36 139.519 255.996)" fill="#979EA3"/>
</svg>
